<?xml version="1.0" standalone="no"?>
<!DOCTYPE svg PUBLIC "-//W3C//DTD SVG 20010904//EN"
 "http://www.w3.org/TR/2001/REC-SVG-20010904/DTD/svg10.dtd">
<svg version="1.0" xmlns="http://www.w3.org/2000/svg"
 width="207.000000pt" height="183.000000pt" viewBox="0 0 207.000000 183.000000"
 preserveAspectRatio="xMidYMid meet">

<g transform="translate(0.000000,183.000000) scale(0.100000,-0.100000)"
fill="#e6d889" stroke="none">
<path d="M1017 1713 c-4 -3 -7 -33 -7 -66 0 -33 -5 -89 -12 -124 -10 -53 -16
-67 -35 -74 -29 -11 -30 -43 -2 -62 18 -13 19 -18 8 -36 -12 -17 -10 -23 11
-46 21 -23 25 -24 33 -9 8 13 11 14 18 3 17 -27 9 -39 -25 -39 -29 0 -41 8
-77 50 -64 76 -78 63 -34 -34 14 -30 25 -59 25 -65 0 -5 6 -16 13 -23 47 -51
77 -100 77 -127 0 -20 7 -34 21 -41 19 -11 20 -13 4 -30 -17 -19 -13 -60 6
-60 5 0 9 -30 8 -67 -1 -62 -2 -65 -10 -33 -6 19 -19 54 -30 77 -10 24 -19 48
-20 55 -1 21 -103 175 -163 247 -19 23 -51 76 -70 119 -48 102 -51 107 -67
107 -32 0 -13 -150 28 -214 11 -17 12 -26 4 -34 -15 -15 -14 -54 1 -63 7 -5
25 -7 40 -6 31 3 36 -9 13 -28 -37 -30 -5 -76 45 -65 23 5 30 3 30 -9 0 -9 -7
-16 -15 -16 -26 0 -18 -48 11 -67 22 -14 29 -14 46 -4 23 14 29 10 54 -46 20
-46 19 -47 -28 -15 -47 32 -168 82 -196 82 -23 -1 36 -50 60 -50 9 0 20 -5 23
-11 4 -5 18 -15 32 -20 14 -5 23 -12 20 -15 -3 -3 -22 3 -44 14 -21 10 -50 22
-64 26 -20 4 -35 22 -59 68 -18 35 -41 74 -50 88 -34 48 -71 155 -77 223 -9
108 15 174 99 261 47 50 70 84 79 114 18 64 0 72 -46 20 -21 -23 -68 -68 -104
-100 -36 -32 -71 -68 -78 -81 -8 -14 -12 -64 -13 -135 l0 -112 -27 6 c-16 4
-38 11 -51 15 -37 14 -103 10 -183 -10 -60 -15 -85 -17 -133 -10 -65 11 -87 2
-61 -24 27 -27 94 -40 210 -39 152 1 201 -10 246 -54 32 -32 94 -133 85 -141
-4 -4 -62 20 -133 54 -50 24 -83 25 -83 4 0 -6 6 -15 13 -21 54 -46 96 -72
131 -82 23 -6 46 -15 51 -19 6 -3 25 -10 44 -14 29 -6 37 -15 63 -74 33 -72
69 -191 58 -191 -3 0 -17 12 -31 26 -22 23 -89 70 -145 101 -43 24 -141 36
-221 27 -101 -10 -140 -7 -181 17 -39 22 -62 24 -62 6 0 -26 26 -49 85 -74 53
-23 74 -27 180 -28 167 -2 234 -28 314 -124 31 -37 42 -57 38 -72 -8 -31 2
-49 27 -49 13 0 33 -11 46 -25 13 -14 27 -25 32 -25 4 0 17 -9 29 -21 12 -12
29 -19 40 -16 10 3 17 1 14 -4 -3 -5 -1 -18 6 -30 9 -17 17 -20 44 -16 29 5
35 2 50 -28 18 -32 18 -33 -4 -64 -12 -17 -30 -31 -39 -31 -36 0 -103 -44
-137 -90 -20 -27 -45 -52 -55 -55 -11 -4 -20 -11 -20 -16 0 -16 54 17 100 63
28 28 67 52 103 66 78 29 82 27 20 -9 -51 -30 -99 -77 -88 -87 3 -3 18 6 33
20 15 13 43 31 62 38 19 7 43 20 53 29 16 13 20 13 27 1 5 -8 6 -18 4 -22 -3
-4 4 -8 15 -8 12 0 21 -7 21 -15 0 -9 6 -12 15 -9 8 4 22 1 30 -6 8 -6 19 -9
25 -5 7 5 9 -2 4 -22 -6 -24 -5 -26 7 -16 10 8 26 9 54 3 54 -13 55 -13 55 10
0 17 7 20 44 20 25 0 47 4 50 9 6 9 -96 32 -128 28 -13 -1 -19 5 -21 20 -2 21
14 22 41 2 11 -9 77 -10 107 -2 34 9 16 23 -28 21 -38 -1 -50 4 -85 35 -22 21
-44 37 -50 37 -21 0 16 66 69 119 63 65 131 101 199 109 51 5 122 27 217 66
47 20 77 26 143 26 85 0 141 18 171 54 28 34 -17 48 -70 21 -24 -13 -37 -14
-72 -4 -58 15 -162 4 -238 -27 -34 -14 -63 -23 -65 -21 -2 2 21 21 53 43 31
21 72 60 92 86 175 228 221 310 221 391 0 70 -20 60 -65 -35 -22 -46 -41 -87
-43 -92 -3 -5 3 -6 12 -3 14 5 15 3 6 -13 -13 -24 -32 -37 -24 -16 3 9 2 16
-2 15 -10 -1 -99 -103 -147 -169 -18 -25 -48 -53 -67 -62 -19 -10 -41 -25 -47
-35 -11 -14 -13 -15 -13 -1 0 8 32 44 70 79 39 35 70 66 70 70 0 4 18 33 39
66 22 32 45 80 52 106 11 44 10 50 -8 69 l-20 20 -21 -34 c-26 -44 -36 -78
-23 -78 6 0 18 18 27 40 9 22 21 40 26 40 13 0 5 -21 -45 -110 -43 -77 -208
-253 -215 -231 -2 7 1 18 7 25 23 27 -3 24 -32 -4 -34 -33 -45 -33 -27 0 8 15
10 45 5 90 -7 73 11 246 28 268 10 13 93 52 111 52 6 0 12 -11 12 -25 1 -14
-2 -25 -7 -25 -5 0 -9 -10 -9 -22 0 -13 -20 -81 -45 -153 -25 -71 -45 -133
-45 -137 0 -4 11 -8 25 -8 31 0 175 138 175 167 0 12 -16 1 -50 -37 -29 -32
-49 -49 -50 -39 0 8 13 55 30 103 16 48 32 115 36 149 4 34 11 68 17 74 16 21
105 44 211 54 112 11 127 16 101 36 -25 18 -151 17 -240 -2 -90 -19 -95 -19
-95 5 0 10 -5 31 -12 45 -25 55 -66 11 -49 -53 6 -20 7 -38 3 -40 -4 -1 -38
-22 -76 -47 -38 -25 -70 -44 -72 -42 -2 2 -9 28 -16 58 -12 55 -14 100 -8 264
3 92 -17 174 -40 160 -5 -3 -10 -37 -10 -75 0 -47 -7 -88 -22 -127 -26 -70
-27 -155 -3 -262 12 -53 15 -93 11 -139 -10 -99 -11 -99 -101 -39 -44 29 -88
56 -97 60 -10 3 -18 11 -18 16 0 5 22 56 49 113 63 135 91 218 99 303 11 105
-21 227 -49 185 -12 -19 -14 -32 -29 -148 -15 -116 -52 -233 -93 -289 -17 -24
-31 -43 -32 -43 -4 0 -6 72 -8 250 -2 178 -4 210 -20 233 -18 27 -28 33 -40
20z m19 -173 c-7 -66 -33 -123 -59 -128 -25 -5 -21 15 7 33 19 13 27 31 37 86
7 38 14 69 16 69 3 0 2 -27 -1 -60z m202 -47 c-12 -102 -47 -207 -63 -191 -3
3 5 35 19 72 14 36 28 93 32 126 4 33 10 60 14 60 3 0 3 -30 -2 -67z m-668 12
c-14 -15 -29 -49 -36 -83 l-12 -57 -1 52 c-1 42 4 57 25 82 14 17 31 31 37 31
6 0 0 -11 -13 -25z m805 -174 c0 -76 5 -123 12 -133 7 -8 9 -19 3 -28 -11 -18
-13 -15 -28 43 -15 60 -16 178 0 212 6 14 12 25 12 25 1 0 1 -53 1 -119z
m-665 31 c0 -22 61 -146 86 -173 9 -10 13 -19 8 -19 -5 0 2 -6 16 -13 16 -8
26 -23 28 -40 2 -19 9 -27 23 -27 15 0 19 -5 14 -19 -4 -13 0 -20 16 -24 16
-4 20 -11 16 -26 -3 -12 1 -21 12 -24 9 -2 24 -26 35 -53 10 -27 25 -63 33
-79 7 -17 17 -51 21 -75 4 -24 12 -45 18 -47 13 -4 32 39 36 81 2 16 9 31 17
34 10 3 11 -1 5 -19 -4 -13 -7 -35 -7 -49 1 -14 -3 -28 -8 -31 -6 -3 -6 -15 0
-30 5 -14 6 -32 1 -40 -4 -7 -4 -61 0 -119 5 -58 6 -144 5 -192 -2 -47 0 -109
4 -137 6 -40 5 -51 -5 -51 -9 0 -14 12 -14 36 0 50 -29 144 -46 151 -8 3 -14
13 -14 22 0 18 -60 80 -122 126 -25 18 -38 35 -38 51 0 22 -77 226 -101 267
-6 11 -9 21 -7 22 2 2 41 -17 86 -41 155 -85 220 -195 225 -386 2 -80 16 -120
18 -52 2 74 -2 109 -18 184 -20 90 -65 167 -136 233 -40 36 -46 45 -24 36 15
-7 27 -16 27 -21 0 -4 11 -8 25 -8 18 0 25 -5 25 -20 0 -11 5 -20 10 -20 18 0
10 64 -15 119 -14 29 -47 79 -74 110 -88 102 -173 246 -185 314 -4 21 -10 45
-13 53 -3 8 0 14 6 14 6 0 11 -8 11 -18z m310 -4 c0 -12 -3 -18 -7 -15 -3 4
-12 2 -20 -4 -17 -15 -18 12 -1 29 18 18 28 15 28 -10z m597 -60 c-3 -7 -5 -2
-5 12 0 14 2 19 5 13 2 -7 2 -19 0 -25z m-631 -83 c27 -36 51 -47 40 -19 -5
14 -4 15 9 4 8 -7 15 -19 15 -26 0 -21 18 -17 39 9 66 78 70 82 71 65 0 -10
-7 -18 -16 -18 -10 0 -14 -6 -10 -15 3 -8 -6 -27 -19 -41 -14 -15 -25 -30 -26
-33 0 -3 -2 -25 -5 -47 -3 -25 -1 -45 5 -49 6 -3 11 -17 11 -31 0 -32 -26 -31
-34 1 -4 14 -13 25 -21 25 -8 0 -15 4 -15 10 0 5 7 7 15 4 30 -12 15 32 -27
76 -45 49 -108 142 -108 161 0 13 33 -20 76 -76z m729 65 c-3 -5 -12 -10 -18
-10 -7 0 -6 4 3 10 19 12 23 12 15 0z m-1278 -56 c12 -8 30 -11 39 -7 12 4 15
3 10 -5 -5 -8 1 -12 17 -12 14 0 30 -7 37 -15 17 -20 62 -117 57 -122 -2 -2
-23 20 -47 47 -78 91 -90 95 -282 95 -91 0 -170 4 -175 8 -4 5 20 5 54 1 45
-5 67 -3 78 6 37 31 166 33 212 4z m1083 -44 c-24 -15 -36 -11 -14 4 10 8 21
12 24 10 2 -3 -2 -9 -10 -14z m-120 -61 c0 -5 -4 -9 -10 -9 -5 0 -10 7 -10 16
0 8 5 12 10 9 6 -3 10 -10 10 -16z m-595 -49 c-3 -5 -11 -10 -16 -10 -6 0 -7
5 -4 10 3 6 11 10 16 10 6 0 7 -4 4 -10z m-195 -74 c0 -12 -5 -7 -19 24 -11
24 -11 24 3 6 9 -11 16 -24 16 -30z m60 -58 c22 -44 40 -87 40 -95 0 -7 4 -13
8 -13 5 0 14 -24 21 -54 7 -30 18 -60 26 -66 7 -6 16 -29 20 -51 4 -21 11 -41
15 -44 5 -3 7 -12 4 -19 -3 -8 0 -17 6 -21 6 -4 8 -16 4 -27 -4 -14 -2 -19 7
-16 7 2 25 -7 39 -21 14 -14 39 -36 55 -48 20 -15 25 -22 14 -23 -9 0 -22 7
-29 15 -6 8 -22 17 -33 21 -57 18 -221 164 -203 181 9 10 38 -7 34 -19 -4 -12
61 -73 68 -65 9 9 -51 220 -79 282 -35 74 -69 165 -62 165 2 0 22 -37 45 -82z
m1200 78 c0 -3 -4 -8 -10 -11 -5 -3 -10 -1 -10 4 0 6 5 11 10 11 6 0 10 -2 10
-4z m-1410 -16 c0 -5 -2 -10 -4 -10 -3 0 -8 5 -11 10 -3 6 -1 10 4 10 6 0 11
-4 11 -10z m925 -87 c-3 -54 -9 -125 -15 -158 -15 -88 -14 -97 10 -90 11 4 20
2 20 -4 0 -6 -9 -11 -19 -11 -10 0 -33 -14 -51 -30 -18 -17 -34 -29 -36 -28
-1 2 5 19 15 38 9 19 24 54 34 77 l16 42 -37 -6 c-34 -5 -62 -25 -62 -45 0 -4
9 -15 19 -25 16 -15 17 -22 8 -46 -12 -29 -147 -170 -155 -162 -3 2 1 47 8 99
7 53 10 105 7 117 -3 12 2 53 11 91 16 68 16 71 -6 131 -23 66 -28 97 -13 97
5 0 14 -7 21 -15 18 -22 139 -105 152 -105 6 0 2 -10 -10 -23 -27 -29 -28 -49
-3 -71 29 -26 54 -17 62 22 5 23 3 32 -5 29 -6 -2 -22 -8 -36 -12 -22 -7 -23
-6 -11 9 7 9 19 16 25 16 6 0 18 5 26 10 12 8 10 14 -15 42 -17 18 -23 27 -13
20 20 -15 24 -10 33 46 13 77 25 44 20 -55z m-510 67 c3 -6 -1 -13 -10 -16
-19 -8 -30 0 -20 15 8 14 22 14 30 1z m-303 -17 c21 -3 43 -13 50 -21 11 -13
9 -14 -17 -8 -16 4 -48 16 -70 27 -22 11 -31 17 -20 13 11 -3 37 -8 57 -11z
m506 -11 c2 -12 10 -22 18 -22 19 0 15 -42 -5 -48 -10 -3 -12 0 -8 12 4 11 -2
27 -18 43 -13 15 -22 31 -19 35 10 15 29 3 32 -20z m711 -49 c-14 -16 -37 -47
-52 -70 -28 -45 -58 -61 -36 -21 13 24 98 118 107 118 3 0 -5 -12 -19 -27z
m-236 -3 c-8 -30 -21 -34 -15 -5 2 14 8 25 12 25 5 0 6 -9 3 -20z m-1018 -149
c40 -18 106 -61 93 -61 -2 0 -28 11 -56 25 -29 14 -63 25 -76 25 -14 0 -28 5
-31 10 -4 6 -16 8 -28 4 -30 -9 -202 -7 -230 3 -16 6 0 10 58 14 125 10 218 3
270 -20z m1155 26 c0 -2 -10 -12 -21 -23 -22 -19 -22 -19 -10 4 10 18 31 31
31 19z m-362 -65 c2 -7 -7 -12 -23 -12 -24 0 -26 2 -15 15 14 17 31 16 38 -3z
m322 14 c0 -2 -8 -10 -17 -17 -16 -13 -17 -12 -4 4 13 16 21 21 21 13z m-40
-26 c0 -13 -11 -13 -30 0 -12 8 -11 10 8 10 12 0 22 -4 22 -10z m-94 -60 c8 0
14 4 14 9 0 10 30 24 37 17 7 -7 -49 -66 -63 -66 -10 0 -14 11 -13 38 1 20 3
29 6 20 2 -10 11 -18 19 -18z m-53 -32 c-2 -5 -13 -8 -23 -8 -10 0 -26 -10
-34 -21 -8 -12 -36 -37 -62 -56 -27 -18 -74 -62 -106 -96 -75 -81 -75 -57 0
30 59 68 87 94 172 158 39 30 46 32 51 17 4 -9 5 -20 2 -24z m524 26 c-3 -3
-12 -4 -19 -1 -8 3 -5 6 6 6 11 1 17 -2 13 -5z m-167 -15 c-25 -4 -63 -8 -85
-8 -23 -1 -45 -5 -50 -9 -6 -5 -32 -17 -60 -26 -27 -10 -64 -24 -82 -32 -17
-8 -42 -14 -55 -13 -19 0 -15 4 17 18 48 22 190 68 225 74 14 2 50 4 80 4 l55
0 -45 -8z m-535 -49 c3 -5 1 -10 -4 -10 -6 0 -11 5 -11 10 0 6 2 10 4 10 3 0
8 -4 11 -10z m195 1 c0 -10 -74 -51 -93 -51 -6 0 -1 7 11 16 12 8 22 22 22 30
0 9 11 14 30 14 17 0 30 -4 30 -9z m-240 -51 c0 -5 -7 -10 -16 -10 -8 0 -12 5
-9 10 3 6 10 10 16 10 5 0 9 -4 9 -10z m-495 -10 c3 -5 -1 -10 -10 -10 -9 0
-13 5 -10 10 3 6 8 10 10 10 2 0 7 -4 10 -10z m600 -20 c-10 -11 -23 -20 -29
-20 -6 0 0 9 14 20 32 25 38 25 15 0z m-140 -11 c-4 -5 -13 -9 -22 -9 -13 0
-13 3 -3 15 13 15 35 11 25 -6z m-395 -19 c0 -5 -2 -10 -4 -10 -3 0 -8 5 -11
10 -3 6 -1 10 4 10 6 0 11 -4 11 -10z m345 -58 c-6 -14 -8 -13 -16 7 -7 18 -6
27 3 32 15 10 23 -14 13 -39z m-275 29 c0 -12 -20 -25 -27 -18 -7 7 6 27 18
27 5 0 9 -4 9 -9z m100 -31 c0 -5 -2 -10 -4 -10 -3 0 -8 5 -11 10 -3 6 -1 10
4 10 6 0 11 -4 11 -10z m-46 -31 c-3 -5 -10 -7 -15 -3 -5 3 -7 10 -3 15 3 5
10 7 15 3 5 -3 7 -10 3 -15z m227 -37 c-6 -12 -11 -33 -11 -49 -1 -27 -20 -63
-34 -63 -4 0 -2 9 4 19 5 11 10 27 10 36 0 22 29 89 36 82 3 -3 1 -14 -5 -25z
m-44 -24 c-3 -8 -6 -5 -6 6 -1 11 2 17 5 13 3 -3 4 -12 1 -19z m134 -199 c11
-5 17 -14 14 -20 -9 -14 -19 -11 -33 11 -14 23 -10 25 19 9z"/>
<path d="M1480 1050 c0 -5 5 -10 10 -10 6 0 10 5 10 10 0 6 -4 10 -10 10 -5 0
-10 -4 -10 -10z"/>
<path d="M793 153 c-24 -26 -61 -57 -81 -70 -32 -19 -34 -22 -14 -23 14 0 48
25 95 70 39 38 66 70 58 70 -8 0 -34 -21 -58 -47z"/>
<path d="M983 118 c-13 -6 -23 -15 -23 -20 0 -14 16 -9 41 12 26 21 17 25 -18
8z"/>
</g>
</svg>
