<?xml version="1.0" standalone="no"?>
<!DOCTYPE svg PUBLIC "-//W3C//DTD SVG 20010904//EN"
 "http://www.w3.org/TR/2001/REC-SVG-20010904/DTD/svg10.dtd">
<svg version="1.0" xmlns="http://www.w3.org/2000/svg"
 width="303.000000pt" height="200.000000pt" viewBox="0 0 303.000000 200.000000"
 preserveAspectRatio="xMidYMid meet">

<g transform="translate(0.000000,200.000000) scale(0.100000,-0.100000)"
fill="#e6d889" stroke="none">
<path d="M1222 1860 c-45 -11 -69 -35 -77 -79 -9 -54 -22 -71 -30 -40 -7 30
-64 59 -116 59 -77 0 -142 -78 -119 -143 15 -44 48 -76 87 -83 42 -8 42 -15
-2 -38 -46 -25 -65 -48 -75 -89 -15 -67 32 -126 101 -129 59 -2 115 44 129
104 l7 33 13 -30 c7 -16 22 -52 33 -80 12 -27 32 -63 44 -78 25 -31 30 -57 12
-57 -8 0 -10 -20 -7 -60 3 -45 10 -66 27 -84 33 -35 81 -57 102 -46 13 8 19 3
29 -23 6 -17 16 -40 21 -49 13 -25 11 -40 -8 -79 -32 -66 -78 -124 -165 -210
-64 -63 -88 -93 -88 -111 0 -14 -7 -44 -15 -67 -8 -22 -16 -60 -19 -82 -2 -23
-11 -46 -18 -50 -19 -12 -21 4 -9 59 8 38 6 61 -8 114 -9 37 -20 71 -24 74 -4
4 -7 17 -7 29 0 12 -34 73 -75 136 -74 113 -94 169 -60 169 9 0 15 -9 15 -23
0 -36 49 -77 93 -77 41 0 57 19 57 67 0 27 -22 70 -44 85 -15 11 -63 10 -84
-1 -9 -6 -30 -12 -45 -16 -61 -13 -59 -96 3 -172 46 -55 48 -63 18 -63 -33 -1
-64 -21 -93 -60 -30 -41 -32 -63 -4 -91 24 -24 24 -94 -1 -94 -8 0 -16 9 -18
20 -15 96 -133 246 -231 291 -20 9 -50 27 -68 40 -32 24 -63 32 -63 16 0 -14
29 -36 100 -76 68 -40 140 -102 140 -122 0 -7 6 -14 14 -17 35 -14 96 -193 96
-284 0 -62 -18 -118 -44 -135 -6 -4 -36 -15 -66 -24 -44 -13 -62 -14 -93 -4
-67 20 -263 2 -298 -27 -8 -7 -23 -13 -32 -13 -21 0 -31 -17 -15 -26 15 -9 87
-6 130 7 22 6 34 5 39 -2 4 -8 15 -6 32 6 15 9 31 14 37 10 6 -3 67 -6 137 -6
105 0 133 -4 164 -20 21 -10 52 -19 68 -19 39 0 163 -29 178 -41 17 -15 99 0
118 21 9 10 17 30 18 46 2 23 -2 29 -18 29 -11 0 -24 -10 -30 -23 -8 -18 -17
-22 -40 -20 -34 3 -35 11 -16 108 11 55 37 90 67 90 8 0 25 6 37 14 28 18 133
43 214 52 53 6 67 3 98 -15 20 -12 53 -25 73 -31 20 -5 53 -13 73 -18 20 -5
79 -32 130 -59 97 -52 163 -77 236 -88 24 -4 45 -10 48 -15 2 -4 32 -6 65 -5
76 3 127 33 110 65 -15 27 -71 27 -88 0 -9 -16 -23 -20 -61 -20 -28 0 -53 5
-56 10 -3 6 -21 10 -40 10 -19 0 -36 4 -39 9 -3 5 -20 12 -38 15 -18 4 -44 15
-56 24 -24 18 -22 19 120 33 243 24 253 22 403 -77 103 -67 257 -89 337 -48
21 11 33 12 48 4 31 -17 92 -1 127 32 17 17 36 27 42 24 5 -4 21 -4 35 0 18 4
25 14 28 40 3 22 -1 39 -10 47 -30 25 -108 -7 -95 -39 3 -9 -2 -14 -16 -14
-12 0 -21 -4 -21 -10 0 -5 7 -7 15 -4 22 9 18 -5 -7 -27 -24 -19 -73 -25 -82
-10 -3 5 5 29 19 53 20 34 25 57 25 110 0 37 -5 70 -10 73 -6 4 -9 12 -8 18 2
7 -12 34 -31 60 -32 47 -54 127 -34 127 6 0 18 -9 28 -20 31 -34 75 -20 75 25
0 53 -79 74 -118 32 -46 -49 -39 -92 39 -227 16 -28 19 -47 16 -95 -6 -78 -19
-103 -74 -144 -44 -33 -48 -33 -114 -28 -70 6 -141 34 -204 81 -16 12 -56 35
-87 51 l-57 29 19 36 c55 102 65 218 34 381 -18 95 -15 212 5 231 11 11 12 9
6 -12 -14 -47 -17 -90 -7 -90 5 0 13 -12 16 -26 5 -19 12 -25 26 -21 12 3 17
0 14 -8 -3 -7 -1 -16 4 -19 11 -6 74 15 84 28 13 19 18 94 8 122 -15 38 -69
83 -100 83 -40 -1 -84 -32 -97 -70 -16 -41 -9 -172 14 -278 21 -101 13 -201
-22 -268 -44 -85 -46 -86 -238 -104 -95 -8 -180 -14 -190 -11 -15 4 -14 10 12
59 17 30 28 60 25 67 -8 21 69 7 87 -17 25 -30 49 -16 43 25 -4 25 1 40 18 61
21 24 26 26 56 18 46 -14 86 3 122 52 39 54 40 91 0 112 -39 20 -68 19 -118
-5 -47 -23 -65 -49 -60 -89 2 -19 -7 -41 -26 -67 -16 -21 -30 -40 -31 -42 -1
-1 -16 1 -33 4 l-31 6 13 37 c8 20 19 56 26 81 54 191 128 363 195 450 114
148 287 340 307 340 5 0 16 -16 24 -37 16 -37 112 -141 150 -161 18 -9 26 -8
47 8 27 21 53 105 44 141 -3 12 0 22 8 25 35 14 37 125 2 177 -9 14 -30 28
-47 32 -26 6 -29 9 -19 26 14 26 3 56 -32 90 -29 29 -88 64 -95 57 -8 -9 10
-48 22 -48 10 0 13 -7 8 -25 -4 -15 -2 -25 5 -25 6 0 11 10 11 21 0 18 3 19
15 9 12 -10 12 -15 -1 -35 -9 -13 -29 -27 -45 -30 -17 -4 -26 -11 -23 -17 4
-6 -1 -17 -11 -24 -15 -11 -16 -16 -5 -29 10 -12 10 -15 -5 -15 -11 0 -15 -5
-11 -16 3 -9 2 -12 -4 -9 -6 4 -13 -7 -16 -24 -4 -17 -10 -31 -15 -31 -12 0
-6 179 6 188 6 4 11 20 12 35 0 16 9 37 19 48 15 17 15 19 1 19 -9 0 -19 -5
-22 -11 -5 -6 -11 -4 -19 7 -8 10 -31 18 -62 21 -61 6 -104 -22 -104 -67 0
-56 49 -187 90 -238 l39 -50 -42 -33 c-23 -18 -46 -39 -50 -46 -5 -8 -32 -40
-60 -72 -138 -154 -242 -315 -287 -441 -6 -19 -16 -44 -21 -55 -5 -11 -17 -54
-28 -95 -24 -96 -29 -109 -64 -190 -48 -111 -70 -152 -83 -157 -18 -7 -144 26
-144 38 0 4 -17 9 -37 11 l-38 3 -3 107 c-3 104 -2 106 24 127 33 26 57 28 50
4 -10 -34 46 -73 105 -73 34 0 84 23 91 42 9 25 -12 77 -46 112 -26 28 -41 36
-68 36 -35 0 -68 -24 -68 -49 0 -8 -8 -11 -20 -8 -11 3 -20 2 -20 -2 0 -4 -11
-13 -24 -19 -23 -10 -23 -10 -29 63 -3 40 -13 88 -22 106 -27 51 -35 89 -24
107 5 10 18 55 28 102 l18 85 20 -45 c28 -62 63 -91 115 -97 38 -4 48 -1 76
25 24 22 32 39 32 64 0 36 -33 98 -52 98 -6 0 5 17 26 37 20 20 39 47 42 60 7
27 -31 90 -59 99 -33 10 -103 -6 -138 -32 l-34 -25 -9 36 c-12 50 -44 69 -106
63 l-50 -5 15 23 c21 33 19 76 -7 110 -12 16 -23 30 -24 32 -6 10 -105 17
-115 8 -9 -8 -10 -8 -5 2 4 7 22 18 39 26 57 23 97 69 97 110 0 51 -22 99 -58
125 -32 22 -39 23 -90 11z m21 -32 c4 -10 8 -10 15 1 11 15 39 4 62 -23 15
-19 0 -22 -18 -4 -9 9 -12 9 -12 1 0 -7 4 -14 10 -18 14 -9 -11 -56 -29 -53
-10 2 -19 -10 -25 -33 -9 -30 -15 -35 -33 -33 -18 3 -23 -1 -23 -19 0 -12 -9
-28 -20 -35 -18 -11 -20 -10 -20 14 0 14 4 23 10 19 6 -3 10 -1 10 4 0 6 -4
11 -10 11 -12 0 -12 57 0 85 6 13 9 15 9 5 1 -13 2 -13 11 0 6 9 5 17 -2 21
-19 12 -4 44 20 42 14 -2 22 3 22 12 0 18 16 20 23 3z m-228 -61 c-6 -15 32
-41 40 -27 3 6 -1 10 -9 10 -9 0 -16 5 -16 11 0 6 8 9 18 7 12 -3 17 -13 16
-34 -1 -20 5 -35 17 -43 18 -10 19 -9 13 16 -6 27 -6 27 9 8 19 -23 22 -91 6
-101 -6 -3 -16 0 -21 7 -7 10 -7 7 -3 -8 5 -19 2 -23 -14 -23 -12 0 -21 6 -22
13 0 10 -2 10 -6 0 -10 -26 -68 -14 -108 20 -38 33 -38 34 -29 78 7 36 15 47
44 61 41 21 71 23 65 5z m1348 -6 c31 -12 45 -50 26 -65 -8 -6 -15 -27 -15
-46 -1 -19 -2 -48 -3 -65 -1 -16 1 -48 4 -70 l6 -40 -31 35 c-32 36 -84 165
-75 187 2 7 0 15 -4 18 -14 8 -1 43 18 48 28 8 49 7 74 -2z m217 -81 c0 -5 -5
-10 -11 -10 -5 0 -7 5 -4 10 3 6 8 10 11 10 2 0 4 -4 4 -10z m-1450 -96 c0 -8
-4 -12 -10 -9 -5 3 -10 10 -10 16 0 5 5 9 10 9 6 0 10 -7 10 -16z m-74 -55
c-14 -11 -24 -24 -21 -28 2 -5 -9 -7 -26 -5 -27 3 -29 2 -15 -12 20 -20 20
-25 -1 -17 -12 5 -15 2 -10 -10 3 -8 1 -18 -6 -21 -9 -5 -9 -7 1 -12 18 -8 15
-24 -5 -24 -9 0 -14 -3 -10 -6 3 -3 0 -12 -6 -19 -10 -11 -15 -10 -29 2 -17
16 -26 59 -10 49 4 -2 8 8 7 22 0 22 4 27 24 24 16 -1 22 2 18 11 -8 22 5 34
58 55 59 22 68 20 31 -9z m219 -169 c11 0 30 7 42 15 21 15 21 15 6 -16 -14
-28 -14 -34 1 -65 12 -27 13 -36 3 -39 -33 -11 -50 -8 -61 9 -6 11 -26 42 -43
70 -18 28 -33 54 -33 58 0 4 15 -1 33 -12 17 -11 41 -20 52 -20z m217 23 c22
-20 24 -81 4 -138 -18 -51 -29 -54 -50 -13 -16 31 -17 31 -11 6 3 -16 1 -28
-4 -28 -14 0 -32 26 -23 35 4 5 1 5 -5 1 -20 -11 -63 42 -63 78 0 63 103 103
152 59z m158 -48 c0 -10 6 -12 18 -8 15 6 16 5 2 -11 -8 -11 -16 -14 -18 -7
-5 15 -32 14 -32 -2 0 -7 5 -18 12 -25 9 -9 8 -12 -5 -12 -9 0 -17 5 -17 10 0
6 -5 10 -10 10 -6 0 -5 -8 2 -20 10 -15 10 -22 0 -32 -8 -8 -12 -9 -12 -1 0 7
-12 10 -27 9 -20 -2 -29 -10 -31 -25 -2 -11 -8 -21 -14 -21 -5 0 -7 7 -4 16 3
9 6 22 6 30 0 8 21 35 46 59 46 45 84 58 84 30z m-259 -128 c26 -16 28 -40 5
-52 -11 -6 -23 -21 -26 -34 l-5 -24 -13 28 c-11 23 -11 30 0 37 10 7 10 9 -2
5 -13 -3 -50 41 -50 59 0 9 70 -6 91 -19z m-111 -38 c0 -10 4 -19 10 -19 5 0
14 -10 21 -21 9 -18 7 -25 -9 -42 -18 -17 -23 -18 -37 -7 -10 8 -15 23 -12 37
2 13 0 23 -4 23 -5 0 -6 7 -4 15 3 8 7 22 10 31 6 20 25 8 25 -17z m179 -94
c-6 -22 -13 -53 -17 -69 l-7 -29 -13 28 c-11 23 -10 30 2 44 8 9 20 29 26 45
15 40 21 28 9 -19z m-449 -118 c8 -7 21 -25 29 -40 13 -24 13 -29 0 -42 -20
-20 -59 -8 -60 19 -1 11 -1 27 0 34 2 10 -4 12 -18 7 -23 -7 -28 4 -9 23 15
15 39 15 58 -1z m1321 -18 c-9 -22 -10 -22 -10 -3 -1 11 2 24 6 27 12 12 14 0
4 -24z m16 -51 c-3 -8 -6 -5 -6 6 -1 11 2 17 5 13 3 -3 4 -12 1 -19z m-897
-80 c19 -88 23 -151 15 -262 l-7 -105 -33 -7 c-46 -8 -67 1 -33 14 54 22 62
92 13 114 -25 11 -24 34 1 24 14 -5 44 40 44 67 0 38 -85 71 -117 46 -10 -8
-7 1 8 21 14 19 39 59 55 87 16 29 32 53 36 53 3 0 12 -24 18 -52z m261 -105
c14 -16 32 -37 40 -47 13 -18 12 -19 -13 -14 -16 3 -28 1 -28 -3 0 -13 -48
-11 -56 3 -4 6 -3 8 4 4 6 -3 13 -2 17 4 3 5 -5 14 -18 19 -33 13 -42 28 -27
46 19 23 54 18 81 -12z m-753 -22 c-2 -9 -13 -16 -25 -16 -12 0 -25 -3 -29 -7
-4 -5 0 -8 10 -8 9 0 15 -4 12 -9 -3 -5 -15 -7 -26 -4 -16 4 -19 2 -14 -11 4
-12 2 -15 -9 -10 -20 7 -29 44 -15 61 13 16 68 32 86 25 7 -2 12 -12 10 -21z
m443 -2 c16 -8 18 -14 9 -24 -24 -29 -90 -25 -90 5 0 7 33 23 58 29 2 1 12 -4
23 -10z m753 2 c9 -15 -63 -63 -86 -57 -7 1 -10 1 -5 -1 14 -8 7 -23 -10 -23
-26 1 -56 27 -48 40 23 37 133 67 149 41z m636 -6 c19 -23 8 -25 -14 -4 -11
11 -15 19 -9 19 6 0 16 -7 23 -15z m-1480 -69 c0 -7 10 -16 23 -20 39 -11 -2
-26 -70 -26 -68 0 -78 10 -40 41 26 22 87 26 87 5z m-424 -21 c16 -8 40 -15
54 -15 21 0 22 -2 10 -14 -22 -20 -76 -9 -95 20 -18 28 -9 30 31 9z m134 -6
c0 -5 -12 -9 -27 -9 -26 0 -26 1 -8 14 20 14 35 12 35 -5z m1010 1 c0 -5 -2
-10 -4 -10 -3 0 -8 5 -11 10 -3 6 -1 10 4 10 6 0 11 -4 11 -10z m-987 -62 c12
-15 18 -30 15 -34 -10 -9 -88 -12 -82 -2 3 5 -2 15 -12 22 -15 12 -16 15 -3
30 20 23 59 15 82 -16z m353 21 c10 -16 -8 -29 -49 -36 -39 -6 -50 10 -25 35
15 15 65 16 74 1z m-106 -7 c0 -4 -9 -13 -19 -19 -11 -7 -26 -25 -33 -40 -7
-15 -26 -34 -41 -43 -26 -14 -29 -14 -42 4 -12 16 -12 20 0 32 7 8 17 23 20
35 4 11 16 24 28 29 27 11 87 13 87 2z m-346 -107 c20 -21 43 -35 57 -35 25 0
54 -34 43 -51 -6 -11 -226 -120 -231 -115 -2 2 1 16 8 32 6 16 9 63 7 104 -3
69 -1 77 22 102 14 14 32 34 40 44 14 18 15 17 18 -14 2 -19 16 -45 36 -67z
m372 20 l29 -15 -27 0 c-15 0 -38 -4 -52 -10 -30 -11 -33 -4 -9 22 20 22 23
22 59 3z m434 -135 c0 -5 -2 -10 -4 -10 -3 0 -8 5 -11 10 -3 6 -1 10 4 10 6 0
11 -4 11 -10z m1190 -21 c0 -6 -6 -9 -14 -6 -8 3 -17 1 -19 -6 -2 -7 -8 -9
-12 -5 -4 4 -4 11 0 17 8 14 45 14 45 0z m-1926 -56 c-16 -65 -33 -93 -57 -93
-43 0 -117 13 -117 20 0 4 19 15 43 25 23 10 50 25 60 33 19 17 58 40 70 41 4
1 4 -11 1 -26z m-238 -38 c-36 -19 -47 -19 -22 0 11 8 27 15 35 15 9 0 3 -7
-13 -15z m1399 5 c-3 -5 -13 -10 -21 -10 -8 0 -14 5 -14 10 0 6 9 10 21 10 11
0 17 -4 14 -10z m-1160 -80 c8 -13 -15 -13 -35 0 -12 8 -11 10 7 10 12 0 25
-4 28 -10z"/>
<path d="M1260 1760 c0 -5 5 -10 10 -10 6 0 10 5 10 10 0 6 -4 10 -10 10 -5 0
-10 -4 -10 -10z"/>
<path d="M1195 1720 c-3 -5 -1 -10 4 -10 6 0 11 5 11 10 0 6 -2 10 -4 10 -3 0
-8 -4 -11 -10z"/>
<path d="M974 1716 c-4 -10 -2 -22 4 -28 8 -8 13 -7 18 6 4 10 2 22 -4 28 -8
8 -13 7 -18 -6z"/>
<path d="M1020 1710 c0 -5 5 -10 11 -10 5 0 7 5 4 10 -3 6 -8 10 -11 10 -2 0
-4 -4 -4 -10z"/>
<path d="M950 1660 c0 -5 5 -10 10 -10 6 0 10 5 10 10 0 6 -4 10 -10 10 -5 0
-10 -4 -10 -10z"/>
<path d="M1000 1662 c0 -5 7 -13 16 -16 10 -4 14 -1 12 6 -5 15 -28 23 -28 10z"/>
<path d="M1065 1659 c-10 -15 3 -25 16 -12 7 7 7 13 1 17 -6 3 -14 1 -17 -5z"/>
<path d="M2300 1680 c0 -5 5 -10 10 -10 6 0 10 5 10 10 0 6 -4 10 -10 10 -5 0
-10 -4 -10 -10z"/>
<path d="M935 1460 c-3 -5 -1 -10 4 -10 6 0 11 5 11 10 0 6 -2 10 -4 10 -3 0
-8 -4 -11 -10z"/>
<path d="M1360 1330 c0 -5 5 -10 10 -10 6 0 10 5 10 10 0 6 -4 10 -10 10 -5 0
-10 -4 -10 -10z"/>
<path d="M1405 1330 c-3 -5 -1 -10 4 -10 6 0 11 5 11 10 0 6 -2 10 -4 10 -3 0
-8 -4 -11 -10z"/>
<path d="M1380 1300 c0 -5 5 -10 11 -10 5 0 7 5 4 10 -3 6 -8 10 -11 10 -2 0
-4 -4 -4 -10z"/>
<path d="M1546 1272 c-3 -6 -1 -14 5 -17 15 -10 25 3 12 16 -7 7 -13 7 -17 1z"/>
<path d="M986 371 c-4 -7 -5 -15 -2 -18 9 -9 19 4 14 18 -4 11 -6 11 -12 0z"/>
<path d="M2495 1800 c-3 -5 -1 -10 4 -10 6 0 11 5 11 10 0 6 -2 10 -4 10 -3 0
-8 -4 -11 -10z"/>
<path d="M2490 1670 c0 -5 5 -10 11 -10 5 0 7 5 4 10 -3 6 -8 10 -11 10 -2 0
-4 -4 -4 -10z"/>
<path d="M2420 1636 c0 -2 7 -6 15 -10 8 -3 15 -1 15 4 0 6 -7 10 -15 10 -8 0
-15 -2 -15 -4z"/>
<path d="M414 1390 c-11 -4 -33 -23 -49 -42 -19 -23 -30 -29 -33 -19 -11 32
-42 51 -87 51 -60 0 -89 -15 -122 -64 -21 -31 -28 -52 -27 -89 0 -41 6 -53 39
-87 l38 -39 -27 -31 c-60 -72 -9 -160 94 -160 30 0 48 8 75 32 30 26 38 29 46
17 5 -8 9 -19 9 -25 0 -13 39 -49 63 -57 22 -8 22 -2 -2 31 -29 42 -63 113
-57 120 3 3 6 0 6 -6 0 -6 16 -27 35 -47 29 -28 41 -34 63 -29 64 14 90 34
107 79 20 52 14 87 -18 111 -22 17 -23 18 -5 54 22 44 14 77 -37 155 -39 57
-60 66 -111 45z m39 -17 c-7 -2 -13 -9 -13 -15 0 -6 8 -7 17 -4 16 6 16 6 0
-12 -27 -30 -18 -59 10 -31 8 8 13 8 18 0 3 -6 -1 -14 -9 -17 -9 -3 -16 -12
-16 -20 0 -23 -16 -16 -27 14 l-10 27 -2 -25 c-2 -59 0 -74 12 -83 7 -5 4 -6
-10 -2 -19 5 -23 2 -23 -14 0 -12 -4 -21 -10 -21 -5 0 -7 -7 -4 -15 4 -10 0
-15 -16 -15 -16 0 -20 4 -15 19 3 11 1 22 -5 26 -14 8 -3 89 17 128 12 24 16
27 30 15 14 -11 15 -10 9 9 -7 23 14 43 44 42 10 0 11 -2 3 -6z m-183 -24 c0
-5 4 -8 10 -4 19 12 39 -40 38 -100 0 -33 1 -62 2 -65 7 -19 4 -60 -5 -58 -5
1 -22 -2 -37 -6 -39 -11 -99 10 -92 32 5 14 4 14 -4 3 -9 -12 -13 -13 -26 -2
-10 9 -13 18 -7 25 5 6 12 22 16 36 l7 25 -21 -24 c-25 -29 -31 -25 -33 22 -1
38 21 81 56 109 23 19 96 25 96 7z m194 -131 c-4 -6 -10 -5 -15 3 -14 22 -10
33 6 19 8 -7 12 -17 9 -22z m36 -26 c0 -2 -10 -12 -22 -23 -26 -21 -72 -26
-65 -6 2 6 16 11 31 10 20 -1 26 2 22 12 -3 9 2 13 15 12 10 -1 19 -3 19 -5z
m-285 -124 c-4 -13 -9 -31 -12 -41 -3 -12 -11 -16 -20 -12 -13 5 -14 3 -3 -10
13 -15 21 -65 11 -65 -3 0 -15 10 -28 22 -26 25 -32 78 -8 78 8 0 15 7 15 16
0 10 6 14 14 11 10 -4 13 -1 9 9 -3 9 1 14 12 14 12 0 15 -6 10 -22z"/>
<path d="M381 1284 c0 -11 3 -14 6 -6 3 7 2 16 -1 19 -3 4 -6 -2 -5 -13z"/>
<path d="M372 1238 c2 -6 10 -14 16 -16 7 -2 10 2 6 12 -7 18 -28 22 -22 4z"/>
<path d="M210 1261 c0 -11 4 -22 9 -25 4 -3 6 6 3 19 -5 30 -12 33 -12 6z"/>
<path d="M220 1160 c0 -5 5 -10 11 -10 5 0 7 5 4 10 -3 6 -8 10 -11 10 -2 0
-4 -4 -4 -10z"/>
<path d="M2842 368 c5 -15 28 -23 28 -10 0 5 -7 13 -16 16 -10 4 -14 1 -12 -6z"/>
</g>
</svg>
