<?xml version="1.0" standalone="no"?>
<!DOCTYPE svg PUBLIC "-//W3C//DTD SVG 20010904//EN"
 "http://www.w3.org/TR/2001/REC-SVG-20010904/DTD/svg10.dtd">
<svg version="1.0" xmlns="http://www.w3.org/2000/svg"
 width="181.000000pt" height="238.000000pt" viewBox="0 0 181.000000 238.000000"
 preserveAspectRatio="xMidYMid meet">

<g transform="translate(0.000000,238.000000) scale(0.100000,-0.100000)"
fill="#e6d889" stroke="none">
<path d="M795 2310 c-11 -4 -30 -10 -42 -15 -13 -4 -23 -12 -23 -17 0 -6 -9
-8 -21 -5 -15 4 -19 2 -15 -9 3 -8 -1 -14 -8 -14 -12 0 -37 -20 -118 -96 -16
-14 -28 -32 -28 -40 0 -8 -6 -14 -14 -14 -24 0 -68 -42 -86 -84 -12 -30 -27
-45 -52 -55 -24 -9 -39 -24 -51 -52 -9 -22 -17 -43 -17 -48 0 -5 -15 -28 -34
-50 -23 -28 -37 -57 -42 -87 -4 -28 -13 -48 -25 -55 -36 -19 -52 -67 -46 -138
3 -44 1 -71 -8 -85 -22 -36 -28 -102 -12 -135 9 -18 11 -34 6 -42 -5 -8 -8
-40 -7 -71 1 -47 6 -62 30 -88 17 -19 28 -42 28 -59 0 -51 20 -88 66 -121 33
-24 51 -30 70 -26 21 6 26 2 35 -21 12 -35 52 -54 113 -52 35 2 52 -3 69 -20
19 -17 31 -20 59 -16 34 6 36 5 42 -30 10 -51 -1 -92 -40 -151 -19 -28 -34
-56 -34 -61 0 -6 -6 -16 -14 -22 -11 -9 -13 -28 -10 -73 6 -68 27 -118 49
-118 8 0 15 -7 15 -15 0 -10 10 -15 27 -15 17 0 23 -4 18 -9 -10 -10 -37 -14
-70 -12 -15 1 -17 3 -6 10 19 12 3 19 -49 21 -76 3 -90 1 -90 -15 0 -8 -7 -15
-15 -15 -8 0 -15 7 -15 15 0 8 -9 15 -20 15 -20 0 -20 -1 -3 -25 24 -32 47
-39 75 -22 13 8 34 18 48 21 l25 7 -24 -20 c-13 -12 -29 -21 -37 -21 -8 0 -14
-7 -14 -15 0 -8 -7 -15 -15 -15 -24 0 -17 -14 12 -28 39 -18 62 -16 37 3 -12
9 -14 14 -5 15 7 0 11 6 7 15 -4 11 2 15 24 15 20 0 30 5 30 15 0 8 7 15 15
15 8 0 15 -4 15 -10 0 -5 -4 -10 -10 -10 -5 0 -10 -4 -10 -9 0 -14 133 -7 138
7 2 7 13 10 28 6 19 -5 24 -2 24 12 1 18 1 18 11 1 7 -12 17 -15 36 -11 17 5
24 3 19 -4 -3 -6 6 -13 24 -17 16 -4 30 -11 30 -16 0 -14 -24 -11 -46 6 -31
24 -94 17 -94 -10 0 -8 -8 -11 -20 -8 -33 9 -110 -25 -110 -48 0 -25 12 -24
28 2 7 11 21 19 30 17 9 -1 23 1 30 6 7 4 19 3 27 -4 9 -7 15 -8 20 0 3 5 15
10 27 10 17 0 18 2 8 15 -17 20 3 20 33 0 15 -9 41 -13 79 -11 65 4 74 0 52
-25 -9 -10 -13 -23 -9 -29 5 -8 12 -5 21 9 8 11 27 21 42 23 15 2 26 8 24 16
-3 15 24 16 33 2 4 -6 15 -8 26 -5 24 8 25 -3 2 -21 -16 -12 -15 -13 10 -14
20 0 27 4 25 16 -2 10 3 19 11 22 9 3 11 0 7 -7 -8 -13 51 -10 72 3 7 4 12 1
12 -8 0 -19 11 -21 27 -5 6 6 21 9 34 7 24 -4 24 -4 -3 -16 -16 -6 -28 -16
-28 -22 0 -6 -12 -5 -29 4 -26 14 -32 14 -60 0 -40 -20 -32 -34 14 -24 20 5
38 4 41 -1 3 -6 14 -7 25 -4 13 4 19 2 19 -9 0 -9 3 -16 8 -16 13 0 39 35 34
48 -2 7 3 12 12 12 9 0 16 7 16 17 0 15 1 15 18 0 24 -21 36 -22 28 -1 -5 12
-2 15 10 10 8 -3 29 -6 45 -6 16 0 29 -4 29 -10 0 -5 -13 -10 -30 -10 -20 0
-30 -5 -30 -15 0 -12 -9 -15 -33 -12 -41 5 -80 -23 -71 -48 5 -11 14 -15 28
-11 11 3 24 6 29 6 4 0 7 10 7 23 l1 22 19 -24 c17 -19 23 -21 35 -11 8 7 22
9 31 6 13 -5 15 -2 10 18 -5 21 -2 25 24 31 16 4 39 4 50 0 11 -4 20 -2 20 4
0 6 4 11 9 11 5 0 9 -11 9 -24 0 -22 -3 -23 -37 -15 -20 4 -40 4 -45 -1 -5 -5
8 -12 30 -16 22 -3 44 -11 51 -16 15 -12 33 -2 33 18 0 10 9 5 25 -13 24 -27
24 -27 25 -6 0 48 -94 115 -130 93 -14 -9 -70 7 -70 20 0 4 18 7 40 6 22 -1
41 1 42 5 2 4 21 -1 43 -12 22 -11 48 -18 57 -16 9 3 26 -2 37 -10 19 -13 21
-12 21 6 0 17 -6 21 -31 21 -22 0 -39 8 -54 26 -20 23 -29 26 -58 21 -25 -4
-40 -1 -48 9 -6 8 -26 14 -43 15 -17 1 -42 4 -56 8 -17 5 -31 3 -42 -7 -16
-14 -18 -13 -18 10 0 22 -4 25 -42 26 -23 1 -44 6 -47 10 -3 5 -16 9 -28 10
-13 0 -34 2 -48 3 -14 1 -25 8 -25 16 0 8 -3 12 -7 10 -5 -3 -8 34 -8 81 0 76
-4 95 -29 146 -16 33 -31 81 -34 107 -6 66 6 139 23 139 7 0 27 12 44 26 21
17 37 23 51 19 45 -14 147 42 176 96 8 15 14 45 14 67 0 30 5 41 24 51 13 7
29 24 35 38 16 35 14 105 -4 131 -14 19 -14 25 -2 48 12 23 12 36 2 73 -15 59
-40 107 -59 114 -11 4 -13 15 -9 40 7 47 -27 122 -66 145 -23 12 -31 24 -31
45 0 31 -22 81 -50 112 -10 11 -20 37 -24 57 -4 24 -18 47 -41 67 -19 17 -35
38 -35 48 0 27 -36 80 -59 88 -12 3 -21 11 -21 16 0 15 -72 89 -102 105 -15 8
-28 21 -28 29 0 16 -76 76 -94 74 -6 -1 -20 -4 -31 -9z m74 -37 c17 -15 31
-33 31 -40 0 -7 17 -21 39 -32 45 -24 91 -74 91 -102 0 -12 7 -19 19 -19 25 0
61 -45 61 -76 0 -13 7 -29 16 -36 44 -37 54 -51 60 -88 4 -25 14 -45 25 -51
28 -14 49 -62 49 -109 0 -37 3 -42 33 -55 44 -18 69 -64 66 -120 -2 -34 2 -50
18 -67 28 -31 56 -88 43 -88 -5 0 -10 7 -10 15 0 7 -6 18 -12 22 -7 4 -13 14
-13 21 0 7 -12 20 -26 29 -25 15 -28 15 -58 -6 -17 -12 -31 -30 -31 -40 0 -15
-7 -16 -69 -7 -60 8 -68 12 -63 28 2 11 -1 38 -9 60 -9 29 -10 44 -2 57 14 23
-6 51 -38 51 -20 1 -22 2 -7 10 12 8 15 17 9 38 -4 15 -4 38 -1 52 6 21 8 23
15 8 4 -10 5 -25 1 -33 -3 -8 2 -19 12 -24 9 -6 13 -11 8 -11 -14 0 15 -30 29
-30 8 0 32 18 54 40 38 37 39 42 30 72 -22 69 -30 78 -70 78 -29 0 -42 -6 -59
-27 l-21 -27 -16 23 c-13 19 -22 22 -49 18 -37 -6 -46 10 -19 33 11 9 20 8 45
-10 29 -21 33 -21 68 -7 46 18 54 58 20 100 -26 31 -101 46 -115 23 -5 -7 -18
-18 -30 -25 -15 -8 -23 -21 -23 -38 l0 -27 -20 22 c-29 30 -26 37 25 56 55 22
58 41 10 83 l-35 32 30 32 c16 19 30 37 30 40 0 15 -79 69 -100 69 -13 0 -33
-11 -46 -25 -22 -24 -23 -24 -53 -7 -20 11 -31 25 -31 40 0 12 3 23 8 23 31 6
53 5 57 -1 6 -10 -24 -22 -36 -14 -15 9 -10 -13 6 -26 12 -10 21 -10 40 -2 32
15 31 25 -2 62 l-28 31 -75 -38 c-84 -42 -97 -64 -50 -83 29 -12 41 -30 20
-30 -5 0 -10 -5 -10 -12 0 -7 6 -5 18 4 9 9 34 18 54 22 31 6 39 3 48 -14 10
-19 10 -20 -9 -8 -23 14 -41 4 -23 -14 15 -15 15 -38 0 -38 -6 0 -8 3 -5 7 8
7 -11 33 -24 33 -5 0 -5 -7 -2 -17 4 -10 2 -14 -4 -10 -13 8 -43 -1 -43 -13 0
-5 19 -12 43 -16 23 -4 44 -9 47 -10 3 -1 15 -5 28 -9 22 -7 27 -16 15 -28 -3
-4 -13 -1 -22 7 -20 17 -98 29 -106 17 -3 -5 5 -11 17 -13 13 -2 22 -7 20 -13
-2 -5 5 -12 15 -16 14 -6 12 -8 -9 -8 -16 -1 -28 -5 -28 -10 0 -5 -3 -23 -6
-40 -6 -27 -4 -31 16 -31 18 0 20 -3 10 -14 -6 -8 -18 -12 -26 -9 -8 3 -14 0
-14 -6 0 -18 67 -13 86 7 17 16 18 16 10 -3 -5 -11 -11 -28 -13 -38 -4 -12
-11 -16 -22 -11 -9 4 -34 9 -56 11 -31 2 -35 1 -20 -6 23 -11 21 -13 -15 -15
-23 -2 -25 2 -22 25 2 15 -1 30 -7 33 -6 4 -11 2 -11 -3 0 -6 -7 -11 -15 -11
-18 0 -20 16 -2 23 6 3 1 6 -13 7 -25 2 -25 2 5 15 41 19 52 18 58 -5 3 -11
10 -20 16 -20 7 0 7 8 1 26 -7 16 -7 32 0 44 5 10 10 26 10 36 0 13 -3 14 -15
4 -12 -10 -15 -10 -15 4 0 9 -9 25 -20 36 -14 14 -16 20 -6 20 7 0 19 7 26 15
10 12 10 18 0 31 -11 12 -11 15 0 12 7 -2 15 3 17 10 3 7 -3 12 -15 12 -13 0
-19 6 -18 18 2 29 -48 28 -72 -2 -11 -15 -24 -26 -28 -26 -19 0 105 109 132
116 16 4 35 15 44 25 16 20 68 49 86 49 7 0 26 -12 43 -27z m-114 -83 c3 -5 0
-10 -9 -10 -8 0 -16 -4 -18 -10 -2 -5 -9 -6 -17 -1 -7 5 -10 14 -7 20 9 14 43
14 51 1z m-99 -70 c0 -13 -5 -19 -14 -15 -19 7 -43 -19 -31 -34 5 -6 6 -9 2
-6 -3 3 -15 -2 -25 -12 -13 -12 -18 -13 -18 -3 0 7 -3 10 -6 7 -4 -4 -1 -13 6
-22 10 -12 10 -18 0 -30 -7 -8 -16 -15 -21 -15 -5 0 -6 7 -3 15 4 8 1 15 -5
15 -6 0 -11 7 -11 15 0 8 -9 15 -20 15 -11 0 -20 -4 -20 -10 0 -5 -4 -10 -10
-10 -19 0 -10 15 21 33 17 9 41 17 53 17 14 0 32 12 46 30 27 35 56 40 56 10z
m228 -42 c-4 -6 -10 -5 -15 3 -14 22 -10 33 6 19 8 -7 12 -17 9 -22z m46 -18
c12 -8 11 -10 -7 -10 -13 0 -23 5 -23 10 0 13 11 13 30 0z m-55 -10 c-3 -5
-10 -10 -16 -10 -5 0 -9 5 -9 10 0 6 7 10 16 10 8 0 12 -4 9 -10z m-355 -29
c0 -5 -6 -12 -12 -15 -9 -3 -8 -9 6 -20 16 -13 22 -13 51 1 30 14 35 14 56 -1
27 -18 18 -22 -13 -5 -16 9 -19 8 -16 -2 3 -8 0 -20 -6 -27 -29 -35 -52 -52
-64 -47 -8 3 -12 0 -9 -7 2 -7 16 -13 30 -13 38 -1 42 -11 10 -24 -33 -15 -77
-67 -64 -75 5 -4 12 2 15 11 6 19 65 63 84 63 7 0 12 -4 12 -10 0 -5 -5 -10
-11 -10 -6 0 -9 -6 -6 -14 4 -10 0 -12 -15 -8 -30 7 -13 -16 20 -30 15 -6 22
-12 15 -15 -6 -2 -25 3 -42 11 -37 19 -42 20 -35 3 3 -8 -7 -22 -21 -33 -30
-22 -31 -29 -7 -38 9 -3 28 -13 41 -20 32 -19 44 -13 87 45 23 32 43 49 57 49
16 0 18 -3 9 -12 -10 -10 -7 -15 10 -24 l21 -12 -22 -7 c-15 -5 -20 -12 -16
-25 3 -10 1 -21 -5 -25 -5 -3 -10 -12 -10 -18 0 -9 3 -8 8 1 5 7 16 10 25 6
34 -13 4 -25 -45 -19 -36 5 -49 4 -44 -4 4 -6 16 -11 26 -11 10 0 22 -4 25
-10 4 -6 -7 -10 -24 -10 -24 0 -31 -4 -31 -20 0 -11 -4 -20 -10 -20 -5 0 -12
-11 -16 -25 -7 -27 -23 -31 -57 -14 -21 10 -21 10 1 -10 13 -11 25 -35 27 -54
4 -29 1 -36 -16 -40 -25 -7 -20 -33 5 -29 9 2 16 -4 16 -13 0 -8 -5 -15 -11
-15 -6 0 -8 -8 -5 -17 4 -10 -5 -4 -18 12 -14 17 -25 38 -26 48 0 14 -20 27
-20 12 0 -20 47 -95 63 -99 43 -11 77 5 102 49 33 55 33 92 0 107 -31 14 -23
28 17 28 17 0 39 7 49 16 15 14 19 13 39 -15 12 -17 26 -31 32 -31 17 0 98
-43 98 -51 0 -16 -18 -18 -24 -4 -3 8 -16 15 -29 15 -14 0 -36 9 -50 20 -27
21 -62 26 -72 10 -3 -5 3 -10 15 -10 24 0 24 0 -5 -47 -11 -18 -28 -33 -38
-33 -13 0 -18 -7 -16 -22 1 -13 -1 -35 -6 -50 -6 -25 -12 -28 -46 -28 -49 0
-57 -16 -30 -64 23 -40 21 -45 -6 -18 -10 11 -26 22 -35 25 -25 9 -23 -15 2
-31 22 -14 26 -38 8 -45 -7 -2 -10 -8 -6 -12 4 -4 15 -4 25 0 10 5 24 7 31 6
21 -3 83 40 92 64 5 14 5 38 -1 60 -6 20 -9 49 -7 65 2 24 6 27 18 20 12 -8
12 -12 2 -18 -14 -10 -7 -37 16 -64 8 -10 11 -18 6 -18 -5 -1 8 -9 29 -19 l38
-18 -26 -17 c-26 -17 -27 -17 -20 3 7 24 0 27 -20 7 -8 -7 -10 -17 -6 -22 5
-5 13 -23 19 -40 8 -26 7 -32 -9 -42 -17 -11 -21 -9 -29 13 -7 19 -17 25 -40
25 -18 0 -33 -6 -36 -15 -4 -8 -17 -15 -30 -15 -12 0 -29 -9 -37 -20 l-14 -21
-6 21 c-6 23 -32 27 -41 5 -3 -8 -16 -15 -28 -14 l-23 0 23 11 c37 18 25 25
-35 20 -72 -6 -86 -16 -77 -56 l6 -31 -26 24 c-14 13 -22 29 -19 34 4 6 8 36
9 67 4 64 -8 87 -46 92 -21 2 -24 -1 -22 -19 2 -14 -2 -23 -10 -23 -8 -1 -6
-6 6 -15 18 -13 18 -15 3 -15 -16 0 -16 -2 -1 -25 27 -41 5 -53 -27 -15 -16
19 -30 32 -33 29 -10 -11 16 -51 45 -68 30 -19 31 -19 10 -30 -17 -10 -21 -9
-21 4 0 8 -4 15 -10 15 -5 0 -10 7 -10 15 0 8 -9 19 -20 25 -17 9 -20 21 -20
69 0 43 4 60 15 65 19 7 19 32 1 39 -23 9 -24 57 -3 117 24 67 23 66 42 50 13
-10 11 -16 -15 -42 -40 -39 -40 -82 -1 -128 l28 -34 42 19 c48 21 66 46 53 73
-10 19 -9 78 3 105 4 10 3 17 -4 17 -7 0 -10 17 -7 48 3 38 0 52 -17 71 l-22
24 25 -13 c16 -8 25 -9 28 -2 5 16 42 2 43 -17 0 -13 1 -13 5 -1 14 43 50 99
68 104 11 3 17 8 14 12 -4 3 -19 -2 -35 -11 -21 -12 -34 -14 -53 -6 -24 9 -24
10 -2 10 15 1 22 7 22 21 0 12 5 17 13 14 8 -3 18 9 27 31 8 19 24 42 37 50
30 20 29 28 -7 42 -62 23 -97 -16 -67 -77 17 -34 12 -38 -15 -13 -24 22 -23
59 4 111 23 43 49 52 54 19 4 -26 9 -29 36 -25 l23 5 -25 11 c-22 9 -22 11 -5
12 18 1 17 3 -8 25 -41 36 -50 33 -91 -32 -27 -45 -34 -76 -22 -105 6 -13 3
-15 -12 -11 -11 2 -29 0 -41 -6 -27 -15 -27 0 -1 24 11 10 32 45 47 77 21 47
35 63 65 79 33 17 39 18 44 4 6 -16 31 -19 58 -9 13 5 14 10 6 20 -7 7 -18 10
-26 7 -17 -6 -18 11 -2 37 13 21 28 27 28 11z m134 -20 c4 -5 -3 -7 -14 -4
-23 6 -26 13 -6 13 8 0 17 -4 20 -9z m252 -8 c1 -10 5 -26 9 -36 7 -16 5 -16
-19 -6 -28 13 -33 28 -14 47 17 17 24 15 24 -5z m-76 -23 c0 -5 -7 -10 -15
-10 -8 0 -15 5 -15 10 0 6 7 10 15 10 8 0 15 -4 15 -10z m60 -44 c0 -8 -7 -16
-15 -20 -17 -6 -18 -4 -9 18 8 20 24 21 24 2z m237 -22 c-3 -3 -12 -4 -19 -1
-8 3 -5 6 6 6 11 1 17 -2 13 -5z m-94 -20 c9 -4 17 -11 17 -16 0 -6 -7 -7 -16
-4 -9 3 -22 6 -30 6 -8 0 -14 7 -14 16 0 9 5 13 13 10 6 -3 20 -9 30 -12z
m-136 -5 c-24 -14 -37 -51 -25 -66 7 -9 7 -13 0 -13 -5 0 -8 -16 -6 -37 l5
-38 -26 30 c-34 41 -32 77 6 109 17 14 38 26 47 26 15 -1 15 -2 -1 -11z m230
-5 c-3 -3 -12 -4 -19 -1 -8 3 -5 6 6 6 11 1 17 -2 13 -5z m-502 -74 c3 -6 -1
-7 -9 -4 -18 7 -21 14 -7 14 6 0 13 -4 16 -10z m540 -20 c-16 -3 -29 -9 -27
-13 1 -4 2 -15 2 -24 0 -16 -1 -16 -17 0 -16 15 -16 18 0 35 12 14 26 17 45
14 l27 -6 -30 -6z m-118 4 c-3 -3 -12 -4 -19 -1 -8 3 -5 6 6 6 11 1 17 -2 13
-5z m-713 -39 c-4 -10 0 -15 12 -16 16 -1 17 -2 2 -6 -10 -2 -15 -10 -11 -19
3 -8 -1 -14 -8 -15 -8 0 -5 -4 6 -9 17 -7 17 -9 3 -9 -19 -1 -26 -21 -7 -21 5
0 7 -4 4 -10 -9 -14 -21 -12 -39 6 -22 22 -20 70 4 94 24 24 42 26 34 5z m256
-5 c0 -5 -5 -10 -11 -10 -5 0 -7 5 -4 10 3 6 8 10 11 10 2 0 4 -4 4 -10z m203
3 c-7 -2 -19 -2 -25 0 -7 3 -2 5 12 5 14 0 19 -2 13 -5z m150 -8 c-3 -9 -8
-14 -10 -11 -3 3 -2 9 2 15 9 16 15 13 8 -4z m62 5 c3 -6 -1 -7 -9 -4 -18 7
-21 14 -7 14 6 0 13 -4 16 -10z m-115 -50 c15 0 20 -6 20 -25 0 -14 -4 -25
-10 -25 -5 0 -10 7 -10 15 0 9 -10 16 -27 17 -51 2 -65 -2 -101 -32 -33 -27
-52 -31 -52 -9 0 5 4 9 10 9 22 0 100 65 100 83 0 18 3 17 25 -7 13 -14 33
-26 45 -26z m-320 19 c0 -14 -16 -11 -29 5 -10 12 -8 13 8 9 12 -3 21 -9 21
-14z m423 4 c-7 -2 -19 -2 -25 0 -7 3 -2 5 12 5 14 0 19 -2 13 -5z m-223 -15
c0 -11 -41 -10 -59 1 -10 6 -2 9 22 8 21 0 37 -5 37 -9z m200 -7 c0 -5 -7 -12
-15 -15 -14 -5 -14 -8 0 -30 10 -15 12 -26 6 -30 -15 -10 -34 32 -27 60 6 22
36 35 36 15z m-707 -45 c3 -8 -5 -18 -19 -25 -14 -6 -25 -20 -26 -33 -1 -13
-3 -32 -4 -43 -1 -11 -3 -29 -4 -40 -1 -17 -3 -17 -11 5 -14 33 -5 92 17 124
21 28 39 33 47 12z m557 -16 c12 -8 11 -10 -7 -10 -13 0 -23 5 -23 10 0 13 11
13 30 0z m220 -20 c0 -5 -8 -10 -17 -10 -15 0 -16 2 -3 10 19 12 20 12 20 0z
m-265 -27 c-2 -16 3 -38 11 -50 20 -32 8 -29 -27 6 -31 31 -37 56 -16 64 27
12 35 6 32 -20z m-505 2 c-10 -13 -9 -15 11 -16 21 -1 20 -2 -6 -9 l-30 -7 25
-11 c14 -6 18 -11 10 -12 -12 0 -11 -4 4 -15 18 -14 18 -15 2 -15 -10 0 -14
-5 -10 -11 4 -7 -2 -9 -17 -7 -19 2 -25 10 -27 37 -5 52 5 81 29 81 18 0 19
-2 9 -15z m685 -23 c-18 -44 -16 -55 29 -122 36 -54 53 -70 71 -70 13 0 27 5
30 10 10 17 25 11 25 -9 0 -11 16 -32 35 -47 22 -16 35 -35 35 -49 0 -29 19
-45 64 -52 31 -5 37 -2 47 21 9 20 9 32 1 51 -7 14 -12 36 -12 48 1 16 7 10
26 -25 26 -51 38 -57 64 -33 15 14 19 12 44 -23 32 -47 35 -100 5 -133 l-20
-24 12 25 c7 13 14 41 16 62 2 31 -1 40 -22 54 -33 21 -71 11 -93 -24 -15 -26
-20 -27 -52 -19 -19 5 -45 9 -56 9 -15 0 -24 8 -28 27 -3 14 -26 48 -51 75
l-46 49 -31 -23 -31 -23 6 22 c4 17 -5 31 -36 61 -23 22 -52 43 -65 46 -17 5
-21 11 -16 23 7 14 9 34 13 119 1 10 6 10 22 2 14 -8 18 -17 14 -28z m135 28
c0 -5 -7 -10 -16 -10 -8 0 -12 5 -9 10 3 6 10 10 16 10 5 0 9 -4 9 -10z m-64
-25 c-36 -19 -57 -19 -32 0 11 8 29 15 40 15 18 0 16 -3 -8 -15z m-42 -50 c-4
-8 -10 -13 -15 -10 -4 3 -6 12 -3 20 4 8 10 13 15 10 4 -3 6 -12 3 -20z m-344
-50 c0 -8 -2 -15 -4 -15 -2 0 -6 7 -10 15 -3 8 -1 15 4 15 6 0 10 -7 10 -15z
m-335 -24 c-6 -19 -7 -19 -26 -3 -20 17 -20 17 3 23 29 7 31 5 23 -20z m-48
-26 c0 -8 -5 -15 -10 -15 -6 0 -7 -3 -4 -7 4 -3 2 -12 -3 -18 -8 -9 -3 -14 19
-18 41 -9 47 -33 11 -52 -38 -20 -36 -20 -54 17 -20 40 -20 67 1 90 20 22 40
24 40 3z m793 -5 c0 -5 -4 -10 -10 -10 -5 0 -10 5 -10 10 0 6 5 10 10 10 6 0
10 -4 10 -10z m-757 -37 c-7 -2 -19 -2 -25 0 -7 3 -2 5 12 5 14 0 19 -2 13 -5z
m467 -3 c0 -5 -4 -10 -10 -10 -5 0 -10 5 -10 10 0 6 5 10 10 10 6 0 10 -4 10
-10z m109 -38 c-13 -16 -37 -33 -53 -36 -45 -9 -43 1 3 21 27 12 44 26 48 41
4 16 9 20 16 13 6 -6 2 -19 -14 -39z m553 -14 c-7 -7 -12 -8 -12 -2 0 6 3 14
7 17 3 4 9 5 12 2 2 -3 -1 -11 -7 -17z m-397 -25 c-21 -49 -17 -72 19 -117 41
-49 62 -61 81 -46 10 8 13 -2 11 -48 l-1 -59 -30 12 c-16 7 -36 10 -42 8 -7
-3 -13 0 -13 6 0 6 6 11 14 11 33 0 30 64 -3 73 -10 2 -25 17 -32 33 -8 16
-26 35 -41 43 -24 14 -28 14 -48 -4 l-22 -20 3 25 c3 17 10 25 24 25 10 0 24
10 30 21 15 31 36 54 47 54 6 0 7 -8 3 -17z m-185 -23 c0 -5 -7 -10 -15 -10
-8 0 -15 5 -15 10 0 6 7 10 15 10 8 0 15 -4 15 -10z m-530 -69 c0 -17 -15 -19
-28 -5 -11 12 -9 14 8 14 11 0 20 -4 20 -9z m606 -105 c-1 -41 4 -59 19 -76
11 -12 15 -21 10 -19 -25 5 -74 -24 -85 -51 l-12 -29 -18 22 c-18 22 -18 22
23 42 67 33 66 31 53 69 -19 54 -33 67 -64 55 -15 -6 -23 -7 -19 -3 7 8 77 42
88 43 4 1 6 -23 5 -53z m-246 34 c0 -5 -5 -10 -11 -10 -5 0 -7 5 -4 10 3 6 8
10 11 10 2 0 4 -4 4 -10z m-245 -30 c16 -7 17 -9 3 -9 -9 -1 -18 -6 -20 -13
-3 -7 -12 -9 -22 -5 -15 6 -16 10 -6 22 14 17 17 17 45 5z m927 -33 c27 -32
17 -83 -24 -119 -41 -36 -86 -60 -101 -55 -6 2 6 12 28 23 53 26 99 85 91 117
-6 26 -57 54 -75 42 -6 -3 -11 -2 -11 4 0 28 64 20 92 -12z m-757 13 c-3 -5
-10 -10 -16 -10 -5 0 -9 5 -9 10 0 6 7 10 16 10 8 0 12 -4 9 -10z m-298 -35
c-9 -8 -17 -20 -20 -27 -3 -10 -7 -10 -17 -1 -19 18 -4 43 25 43 23 0 25 -2
12 -15z m421 -55 c10 -17 10 -21 -3 -26 -8 -4 -21 -2 -28 4 -6 5 -21 12 -32
14 -18 5 -18 6 5 16 36 16 44 14 58 -8z m301 -33 l-1 -42 -9 34 c-7 21 -18 35
-32 39 -22 6 -21 6 3 12 35 10 40 4 39 -43z m-758 21 c11 -21 11 -22 -4 -9
-10 7 -17 17 -17 22 0 15 9 10 21 -13z m300 6 c8 -10 21 -13 38 -9 26 5 26 5
6 -12 -11 -10 -29 -27 -39 -38 -15 -16 -18 -16 -13 -3 7 19 -26 53 -42 43 -6
-3 -19 -2 -28 4 -15 8 -16 10 -3 15 8 2 22 7 30 9 27 9 37 7 51 -9z m-152 -31
c-1 -10 -5 -29 -9 -43 -8 -25 -8 -25 -9 -2 -1 21 -5 23 -31 17 -16 -3 -37 -2
-47 4 -16 9 -15 10 7 11 14 0 36 7 50 14 34 19 40 19 39 -1z m524 10 c-7 -2
-19 -2 -25 0 -7 3 -2 5 12 5 14 0 19 -2 13 -5z m217 -74 c-12 -16 -26 -29 -31
-29 -14 0 -11 9 14 40 29 36 43 27 17 -11z m-663 25 c-3 -3 -12 -4 -19 -1 -8
3 -5 6 6 6 11 1 17 -2 13 -5z m226 -75 c28 -16 29 -19 10 -19 -12 0 -25 5 -28
10 -3 6 -14 10 -24 10 -16 0 -17 4 -7 36 10 34 11 34 14 9 2 -17 15 -33 35
-46z m358 25 l34 -12 -32 -1 c-17 -1 -35 4 -38 9 -9 15 -18 12 -47 -15 -15
-14 -35 -25 -45 -25 -12 0 -5 12 27 45 39 39 45 42 56 28 6 -10 27 -23 45 -29z
m-499 -21 c7 -9 7 -13 -1 -13 -15 0 -33 48 -24 63 5 8 9 3 11 -13 2 -14 9 -31
14 -37z m297 7 c12 0 18 -5 16 -12 -3 -8 -24 -13 -50 -13 -42 0 -44 0 -31 20
7 11 16 26 21 34 7 12 10 10 16 -7 5 -13 17 -22 28 -22z m-16 -157 c4 10 7 34
7 53 0 60 19 36 22 -28 3 -58 5 -63 26 -62 22 1 31 -21 12 -28 -12 -4 -1 -98
11 -98 5 0 9 8 9 17 0 29 7 10 14 -37 5 -41 5 -43 -9 -26 -12 15 -17 17 -29 7
-13 -11 -15 -4 -14 49 0 34 -4 66 -11 73 -8 8 -11 -11 -12 -79 0 -98 -17 -167
-18 -79 -1 36 -4 46 -11 35 -5 -8 -10 -27 -10 -42 0 -15 -4 -30 -10 -33 -6 -4
-10 19 -11 62 l-1 68 -12 -65 c-6 -36 -15 -64 -21 -63 -5 1 -12 24 -15 50 -6
44 -7 46 -14 20 -5 -16 -5 -55 -2 -88 4 -34 3 -59 -2 -59 -23 0 -29 110 -12
201 7 33 7 56 1 62 -16 16 -25 -39 -25 -155 -1 -60 -4 -108 -7 -108 -21 0 -24
88 -9 205 5 38 6 72 2 75 -12 9 -10 81 2 77 6 -2 10 -19 9 -38 l-2 -34 11 35
c7 19 15 37 18 40 4 3 12 23 18 45 l10 40 2 -55 2 -55 13 35 14 35 -3 -48 c-3
-48 7 -70 18 -41 3 9 6 30 6 49 0 18 3 48 8 66 6 30 8 27 12 -31 3 -42 8 -59
13 -47z m-126 65 c-3 -7 -5 -2 -5 12 0 14 2 19 5 13 2 -7 2 -19 0 -25z m3 -38
c0 -5 -4 -10 -10 -10 -5 0 -10 5 -10 10 0 6 5 10 10 10 6 0 10 -4 10 -10z
m197 -32 c-3 -8 -6 -5 -6 6 -1 11 2 17 5 13 3 -3 4 -12 1 -19z m-246 -158 c-6
-28 -11 -77 -12 -108 -1 -55 -1 -56 -11 -22 -12 41 -5 138 12 170 18 34 23 17
11 -40z m329 7 c0 -5 -4 -5 -10 -2 -5 3 -10 14 -10 23 0 15 2 15 10 2 5 -8 10
-19 10 -23z m-375 -74 c-10 -42 -18 -18 -9 29 6 32 9 37 12 19 2 -12 1 -34 -3
-48z m349 41 c3 -8 2 -12 -4 -9 -6 3 -10 10 -10 16 0 14 7 11 14 -7z m-7 -96
c-3 -8 -6 -5 -6 6 -1 11 2 17 5 13 3 -3 4 -12 1 -19z m-140 -74 c-3 -3 -12 -4
-19 -1 -8 3 -5 6 6 6 11 1 17 -2 13 -5z m-117 -24 c0 -5 -8 -10 -17 -10 -15 0
-16 2 -3 10 19 12 20 12 20 0z m540 -20 c0 -5 -7 -10 -16 -10 -8 0 -12 5 -9
10 3 6 10 10 16 10 5 0 9 -4 9 -10z m-567 -18 c-13 -2 -23 -8 -23 -13 0 -6 -5
-7 -11 -3 -8 4 -3 11 12 20 13 7 28 9 34 6 5 -4 0 -8 -12 -10z m807 -33 c0
-11 -12 -11 -35 -3 -12 5 -14 9 -4 14 14 9 39 2 39 -11z m-395 -9 c-3 -5 -10
-10 -16 -10 -5 0 -9 5 -9 10 0 6 7 10 16 10 8 0 12 -4 9 -10z"/>
<path d="M984 2065 c-8 -19 54 -93 78 -94 21 -1 32 32 19 57 -12 23 -55 52
-76 52 -9 0 -18 -7 -21 -15z"/>
<path d="M1184 1624 c-23 -30 -29 -48 -29 -90 0 -76 49 -122 85 -79 7 8 18 15
24 15 6 0 26 13 45 28 31 26 33 31 26 70 -7 44 -40 73 -96 87 -23 6 -31 1 -55
-31z"/>
<path d="M479 1679 c-8 -5 -9 -9 -4 -9 6 0 3 -5 -5 -10 -12 -7 -10 -11 10 -19
l25 -10 -28 0 c-16 -1 -26 -5 -22 -11 3 -6 -1 -7 -9 -4 -9 3 -16 1 -16 -4 0
-11 9 -14 62 -26 23 -5 28 -2 38 29 7 20 10 42 7 49 -7 17 -41 26 -58 15z"/>
<path d="M590 1680 c-20 -12 -9 -21 18 -13 12 3 19 9 16 14 -7 11 -15 11 -34
-1z"/>
<path d="M537 1576 c-4 -10 -1 -13 9 -9 7 3 14 9 14 14 0 14 -17 10 -23 -5z"/>
<path d="M428 1569 c-2 -7 -17 -13 -32 -15 -36 -4 -60 -24 -29 -24 11 0 26 -7
33 -15 10 -12 10 -15 -1 -15 -18 0 0 -16 26 -24 11 -3 3 -3 -18 -1 -46 5 -47
-16 -1 -26 l29 -7 -32 -1 c-19 0 -33 -7 -34 -13 -7 -83 -9 -78 25 -78 46 0 64
18 69 70 3 25 8 58 12 74 7 25 6 28 -12 22 -12 -4 -25 -1 -31 6 -8 10 -3 14
21 15 39 3 58 20 37 33 -21 13 -58 12 -62 -1z"/>
<path d="M505 1501 c-3 -5 -1 -12 4 -15 5 -3 11 1 15 9 6 16 -9 21 -19 6z"/>
<path d="M418 1336 c-51 -12 -73 -26 -42 -26 14 0 16 -2 6 -9 -12 -7 -12 -12
-1 -30 8 -11 18 -21 24 -21 6 0 10 -16 9 -36 -2 -29 2 -37 18 -42 14 -3 16 -7
7 -13 -18 -11 -47 7 -51 33 -3 25 -28 37 -28 14 0 -8 5 -27 12 -41 9 -19 19
-25 43 -25 57 0 73 24 77 120 3 96 4 95 -74 76z m29 -112 c-3 -3 -12 -4 -19
-1 -8 3 -5 6 6 6 11 1 17 -2 13 -5z"/>
<path d="M573 1323 c-31 -3 -44 -9 -48 -24 -4 -11 -4 -23 -1 -26 3 -4 6 1 6
10 0 16 46 30 80 24 8 -1 16 2 18 8 4 12 -1 12 -55 8z"/>
<path d="M320 1282 c0 -19 12 -42 22 -42 14 0 5 43 -9 48 -7 2 -13 -1 -13 -6z"/>
<path d="M190 1235 c-16 -19 -10 -19 26 0 25 13 26 15 8 15 -12 0 -27 -7 -34
-15z"/>
<path d="M813 614 c-3 -8 -1 -20 6 -27 8 -8 11 -4 11 16 0 30 -7 35 -17 11z"/>
<path d="M850 578 c0 -16 5 -28 10 -28 13 0 13 20 0 40 -8 12 -10 9 -10 -12z"/>
<path d="M355 320 c-3 -5 -17 -10 -31 -10 -34 0 -22 -17 15 -22 22 -3 31 0 34
14 6 20 -8 34 -18 18z"/>
<path d="M247 306 c-16 -13 -16 -14 5 -19 20 -6 37 6 38 26 0 11 -23 8 -43 -7z"/>
<path d="M111 267 c-6 -8 -8 -16 -5 -19 6 -7 54 14 54 25 0 12 -37 8 -49 -6z"/>
<path d="M295 270 c-4 -6 -4 -10 -1 -10 2 0 11 -3 20 -6 9 -3 16 -2 16 4 0 14
-28 23 -35 12z"/>
<path d="M60 260 c-8 -5 -12 -12 -9 -15 8 -8 39 5 39 16 0 11 -11 11 -30 -1z"/>
<path d="M360 255 c-8 -9 -8 -15 -2 -15 12 0 26 19 19 26 -2 2 -10 -2 -17 -11z"/>
<path d="M270 251 c0 -11 31 -24 39 -16 3 3 -1 10 -9 15 -19 12 -30 12 -30 1z"/>
<path d="M190 240 c-12 -8 -11 -10 6 -10 11 0 25 -5 32 -12 9 -9 12 -8 12 4 0
9 -7 19 -16 22 -19 7 -16 8 -34 -4z"/>
<path d="M85 220 c-3 -5 1 -10 9 -10 9 0 16 5 16 10 0 6 -4 10 -9 10 -6 0 -13
-4 -16 -10z"/>
<path d="M355 221 c-3 -5 -2 -12 2 -14 12 -8 63 4 63 14 0 12 -57 12 -65 0z"/>
<path d="M980 145 c-7 -9 -10 -18 -7 -22 8 -7 37 15 37 28 0 14 -16 11 -30 -6z"/>
<path d="M1717 143 c-16 -15 -5 -28 23 -28 33 0 36 5 18 23 -13 13 -31 16 -41
5z"/>
<path d="M1660 130 c0 -5 7 -10 15 -10 8 0 15 5 15 10 0 6 -7 10 -15 10 -8 0
-15 -4 -15 -10z"/>
</g>
</svg>
