<?xml version="1.0" standalone="no"?>
<!DOCTYPE svg PUBLIC "-//W3C//DTD SVG 20010904//EN"
 "http://www.w3.org/TR/2001/REC-SVG-20010904/DTD/svg10.dtd">
<svg version="1.0" xmlns="http://www.w3.org/2000/svg"
 width="211.000000pt" height="228.000000pt" viewBox="0 0 211.000000 228.000000"
 preserveAspectRatio="xMidYMid meet">

<g transform="translate(0.000000,228.000000) scale(0.100000,-0.100000)"
fill="#e6d889" stroke="none">
<path d="M730 2179 l-25 -6 26 -11 c28 -11 65 -60 61 -80 -2 -10 3 -12 17 -7
12 4 21 2 21 -4 0 -19 18 -12 25 10 8 26 -13 43 -32 27 -18 -15 -29 -2 -14 16
31 37 -18 71 -79 55z"/>
<path d="M820 2176 c0 -8 7 -16 15 -20 8 -3 15 -13 15 -22 0 -13 3 -14 15 -4
8 7 15 18 15 24 0 6 -4 5 -9 -3 -6 -9 -11 -10 -15 -2 -4 6 -5 15 -2 20 3 5 -1
12 -10 15 -22 8 -24 8 -24 -8z"/>
<path d="M952 2179 c2 -7 10 -15 17 -17 8 -3 12 1 9 9 -2 7 -10 15 -17 17 -8
3 -12 -1 -9 -9z"/>
<path d="M990 2181 c0 -12 10 -14 51 -11 21 1 28 -5 37 -32 l11 -33 -2 40 -2
40 -47 3 c-29 2 -48 -1 -48 -7z"/>
<path d="M646 2171 c-4 -6 -23 -10 -44 -7 -20 2 -58 -1 -84 -7 -39 -10 -48
-16 -48 -33 0 -20 -27 -41 -38 -29 -3 2 3 7 12 11 28 11 17 25 -16 20 -66 -10
-93 -19 -105 -33 -6 -8 -16 -12 -22 -8 -6 3 -21 -3 -33 -14 -12 -12 -28 -21
-35 -21 -7 0 -13 -4 -13 -10 0 -5 -6 -10 -14 -10 -7 0 -25 -12 -40 -26 -14
-15 -26 -24 -26 -20 0 4 -11 -6 -25 -22 -14 -17 -25 -34 -25 -39 0 -5 -8 -18
-19 -29 -22 -24 -41 -105 -37 -154 3 -34 35 -109 79 -183 26 -45 177 -203 229
-241 20 -14 46 -26 57 -26 12 0 21 -4 21 -10 0 -16 72 -59 136 -81 32 -11 77
-29 99 -39 22 -10 65 -23 95 -30 76 -18 102 -33 168 -98 70 -69 124 -176 148
-289 16 -79 26 -474 12 -488 -3 -4 -40 -8 -82 -9 -42 -1 -78 -5 -81 -8 -6 -6
-185 -2 -191 5 -3 3 -42 3 -87 1 -66 -3 -85 -7 -97 -23 -8 -11 -24 -22 -35
-25 -11 -3 9 -3 43 0 44 4 62 2 57 -5 -4 -8 24 -11 88 -11 124 0 187 -9 187
-27 0 -10 21 -13 98 -12 53 1 138 0 187 -1 l90 -3 -140 -11 c-77 -7 -145 -8
-151 -4 -7 5 -14 2 -18 -8 -10 -26 -8 -27 44 -21 40 5 50 3 50 -8 0 -10 10
-15 30 -15 17 0 30 4 30 10 0 11 60 2 75 -11 12 -12 85 -12 85 0 0 15 -43 21
-58 9 -11 -10 -16 -8 -24 5 -5 10 -13 15 -18 12 -5 -3 -11 -1 -15 5 -9 14 123
9 162 -7 41 -16 43 -16 43 2 0 12 4 13 19 5 27 -14 34 -13 27 5 -3 9 0 15 9
15 8 0 15 -7 15 -15 0 -8 6 -15 14 -15 8 0 21 -3 30 -6 9 -3 16 -1 16 4 0 6
-9 14 -20 17 -11 3 -20 11 -20 17 0 13 72 1 81 -14 4 -7 9 -6 13 1 5 8 13 8
27 0 15 -7 24 -7 34 1 8 6 23 9 34 5 10 -3 22 -1 26 5 5 8 11 8 20 0 8 -7 18
-9 24 -6 5 3 11 2 13 -3 1 -5 18 -12 36 -16 28 -6 32 -4 32 14 0 28 -18 36
-40 16 -12 -11 -20 -13 -25 -5 -4 6 3 20 15 30 l22 19 -23 5 c-13 3 -47 10
-75 16 -28 6 -78 11 -110 10 -33 0 -95 4 -138 9 -44 5 -83 8 -88 5 -4 -3 -25
0 -47 6 -35 9 -41 15 -47 48 -13 63 -7 200 16 377 37 289 42 305 127 392 96
97 129 122 195 144 35 12 68 25 73 30 6 4 36 21 67 37 31 17 76 44 100 61 23
18 62 45 85 61 47 33 173 176 173 197 0 20 -14 16 -41 -13 -55 -60 -237 -163
-250 -143 -3 6 -9 1 -12 -10 -6 -23 -47 -30 -47 -8 0 6 -9 1 -19 -12 -13 -18
-25 -23 -44 -19 -14 3 -25 1 -24 -5 1 -5 -4 -12 -10 -14 -7 -3 -13 0 -13 6 0
6 -7 11 -15 11 -8 0 -14 -5 -12 -11 1 -6 -4 -14 -10 -16 -7 -3 -13 1 -13 9 0
10 -2 10 -8 0 -5 -7 -24 -14 -43 -15 -19 -1 -40 -7 -47 -14 -7 -7 -27 -10 -44
-8 -18 2 -37 0 -43 -5 -15 -12 -311 -17 -480 -8 -185 10 -306 37 -351 79 -26
24 -34 50 -10 30 17 -14 78 -11 83 5 2 6 -9 9 -27 8 -16 -1 -30 2 -30 6 0 4
-11 11 -24 14 -14 3 -27 14 -31 25 -6 21 -61 27 -83 9 -7 -6 -12 -7 -11 -2 4
23 -2 36 -16 30 -8 -3 -15 -1 -15 4 0 6 6 10 14 10 8 0 17 7 20 16 9 23 7 31
-4 14 -14 -22 -30 0 -19 28 4 12 13 22 18 22 6 0 7 -7 4 -17 -4 -10 -2 -14 5
-9 6 3 14 0 19 -8 4 -7 17 -16 28 -18 19 -5 18 -6 -5 -16 l-25 -12 30 1 c49 2
55 0 55 -16 0 -15 12 -15 73 2 9 2 17 -1 17 -7 0 -6 -4 -8 -10 -5 -5 3 -10 1
-10 -4 0 -6 6 -11 13 -11 22 0 38 16 31 33 -9 24 3 21 17 -4 9 -17 8 -23 -2
-30 -7 -4 -11 -11 -8 -14 4 -3 17 4 30 15 22 18 23 21 7 30 -10 6 -18 17 -18
25 0 7 -6 15 -12 18 -10 3 -10 7 1 20 19 24 32 21 26 -5 -3 -13 -2 -28 2 -35
9 -13 63 -6 63 8 0 5 5 9 11 9 5 0 7 -4 4 -10 -13 -22 8 -31 22 -10 11 16 18
19 23 10 10 -17 30 -3 30 21 0 10 5 19 11 19 5 0 7 5 4 10 -4 7 -14 3 -25 -10
-12 -14 -21 -17 -25 -10 -4 6 -15 8 -25 5 -12 -4 -23 1 -30 12 -10 16 -10 16
-5 -3 4 -16 -2 -26 -22 -39 -25 -16 -27 -16 -12 0 13 13 14 21 5 41 -6 13 -15
24 -20 24 -5 0 -3 6 3 14 9 11 5 16 -19 26 -18 7 -29 18 -26 25 2 7 2 16 -1
19 -7 7 -33 -19 -33 -33 0 -6 -7 -11 -15 -11 -8 0 -15 5 -15 10 0 6 0 13 0 18
0 4 4 7 9 7 5 0 13 3 17 8 4 4 -4 7 -17 7 -22 1 -23 2 -6 14 9 7 28 11 42 8
15 -2 25 0 25 7 0 6 -7 11 -15 11 -8 0 -15 5 -15 10 0 13 -27 13 -32 0 -2 -6
-9 -1 -16 10 -11 18 -10 20 13 20 14 0 25 5 25 11 0 6 7 8 16 5 12 -5 15 -2
10 10 -5 12 -2 15 10 10 12 -5 14 -1 9 17 -5 20 -5 20 5 4 7 -10 9 -24 7 -32
-3 -7 3 -21 14 -31 11 -10 19 -12 19 -6 0 7 -4 12 -10 12 -6 0 -6 9 0 24 6 17
5 26 -2 28 -6 2 -12 14 -13 26 -1 11 2 19 7 16 4 -3 14 1 22 8 17 16 0 62 -22
53 -7 -3 -27 -5 -43 -5 -18 0 -28 -4 -24 -10 11 -18 -6 -10 -30 15 -26 25 -32
45 -15 45 6 0 10 -6 10 -14 0 -12 29 -32 35 -24 1 2 8 12 14 23 9 14 11 15 7
3 -3 -10 -1 -20 4 -23 11 -7 24 31 15 45 -4 6 -12 10 -18 9 -26 -3 -37 2 -37
15 0 8 6 17 13 19 6 3 2 6 -10 6 -25 1 -50 36 -33 46 6 3 20 3 32 0 17 -6 20
-4 16 13 -4 14 0 22 13 25 12 3 19 0 19 -10 0 -8 5 -11 10 -8 6 3 10 -3 10
-14 0 -13 -5 -19 -14 -15 -8 3 -17 1 -21 -5 -4 -7 4 -11 21 -11 15 0 36 -7 46
-17 10 -9 21 -13 26 -9 4 4 -1 13 -11 20 -9 7 -17 17 -17 21 0 5 -8 17 -17 27
-19 21 -26 48 -13 48 5 0 14 -8 19 -17 9 -16 10 -15 11 6 0 20 2 21 15 11 10
-8 15 -9 15 -1 0 6 -12 14 -27 17 -16 4 -31 11 -34 17 -4 5 -9 5 -13 -2z m-83
-65 c-4 -18 -10 -22 -25 -18 -11 2 -16 8 -11 11 5 3 12 14 16 24 10 26 25 12
20 -17z m-147 -27 c-1 -12 5 -24 12 -26 8 -3 10 1 6 11 -4 12 -2 15 9 10 18
-7 31 -34 16 -34 -5 0 -7 -11 -3 -25 5 -20 3 -24 -10 -19 -9 3 -16 12 -16 20
0 8 -6 11 -15 7 -9 -3 -15 -2 -14 3 4 24 -3 33 -28 36 -16 2 -27 8 -25 13 2 6
14 9 27 7 14 -2 25 1 25 7 0 6 4 11 8 11 5 0 8 -10 8 -21z m116 1 c6 0 8 -7 5
-15 -4 -8 -2 -17 3 -20 6 -4 10 -13 10 -21 0 -12 -4 -13 -21 -4 -11 7 -23 9
-26 7 -2 -3 5 -10 16 -17 12 -6 21 -15 21 -20 0 -12 -50 -14 -51 -2 -4 40 -4
89 -1 95 2 5 11 6 19 3 8 -3 19 -6 25 -6z m-142 -105 c14 -19 14 -19 -2 -6
-10 7 -18 18 -18 24 0 6 1 8 3 6 1 -2 9 -13 17 -24z m91 -8 c8 -7 18 -20 22
-30 6 -16 2 -17 -32 -13 -29 3 -41 1 -45 -10 -8 -20 -28 -13 -32 10 -1 11 4
16 14 15 9 -1 31 -1 47 0 27 1 28 3 13 15 -19 14 -24 26 -10 26 4 0 14 -6 23
-13z m-216 -37 c3 -5 -1 -10 -9 -10 -9 0 -16 5 -16 10 0 6 4 10 9 10 6 0 13
-4 16 -10z m83 -6 c12 -4 22 -13 22 -20 0 -8 7 -14 15 -14 8 0 15 -5 15 -11 0
-5 -4 -8 -9 -5 -5 3 -12 -5 -15 -19 -5 -21 -12 -25 -46 -25 -21 0 -42 5 -45
10 -3 6 1 10 10 10 12 0 14 6 9 28 -6 26 -6 26 9 7 15 -18 18 -18 16 2 0 4 8
10 18 14 13 6 9 8 -14 8 -18 1 -33 6 -33 11 0 11 15 12 48 4z m-90 -24 c10 0
6 -6 -12 -15 -16 -9 -34 -14 -40 -11 -6 2 -3 5 8 5 16 1 17 3 5 18 -12 15 -12
16 4 10 10 -4 26 -7 35 -7z m304 -12 c-2 -12 5 -15 30 -14 25 2 32 6 30 19 -3
18 13 23 23 7 9 -15 -37 -55 -62 -54 -13 1 -23 -3 -23 -7 0 -5 7 -9 15 -9 8 0
15 -5 15 -11 0 -6 -9 -8 -22 -3 -20 6 -21 5 -9 -10 12 -14 11 -16 -3 -16 -9 0
-16 -4 -16 -10 0 -5 -8 -10 -19 -10 -11 0 -21 -9 -24 -21 -4 -16 -3 -19 5 -11
12 12 38 5 38 -10 0 -5 -4 -7 -8 -4 -5 3 -16 -8 -26 -25 -9 -16 -13 -29 -7
-29 5 0 14 7 18 15 7 11 12 5 20 -26 9 -34 8 -39 -4 -34 -11 4 -13 1 -9 -11 3
-8 6 -21 6 -27 0 -7 4 -6 10 3 8 13 11 12 24 -5 9 -11 16 -14 16 -7 0 6 12 12
28 12 23 -1 25 -2 11 -13 -9 -7 -14 -19 -11 -27 4 -12 2 -13 -9 -2 -20 19 -31
14 -19 -9 14 -25 7 -34 -17 -24 -10 4 -29 9 -42 11 -34 4 -54 26 -21 24 14 -1
34 -2 45 -1 16 1 17 3 5 10 -8 6 -18 7 -22 5 -4 -3 -14 -2 -20 3 -7 4 -20 8
-28 8 -9 0 -15 10 -15 25 -1 19 -5 24 -20 22 -15 -2 -17 -1 -7 6 14 9 13 22
-4 115 -6 34 -9 37 -41 37 -19 0 -41 -6 -49 -14 -18 -18 -18 -26 0 -26 15 0
28 -24 19 -34 -4 -3 -22 -6 -40 -6 -20 0 -32 -4 -28 -10 4 -6 -6 -10 -22 -10
-20 0 -24 3 -14 9 8 5 10 14 6 21 -5 9 -4 11 4 6 7 -4 19 -5 29 -1 13 5 14 8
3 14 -9 6 -11 18 -6 40 7 33 25 43 25 14 1 -14 4 -13 14 6 7 13 16 19 19 14 3
-5 22 -10 41 -11 30 -1 37 2 42 24 4 14 11 23 17 21 6 -2 24 11 40 27 19 21
27 25 23 13 -4 -12 -2 -17 6 -14 7 2 12 14 10 26 -3 18 1 22 15 19 10 -2 17
-11 15 -20z m-97 -8 c3 -5 2 -10 -4 -10 -5 0 -13 5 -16 10 -3 6 -2 10 4 10 5
0 13 -4 16 -10z m-200 -39 c3 -5 1 -12 -5 -16 -5 -3 -10 -2 -10 4 0 5 -8 12
-17 14 -14 4 -13 5 4 6 12 0 24 -3 28 -8z m52 -27 c-3 -3 -12 -4 -19 -1 -8 3
-5 6 6 6 11 1 17 -2 13 -5z m-92 -44 c-3 -5 -12 -7 -20 -3 -21 7 -19 13 6 13
11 0 18 -4 14 -10z m-37 -27 c-10 -2 -26 -2 -35 0 -10 3 -2 5 17 5 19 0 27 -2
18 -5z m77 -3 c3 -6 -5 -10 -19 -10 -14 0 -28 5 -31 10 -3 6 5 10 19 10 14 0
28 -4 31 -10z m145 0 c0 -5 -7 -10 -16 -10 -8 0 -12 5 -9 10 3 6 10 10 16 10
5 0 9 -4 9 -10z m-170 -24 c0 -2 -7 -6 -15 -10 -8 -3 -15 -1 -15 4 0 6 7 10
15 10 8 0 15 -2 15 -4z m175 -6 c3 -5 1 -10 -4 -10 -6 0 -11 5 -11 10 0 6 2
10 4 10 3 0 8 -4 11 -10z m-73 -52 c-18 -18 -15 -28 8 -28 14 0 18 -5 13 -17
-4 -11 -8 -13 -11 -5 -3 10 -7 10 -18 1 -17 -14 -9 -30 11 -22 8 3 15 0 15 -6
0 -6 -17 -11 -37 -11 -23 0 -33 3 -25 8 14 10 13 64 -3 74 -5 4 0 8 13 8 14 0
22 6 22 17 0 13 3 14 12 5 9 -9 9 -15 0 -24z m78 -10 c0 -18 -2 -20 -9 -8 -6
8 -7 18 -5 22 9 14 14 9 14 -14z m217 -24 c-3 -3 -12 -4 -19 -1 -8 3 -5 6 6 6
11 1 17 -2 13 -5z m-37 -8 c0 -3 -4 -8 -10 -11 -5 -3 -10 -1 -10 4 0 6 5 11
10 11 6 0 10 -2 10 -4z m-150 -22 c0 -8 -4 -12 -10 -9 -5 3 -10 10 -10 16 0 5
5 9 10 9 6 0 10 -7 10 -16z m-185 -4 c-3 -5 -12 -10 -18 -10 -7 0 -6 4 3 10
19 12 23 12 15 0z m95 -49 c0 -21 -17 -37 -28 -26 -3 3 0 10 8 15 10 7 11 10
3 10 -7 0 -13 5 -13 10 0 6 7 10 15 10 8 0 15 -9 15 -19z m108 -121 c-7 -11
-16 -20 -20 -20 -13 0 -9 28 5 33 23 10 27 7 15 -13z m26 -26 c9 -24 7 -28 -9
-14 -17 14 -20 30 -6 30 5 0 12 -7 15 -16z m-127 -16 c-3 -8 -6 -5 -6 6 -1 11
2 17 5 13 3 -3 4 -12 1 -19z m93 -19 c0 -4 -7 -12 -15 -19 -8 -7 -15 -10 -15
-7 0 3 -2 12 -5 19 -4 9 2 14 15 14 11 0 20 -3 20 -7z m79 -74 c0 -5 -4 -3 -9
5 -5 8 -9 22 -9 30 0 16 17 -16 18 -35z m39 -12 c12 -44 17 -51 38 -49 13 0
24 2 24 3 0 1 -4 13 -10 27 -16 43 -2 29 20 -19 11 -25 25 -45 30 -45 13 0 13
17 1 24 -12 8 -32 66 -23 66 4 0 15 -14 24 -30 9 -17 25 -30 34 -30 13 0 15 6
9 36 -4 24 -3 34 4 29 6 -3 11 -14 11 -23 0 -9 9 -32 20 -49 15 -26 26 -33 51
-33 31 0 31 0 15 25 -20 31 -13 32 16 3 20 -20 20 -22 3 -34 -10 -8 -15 -17
-10 -21 4 -5 10 -2 12 5 8 22 40 13 45 -13 6 -29 -11 -32 -75 -13 -28 8 -46
22 -60 45 -20 35 -37 43 -37 18 0 -8 5 -15 10 -15 6 0 10 -5 10 -11 0 -16 -59
-3 -82 18 -10 9 -18 13 -18 8 0 -4 -6 -3 -12 2 -7 6 -20 10 -28 10 -25 0 -96
35 -82 40 8 3 19 0 25 -6 18 -18 39 -14 28 7 -20 39 -30 83 -19 80 7 -3 18
-27 26 -55z m29 -15 c-3 -8 -6 -5 -6 6 -1 11 2 17 5 13 3 -3 4 -12 1 -19z
m273 -8 c0 -11 -2 -20 -4 -20 -2 0 -6 9 -9 20 -3 11 -1 20 4 20 5 0 9 -9 9
-20z m132 -12 c-5 -21 -6 -21 -12 -2 -8 21 -3 37 10 29 4 -3 6 -15 2 -27z
m338 28 c0 -3 -4 -8 -10 -11 -5 -3 -10 -1 -10 4 0 6 5 11 10 11 6 0 10 -2 10
-4z m-400 -32 c0 -27 -26 -61 -38 -49 -4 4 -1 10 6 12 6 3 12 18 12 34 0 16 5
29 10 29 6 0 10 -12 10 -26z m127 -6 c-3 -7 -5 -2 -5 12 0 14 2 19 5 13 2 -7
2 -19 0 -25z m-73 -70 c14 -8 15 -13 5 -24 -9 -11 -7 -14 10 -14 11 0 21 -5
21 -11 0 -7 -9 -9 -22 -5 -13 3 -42 6 -65 6 -41 0 -43 1 -43 30 0 34 15 40 23
10 3 -13 14 -20 31 -20 23 0 25 2 16 26 -6 14 -9 40 -9 57 1 31 2 31 9 -7 4
-21 15 -43 24 -48z m44 27 c-1 -25 -6 -45 -10 -45 -4 0 -8 20 -8 45 0 25 4 45
10 45 5 0 9 -20 8 -45z m66 -32 c4 -27 2 -43 -4 -43 -5 0 -10 21 -10 47 0 55
5 54 14 -4z m336 43 c0 -3 -4 -8 -10 -11 -5 -3 -10 -1 -10 4 0 6 5 11 10 11 6
0 10 -2 10 -4z m-293 -28 c-3 -8 -6 -5 -6 6 -1 11 2 17 5 13 3 -3 4 -12 1 -19z
m-74 -58 c-8 -9 -21 24 -15 39 5 12 8 10 12 -9 4 -14 5 -27 3 -30z m110 30
c-3 -11 -9 -23 -14 -26 -10 -6 -12 29 -2 39 13 13 21 7 16 -13z m-83 -71 c0
-6 -4 -7 -10 -4 -5 3 -10 11 -10 16 0 6 5 7 10 4 6 -3 10 -11 10 -16z m-30
-29 c0 -13 -1 -13 -10 0 -5 8 -10 22 -10 30 0 13 1 13 10 0 5 -8 10 -22 10
-30z m27 -27 c-3 -10 -5 -4 -5 12 0 17 2 24 5 18 2 -7 2 -21 0 -30z m-57 5 c0
-6 7 -19 16 -29 8 -9 14 -28 12 -41 -4 -22 -5 -22 -12 -3 -13 34 -24 50 -34
48 -5 -1 -7 9 -4 22 4 24 22 26 22 3z m6 -85 c10 -21 17 -45 18 -53 1 -9 9
-14 23 -13 18 2 22 -3 25 -35 2 -27 7 -37 20 -36 25 2 30 -24 8 -43 -24 -21
-26 -35 -5 -27 11 5 15 -1 15 -20 0 -15 -6 -29 -14 -32 -12 -4 -12 -12 0 -51
8 -25 13 -65 12 -87 l-1 -41 -4 38 c-8 74 -23 35 -21 -57 1 -74 4 -93 15 -89
8 3 13 -2 13 -12 0 -11 -5 -15 -14 -12 -12 5 -15 -5 -14 -45 0 -27 -5 -55 -11
-61 -17 -17 -24 16 -19 86 10 119 -9 386 -32 462 -12 39 -22 79 -23 90 0 11
-7 26 -14 33 -10 11 -8 42 3 42 2 0 11 -17 20 -37z m64 21 c0 -8 -4 -12 -10
-9 -5 3 -10 10 -10 16 0 5 5 9 10 9 6 0 10 -7 10 -16z m75 -76 c-10 -31 -25
-47 -25 -26 0 24 11 48 22 48 5 0 6 -10 3 -22z m-10 -198 c-2 -31 -15 -37 -15
-7 0 15 4 27 8 27 5 0 8 -9 7 -20z m-10 -270 c-3 -5 -10 -10 -16 -10 -5 0 -9
5 -9 10 0 6 7 10 16 10 8 0 12 -4 9 -10z m-5 -118 c0 -13 -4 -20 -10 -17 -5 3
-10 21 -10 38 0 24 3 28 10 17 5 -8 10 -25 10 -38z m-585 -72 c3 -5 -3 -10
-15 -10 -12 0 -18 5 -15 10 3 6 10 10 15 10 5 0 12 -4 15 -10z m315 -4 c69 0
145 4 170 8 29 4 41 4 35 -3 -29 -28 -473 -39 -467 -11 2 8 -3 10 -13 6 -9 -3
-13 -2 -10 4 4 7 34 8 83 3 42 -4 133 -8 202 -7z m265 4 c-3 -5 -10 -10 -16
-10 -5 0 -9 5 -9 10 0 6 7 10 16 10 8 0 12 -4 9 -10z m73 -34 c20 0 32 -4 32
-13 0 -9 -8 -11 -24 -7 -13 3 -27 1 -31 -6 -5 -8 -10 -7 -18 4 -7 8 -28 19
-47 25 -33 10 -32 10 10 4 25 -4 60 -7 78 -7z m-213 -16 c8 -13 -35 -13 -55 0
-11 7 -7 10 17 10 17 0 35 -4 38 -10z m620 -8 c-11 -2 -25 -8 -31 -13 -15 -12
-26 1 -14 16 6 7 22 10 38 7 22 -5 23 -7 7 -10z m-715 4 c0 -3 -4 -8 -10 -11
-5 -3 -10 -1 -10 4 0 6 5 11 10 11 6 0 10 -2 10 -4z m198 -3 c-10 -2 -26 -2
-35 0 -10 3 -2 5 17 5 19 0 27 -2 18 -5z m187 -19 c24 -10 0 -22 -32 -16 -18
3 -21 7 -11 13 16 11 22 11 43 3z"/>
<path d="M517 1830 c-3 -11 -1 -20 4 -20 5 0 9 2 9 4 0 2 3 11 6 20 3 9 2 16
-4 16 -5 0 -12 -9 -15 -20z"/>
<path d="M465 1810 c-8 -13 -1 -24 14 -19 6 3 7 10 2 18 -6 10 -10 10 -16 1z"/>
<path d="M462 1665 c-1 -26 3 -35 15 -35 13 0 13 -3 3 -15 -15 -18 -7 -30 15
-21 12 4 13 10 6 25 -6 10 -7 22 -3 26 4 5 1 5 -6 1 -8 -5 -13 -3 -11 5 3 26
-1 49 -9 49 -5 0 -9 -16 -10 -35z"/>
<path d="M1090 835 c0 -8 4 -15 10 -15 5 0 7 7 4 15 -4 8 -8 15 -10 15 -2 0
-4 -7 -4 -15z"/>
<path d="M1095 790 c3 -5 8 -10 11 -10 2 0 4 5 4 10 0 6 -5 10 -11 10 -5 0 -7
-4 -4 -10z"/>
<path d="M1102 728 c2 -22 9 -32 22 -34 14 -2 16 0 7 9 -6 6 -11 21 -11 34 0
13 -5 23 -11 23 -6 0 -9 -14 -7 -32z"/>
<path d="M890 2169 c0 -5 5 -7 11 -4 6 4 17 -1 24 -11 14 -18 14 -18 15 4 0
17 -6 22 -25 22 -14 0 -25 -5 -25 -11z"/>
<path d="M1015 2140 c3 -5 8 -10 11 -10 2 0 4 5 4 10 0 6 -5 10 -11 10 -5 0
-7 -4 -4 -10z"/>
<path d="M730 2129 c0 -5 5 -7 10 -4 6 3 10 8 10 11 0 2 -4 4 -10 4 -5 0 -10
-5 -10 -11z"/>
<path d="M1051 2124 c0 -11 3 -14 6 -6 3 7 2 16 -1 19 -3 4 -6 -2 -5 -13z"/>
<path d="M915 2109 c6 -20 5 -22 -6 -11 -7 6 -15 12 -18 12 -11 0 -5 -84 5
-87 7 -2 10 6 7 20 -5 25 17 51 25 29 2 -7 8 -12 14 -12 6 0 7 7 4 16 -4 12
-1 14 14 9 15 -5 18 -3 14 8 -3 8 -13 18 -22 21 -9 3 -23 9 -31 12 -10 5 -11
1 -6 -17z"/>
<path d="M1000 2090 c0 -11 5 -20 10 -20 6 0 10 9 10 20 0 11 -4 20 -10 20 -5
0 -10 -9 -10 -20z"/>
<path d="M700 2080 c0 -23 13 -26 29 -6 9 11 8 15 -5 20 -23 9 -24 8 -24 -14z"/>
<path d="M1071 2084 c0 -11 3 -14 6 -6 3 7 2 16 -1 19 -3 4 -6 -2 -5 -13z"/>
<path d="M746 2074 c-8 -21 -1 -28 18 -21 9 4 13 13 10 22 -8 20 -20 19 -28
-1z"/>
<path d="M1146 2075 c-4 -10 1 -15 16 -15 17 0 18 2 8 15 -7 8 -14 15 -15 15
-2 0 -5 -7 -9 -15z"/>
<path d="M865 2070 c3 -5 8 -10 11 -10 2 0 4 5 4 10 0 6 -5 10 -11 10 -5 0 -7
-4 -4 -10z"/>
<path d="M1105 2070 c-3 -5 -1 -10 4 -10 6 0 11 5 11 10 0 6 -2 10 -4 10 -3 0
-8 -4 -11 -10z"/>
<path d="M965 2050 c-3 -5 1 -10 10 -10 9 0 13 5 10 10 -3 6 -8 10 -10 10 -2
0 -7 -4 -10 -10z"/>
<path d="M1225 2050 c-3 -5 -1 -10 4 -10 6 0 11 5 11 10 0 6 -2 10 -4 10 -3 0
-8 -4 -11 -10z"/>
<path d="M1305 2050 c-3 -5 -1 -10 4 -10 6 0 11 5 11 10 0 6 -2 10 -4 10 -3 0
-8 -4 -11 -10z"/>
<path d="M1270 2040 c0 -5 5 -10 10 -10 6 0 10 5 10 10 0 6 -4 10 -10 10 -5 0
-10 -4 -10 -10z"/>
<path d="M1335 2040 c-3 -5 -2 -10 4 -10 5 0 13 5 16 10 3 6 2 10 -4 10 -5 0
-13 -4 -16 -10z"/>
<path d="M1684 2042 c3 -6 20 -13 36 -17 16 -4 32 -11 35 -16 4 -5 11 -9 17
-9 7 0 3 8 -8 19 -23 21 -91 40 -80 23z"/>
<path d="M1412 2032 c-9 -2 -4 -9 13 -18 31 -16 45 -18 45 -6 0 12 -42 30 -58
24z"/>
<path d="M783 2016 c2 -6 11 -10 20 -8 8 1 18 -2 22 -8 9 -15 25 -12 19 4 -6
16 -67 28 -61 12z"/>
<path d="M990 2021 c0 -6 12 -11 28 -12 15 -1 52 -3 82 -5 39 -3 51 -1 40 6
-8 5 -28 9 -45 9 -16 -1 -47 2 -67 6 -26 5 -38 4 -38 -4z"/>
<path d="M654 1997 c3 -10 6 -23 6 -28 0 -5 9 -4 19 3 11 7 17 16 15 20 -3 5
-10 5 -16 2 -6 -4 -15 0 -20 7 -8 11 -8 10 -4 -4z"/>
<path d="M712 1998 c3 -7 20 -14 38 -16 30 -3 32 -2 20 13 -11 13 -15 13 -22
3 -8 -10 -11 -10 -15 0 -2 6 -9 12 -15 12 -5 0 -8 -6 -6 -12z"/>
<path d="M865 2000 c-3 -5 -1 -10 4 -10 6 0 11 5 11 10 0 6 -2 10 -4 10 -3 0
-8 -4 -11 -10z"/>
<path d="M890 1984 c0 -14 4 -23 10 -19 6 3 10 15 10 26 0 10 -4 19 -10 19 -5
0 -10 -12 -10 -26z"/>
<path d="M1185 2000 c27 -12 43 -12 25 0 -8 5 -22 9 -30 9 -10 0 -8 -3 5 -9z"/>
<path d="M1253 2003 c-22 -8 -14 -18 12 -18 14 0 25 3 25 6 0 10 -23 17 -37
12z"/>
<path d="M1317 1993 c-13 -12 -7 -18 18 -19 14 -1 25 2 25 8 0 5 -4 6 -10 3
-5 -3 -10 -1 -10 4 0 12 -13 14 -23 4z"/>
<path d="M930 1968 c0 -27 25 -56 37 -44 4 4 1 11 -7 16 -7 5 -15 16 -16 25
-4 28 -14 30 -14 3z"/>
<path d="M1039 1978 c-1 -7 -1 -16 0 -20 0 -5 -6 -8 -14 -8 -8 0 -15 4 -15 9
0 5 -11 11 -25 13 -13 3 -23 2 -22 -1 21 -47 31 -60 39 -49 6 10 11 9 19 -4
16 -29 24 -21 27 27 1 25 0 45 -3 45 -3 0 -6 -6 -6 -12z"/>
<path d="M1101 1964 c0 -11 3 -14 6 -6 3 7 2 16 -1 19 -3 4 -6 -2 -5 -13z"/>
<path d="M1138 1950 c-5 -33 3 -38 22 -15 10 11 9 17 -3 29 -13 14 -15 12 -19
-14z"/>
<path d="M1375 1970 c-3 -5 -2 -10 4 -10 5 0 13 5 16 10 3 6 2 10 -4 10 -5 0
-13 -4 -16 -10z"/>
<path d="M1840 1966 c0 -3 20 -18 45 -35 32 -22 45 -26 45 -16 0 8 -6 15 -13
15 -8 0 -22 9 -32 20 -16 18 -45 28 -45 16z"/>
<path d="M780 1943 c0 -14 -6 -23 -15 -23 -8 0 -15 -7 -15 -16 0 -13 -2 -13
-17 2 -21 21 -31 1 -11 -23 7 -9 12 -26 11 -37 -3 -20 -3 -20 6 -1 9 20 39 49
58 56 6 3 5 15 -3 34 -11 26 -13 27 -14 8z"/>
<path d="M1610 1945 c0 -9 6 -12 16 -8 10 4 20 0 26 -10 5 -10 16 -17 25 -17
12 0 9 7 -11 25 -30 28 -56 33 -56 10z"/>
<path d="M860 1921 c0 -42 16 -47 17 -5 1 19 -3 34 -8 34 -5 0 -9 -13 -9 -29z"/>
<path d="M897 1936 c-3 -8 1 -20 9 -27 20 -16 23 -9 9 19 -10 18 -14 20 -18 8z"/>
<path d="M1068 1944 c-8 -12 19 -50 29 -40 4 4 3 10 -3 14 -6 4 -13 14 -16 22
-2 7 -7 10 -10 4z"/>
<path d="M820 1928 c0 -7 5 -20 10 -28 8 -12 10 -11 10 7 0 12 -4 25 -10 28
-5 3 -10 0 -10 -7z"/>
<path d="M1177 1933 c-12 -12 -7 -22 8 -17 8 4 15 10 15 15 0 11 -14 12 -23 2z"/>
<path d="M1220 1920 c-8 -5 -11 -12 -8 -15 4 -4 17 0 30 9 24 17 5 23 -22 6z"/>
<path d="M1273 1910 c-28 -12 -30 -20 -3 -13 14 4 20 0 20 -10 0 -25 20 -31
38 -12 16 16 16 17 -5 11 -18 -6 -20 -4 -16 14 6 22 0 24 -34 10z"/>
<path d="M1510 1901 c0 -5 9 -7 20 -4 11 3 20 7 20 9 0 2 -9 4 -20 4 -11 0
-20 -4 -20 -9z"/>
<path d="M1705 1900 c-3 -6 1 -7 9 -4 18 7 21 14 7 14 -6 0 -13 -4 -16 -10z"/>
<path d="M1553 1890 c-33 -13 -28 -23 7 -15 19 4 30 3 30 -4 0 -6 -7 -11 -17
-11 -9 0 -14 -2 -11 -5 3 -3 19 -2 36 1 l32 7 -21 18 c-25 21 -25 21 -56 9z"/>
<path d="M1960 1882 c0 -4 16 -23 35 -42 38 -37 48 -29 15 12 -10 14 -16 28
-13 32 3 3 -3 6 -15 6 -12 0 -22 -4 -22 -8z"/>
<path d="M1726 1851 c9 -17 17 -31 18 -31 2 0 17 5 35 11 43 15 40 33 -4 25
-26 -5 -35 -4 -33 5 2 7 -5 14 -14 17 -16 3 -16 1 -2 -27z"/>
<path d="M1327 1863 c-4 -3 -7 -12 -7 -20 0 -15 48 -18 70 -3 12 8 10 10 -8
10 -13 0 -20 4 -17 10 7 11 -28 14 -38 3z"/>
<path d="M1235 1850 c-8 -13 5 -13 25 0 13 8 13 10 -2 10 -9 0 -20 -4 -23 -10z"/>
<path d="M1613 1843 c-27 -5 -31 -33 -5 -33 16 -1 16 -1 -1 -14 -17 -13 -16
-15 9 -35 20 -16 23 -21 10 -21 -34 0 -9 -25 27 -28 28 -2 37 1 37 12 0 9 5
16 10 16 26 0 6 19 -27 25 -25 4 -32 9 -23 15 7 4 20 6 28 2 10 -3 13 0 10 9
-3 8 -15 13 -31 11 -22 -3 -25 0 -23 22 2 14 3 25 2 25 0 -1 -11 -4 -23 -6z"/>
<path d="M758 1796 c-3 -27 -11 -52 -18 -56 -15 -9 8 -50 27 -50 7 0 13 -8 14
-17 0 -10 3 -13 5 -7 7 16 54 -6 54 -25 0 -10 8 -12 30 -7 19 3 30 1 30 -5 0
-7 12 -9 33 -6 17 3 68 9 111 13 47 4 86 12 94 20 7 8 17 12 22 9 11 -7 22 39
14 60 -9 22 -53 38 -69 25 -9 -7 -16 -6 -25 6 -12 14 -14 14 -22 0 -12 -22
-41 -20 -63 4 -22 25 -77 28 -68 4 4 -12 0 -15 -18 -12 -15 2 -23 -2 -21 -9 1
-8 -9 -13 -27 -13 -17 0 -33 -4 -36 -10 -4 -6 -13 -5 -25 2 -25 16 -6 29 30
21 23 -4 27 -2 25 19 -2 26 -35 39 -35 13 0 -9 -6 -15 -12 -12 -7 2 -13 17
-12 33 0 16 -1 21 -3 12 -7 -27 -21 -21 -25 10 -2 19 -5 13 -10 -22z m217 -46
c-3 -5 -13 -10 -21 -10 -8 0 -14 5 -14 10 0 6 9 10 21 10 11 0 17 -4 14 -10z
m-38 -26 c-3 -3 -12 -4 -19 -1 -8 3 -5 6 6 6 11 1 17 -2 13 -5z m-70 -20 c-3
-3 -12 -4 -19 -1 -8 3 -5 6 6 6 11 1 17 -2 13 -5z m87 0 c9 -3 16 -13 16 -21
0 -13 -3 -13 -15 -3 -10 9 -15 9 -15 1 0 -6 -4 -11 -8 -11 -4 0 -8 9 -8 20 0
21 5 24 30 14z"/>
<path d="M996 1814 c-4 -9 -4 -19 -2 -22 10 -9 36 8 36 23 0 20 -26 19 -34 -1z"/>
<path d="M1405 1820 c-3 -5 -2 -10 4 -10 5 0 13 5 16 10 3 6 2 10 -4 10 -5 0
-13 -4 -16 -10z"/>
<path d="M722 1803 c2 -9 8 -18 15 -20 7 -3 9 3 6 16 -6 25 -26 28 -21 4z"/>
<path d="M877 1814 c-12 -12 4 -24 34 -24 19 0 29 5 29 15 0 18 -26 20 -33 3
-4 -10 -7 -10 -14 0 -5 7 -12 9 -16 6z"/>
<path d="M1770 1810 c-11 -7 -3 -10 28 -10 26 0 41 4 37 10 -8 13 -45 13 -65
0z"/>
<path d="M1960 1810 c-8 -5 -10 -10 -5 -10 6 0 17 5 25 10 8 5 11 10 5 10 -5
0 -17 -5 -25 -10z"/>
<path d="M1356 1792 c11 -10 18 -24 16 -31 -3 -10 2 -12 19 -8 13 4 36 7 52 7
15 0 27 5 27 10 0 6 -13 10 -28 10 -16 0 -37 7 -48 15 -10 8 -28 14 -39 14
-20 0 -20 0 1 -17z"/>
<path d="M1090 1791 c0 -14 18 -23 31 -15 8 4 7 9 -2 15 -18 11 -29 11 -29 0z"/>
<path d="M2045 1780 c5 -14 2 -20 -9 -20 -9 0 -16 -4 -16 -10 0 -5 10 -9 23
-7 20 2 22 -2 22 -53 -1 -30 -5 -63 -9 -72 -6 -13 -4 -18 7 -18 29 0 37 112
11 166 -17 36 -40 47 -29 14z"/>
<path d="M1795 1780 l-20 -9 20 0 c16 -1 17 -3 5 -11 -8 -5 -15 -19 -15 -32 0
-13 -4 -29 -8 -36 -9 -13 11 -25 33 -20 7 2 15 -3 17 -9 3 -9 -7 -13 -31 -13
-20 0 -36 -4 -36 -9 0 -11 69 -22 98 -15 27 8 30 48 5 63 -16 9 -16 10 5 11
12 0 22 5 22 10 0 6 -9 10 -21 10 -16 0 -19 4 -14 20 6 19 -3 25 -28 21 -5 -1
-6 3 -2 8 3 6 12 8 20 4 8 -3 15 0 15 6 0 13 -36 13 -65 1z"/>
<path d="M1968 1753 c-21 -5 -23 -14 -6 -31 20 -20 36 -14 36 13 0 14 -3 24
-7 24 -3 -1 -14 -3 -23 -6z"/>
<path d="M1380 1724 c0 -8 4 -13 9 -10 5 4 28 7 51 8 62 2 59 18 -4 18 -44 0
-56 -3 -56 -16z"/>
<path d="M666 1685 c-4 -10 1 -15 16 -15 17 0 18 2 8 15 -7 8 -14 15 -15 15
-2 0 -5 -7 -9 -15z"/>
<path d="M720 1685 c0 -8 2 -15 4 -15 2 0 6 7 10 15 3 8 1 15 -4 15 -6 0 -10
-7 -10 -15z"/>
<path d="M1384 1688 c-3 -5 1 -11 10 -14 22 -9 59 -1 64 14 3 9 -7 12 -33 10
-20 -1 -39 -6 -41 -10z"/>
<path d="M1611 1686 c-9 -11 -10 -20 -1 -35 10 -19 8 -20 -20 -15 -30 6 -43
-9 -17 -19 6 -3 2 -6 -11 -6 -28 -1 -19 -21 9 -21 10 0 19 -4 19 -9 0 -6 -14
-5 -35 0 -63 18 -77 -15 -20 -45 39 -21 61 -13 30 11 -19 14 -18 15 13 8 28
-6 34 -4 39 13 3 14 10 19 21 15 11 -5 14 -2 9 10 -4 11 -1 17 7 17 20 0 29
30 11 36 -22 9 -8 24 23 25 17 1 21 3 10 6 -10 2 -18 9 -18 14 0 15 -56 10
-69 -5z"/>
<path d="M1970 1670 c-20 -12 -10 -19 14 -10 11 3 15 9 10 13 -6 3 -16 2 -24
-3z"/>
<path d="M745 1657 c-4 -10 -5 -21 -1 -24 10 -10 18 4 13 24 -4 17 -4 17 -12
0z"/>
<path d="M1350 1662 c0 -5 6 -14 13 -21 10 -10 9 -11 -4 -6 -9 3 -23 -3 -33
-14 -18 -20 -18 -21 5 -40 36 -31 55 -23 27 10 -11 12 -11 12 2 2 7 -7 20 -13
28 -13 12 0 12 3 2 15 -10 12 -9 15 4 15 10 0 14 4 11 10 -3 5 6 12 20 16 13
3 22 10 19 15 -3 6 -14 7 -24 4 -9 -3 -29 -1 -44 4 -14 6 -26 7 -26 3z"/>
<path d="M2020 1651 c-8 -16 -17 -19 -39 -15 -26 6 -29 3 -35 -30 -4 -22 -13
-36 -21 -36 -20 0 -19 -16 1 -24 24 -9 54 -7 54 4 0 6 7 10 16 10 8 0 12 5 9
10 -3 6 1 10 9 10 9 0 16 7 16 16 0 11 -6 14 -20 9 -11 -4 -20 -2 -20 4 0 6 8
11 18 11 20 0 46 36 32 45 -5 3 -14 -3 -20 -14z"/>
<path d="M1101 1598 c-1 -32 13 -35 55 -13 l29 15 -37 0 c-20 0 -39 6 -41 13
-3 6 -6 0 -6 -15z"/>
<path d="M1764 1608 c-4 -5 -1 -14 6 -18 19 -12 -11 -19 -32 -8 -13 6 -16 5
-12 -5 2 -7 -3 -20 -13 -29 -51 -48 -64 -58 -74 -58 -5 0 -7 -4 -4 -10 8 -14
47 -13 95 2 41 13 53 28 23 28 -28 0 15 28 55 36 28 5 33 10 30 31 -2 13 -7
24 -13 25 -5 0 -20 4 -32 9 -14 5 -25 4 -29 -3z"/>
<path d="M870 1590 c0 -5 5 -10 10 -10 6 0 10 5 10 10 0 6 -4 10 -10 10 -5 0
-10 -4 -10 -10z"/>
<path d="M1264 1585 c16 -9 36 -25 43 -36 8 -10 19 -17 25 -13 16 10 -43 64
-71 64 l-26 0 29 -15z"/>
<path d="M780 1580 c0 -5 5 -10 10 -10 6 0 10 5 10 10 0 6 -4 10 -10 10 -5 0
-10 -4 -10 -10z"/>
<path d="M1190 1559 c0 -13 4 -30 9 -38 8 -12 13 -12 35 2 17 11 27 13 32 6 4
-8 9 -8 17 0 7 7 5 16 -8 31 -21 24 -35 26 -35 5 0 -19 -9 -19 -32 2 -17 15
-18 15 -18 -8z"/>
<path d="M961 1561 c0 -7 -7 -11 -15 -8 -8 3 -17 -1 -20 -9 -6 -15 -3 -16 44
-18 18 0 30 4 30 11 0 7 -6 10 -14 7 -8 -3 -16 2 -19 13 -3 10 -5 12 -6 4z"/>
<path d="M845 1540 c-10 -11 -12 -20 -7 -24 6 -3 13 0 16 6 5 10 7 10 12 1 8
-18 17 -16 31 6 10 16 9 20 -12 24 -15 2 -30 -2 -40 -13z"/>
<path d="M1140 1550 c-13 -9 -12 -12 4 -25 28 -21 36 -19 36 10 0 26 -15 32
-40 15z"/>
<path d="M1090 1540 c0 -5 5 -10 10 -10 6 0 10 5 10 10 0 6 -4 10 -10 10 -5 0
-10 -4 -10 -10z"/>
<path d="M1055 1531 c-3 -5 -1 -12 5 -16 5 -3 10 1 10 9 0 18 -6 21 -15 7z"/>
<path d="M1476 1531 c-3 -5 -30 -14 -58 -21 -54 -13 -98 -45 -90 -68 2 -6 8
-12 14 -12 6 0 7 7 4 16 -5 12 -1 14 16 8 20 -6 21 -5 9 10 -11 14 -11 16 1
16 8 0 19 -5 26 -12 9 -9 12 -8 12 5 0 15 3 16 21 7 13 -8 24 -8 32 -2 7 6 16
10 20 10 5 0 11 3 15 6 3 3 0 6 -7 6 -7 0 -10 4 -7 9 3 5 16 7 29 4 21 -4 22
-4 3 11 -23 18 -32 20 -40 7z"/>
<path d="M1886 1519 c5 -9 2 -11 -8 -6 -15 5 -19 -1 -28 -40 -1 -4 4 -9 11
-12 8 -2 10 2 6 13 -4 11 -1 16 12 16 10 0 21 3 25 8 4 4 12 7 17 7 22 0 7 20
-17 23 -19 3 -24 0 -18 -9z"/>
<path d="M687 1463 c-17 -16 -4 -25 28 -20 19 3 35 2 35 -4 0 -5 5 -9 10 -9 6
0 10 7 10 15 0 8 -3 14 -7 14 -5 -1 -10 0 -13 1 -18 7 -58 9 -63 3z"/>
<path d="M787 1463 c-4 -3 -7 -16 -7 -27 1 -21 1 -21 15 -2 8 11 15 23 15 28
0 10 -14 11 -23 1z"/>
<path d="M1190 1462 c0 -15 28 -47 35 -40 8 8 -13 48 -25 48 -6 0 -10 -4 -10
-8z"/>
<path d="M1240 1460 c0 -33 30 -55 30 -22 1 16 1 16 14 0 21 -28 42 -23 24 4
-15 22 -68 36 -68 18z"/>
<path d="M856 1435 c-9 -14 -12 -25 -7 -25 12 0 35 39 28 46 -2 3 -12 -7 -21
-21z"/>
<path d="M988 1453 c-19 -5 -26 -53 -8 -53 6 0 10 5 10 11 0 5 5 7 10 4 6 -4
17 -1 25 5 9 8 15 8 15 2 0 -5 11 -9 25 -8 27 1 29 4 15 26 -9 14 -58 21 -92
13z"/>
<path d="M1148 1453 c-21 -5 -23 -14 -6 -31 18 -18 38 -14 38 7 0 23 -8 29
-32 24z"/>
<path d="M1590 1452 c0 -12 -102 -44 -154 -48 -63 -5 -88 -13 -83 -27 4 -14
107 -17 107 -4 0 5 7 7 15 4 8 -4 17 -2 20 3 4 6 17 7 31 4 14 -4 24 -2 24 5
0 6 9 11 19 11 11 0 23 5 26 10 4 6 11 8 16 5 5 -3 14 -1 21 5 7 6 22 17 33
25 18 13 16 14 -27 15 -27 0 -48 -3 -48 -8z"/>
<path d="M821 1434 c0 -11 3 -14 6 -6 3 7 2 16 -1 19 -3 4 -6 -2 -5 -13z"/>
<path d="M890 1435 c-9 -11 -10 -19 -3 -26 8 -8 13 -5 18 11 9 28 2 35 -15 15z"/>
<path d="M930 1441 c0 -5 -3 -16 -6 -25 -4 -11 -1 -16 10 -16 10 0 16 9 16 25
0 14 -4 25 -10 25 -5 0 -10 -4 -10 -9z"/>
<path d="M1107 1443 c-7 -11 10 -40 18 -31 4 4 3 14 -3 24 -5 9 -12 12 -15 7z"/>
<path d="M617 1398 c-30 -16 -19 -30 22 -26 29 2 37 0 33 -10 -3 -9 2 -13 14
-12 10 1 21 1 24 0 42 -15 86 8 61 33 -9 9 -16 9 -32 -1 -14 -9 -19 -9 -14 -2
5 7 0 11 -11 9 -11 -1 -27 1 -36 4 -37 14 -45 15 -61 5z"/>
<path d="M1276 1374 c-11 -30 -7 -42 14 -37 23 6 26 26 6 42 -11 9 -15 8 -20
-5z"/>
<path d="M791 1363 c-9 -10 -10 -18 -3 -25 7 -7 14 -4 21 10 13 25 1 36 -18
15z"/>
<path d="M827 1359 c-6 -23 12 -34 43 -26 10 3 21 0 23 -7 3 -8 8 -8 16 0 27
25 -13 52 -47 30 -7 -4 -12 -1 -12 8 0 23 -17 19 -23 -5z"/>
<path d="M1203 1366 c4 -10 7 -20 7 -22 0 -2 11 -4 25 -4 16 0 25 6 25 15 0 8
-6 15 -14 15 -8 0 -22 3 -32 7 -14 5 -16 3 -11 -11z"/>
<path d="M1320 1371 c0 -6 5 -13 10 -16 6 -3 10 1 10 9 0 9 -4 16 -10 16 -5 0
-10 -4 -10 -9z"/>
<path d="M933 1355 c-3 -9 -3 -18 0 -21 9 -9 27 6 27 22 0 19 -19 18 -27 -1z"/>
<path d="M976 1354 c-11 -28 -7 -37 10 -23 13 10 17 10 24 -1 12 -20 23 -6 15
19 -8 25 -40 28 -49 5z"/>
<path d="M1074 1358 c-12 -19 38 -28 99 -19 4 0 7 7 7 15 0 10 -13 14 -51 13
-28 -1 -53 -5 -55 -9z"/>
<path d="M1040 1340 c0 -5 5 -10 10 -10 6 0 10 5 10 10 0 6 -4 10 -10 10 -5 0
-10 -4 -10 -10z"/>
<path d="M636 160 c5 -5 41 -13 79 -18 56 -8 73 -7 85 4 12 12 5 14 -50 15
-36 1 -78 3 -94 5 -17 2 -25 -1 -20 -6z"/>
<path d="M1765 160 c-3 -5 1 -10 10 -10 9 0 13 5 10 10 -3 6 -8 10 -10 10 -2
0 -7 -4 -10 -10z"/>
<path d="M830 150 c0 -5 5 -10 11 -10 5 0 7 5 4 10 -3 6 -8 10 -11 10 -2 0 -4
-4 -4 -10z"/>
<path d="M1800 120 c0 -5 5 -10 10 -10 6 0 10 5 10 10 0 6 -4 10 -10 10 -5 0
-10 -4 -10 -10z"/>
<path d="M885 100 c3 -5 10 -10 16 -10 5 0 9 5 9 10 0 6 -7 10 -16 10 -8 0
-12 -4 -9 -10z"/>
<path d="M1390 65 c0 -8 7 -15 16 -15 14 0 14 3 4 15 -7 8 -14 15 -16 15 -2 0
-4 -7 -4 -15z"/>
<path d="M1290 60 c0 -5 7 -10 15 -10 8 0 15 5 15 10 0 6 -7 10 -15 10 -8 0
-15 -4 -15 -10z"/>
</g>
</svg>
