<?xml version="1.0" standalone="no"?>
<!DOCTYPE svg PUBLIC "-//W3C//DTD SVG 20010904//EN"
 "http://www.w3.org/TR/2001/REC-SVG-20010904/DTD/svg10.dtd">
<svg version="1.0" xmlns="http://www.w3.org/2000/svg"
 width="156.000000pt" height="213.000000pt" viewBox="0 0 156.000000 213.000000"
 preserveAspectRatio="xMidYMid meet">

<g transform="translate(0.000000,213.000000) scale(0.100000,-0.100000)"
fill="#e6d889" stroke="none">
<path d="M881 2089 c-46 -14 -75 -34 -91 -64 -11 -21 -21 -25 -60 -25 -63 0
-160 -19 -187 -36 -12 -8 -33 -14 -46 -14 -27 0 -67 -34 -67 -56 0 -9 -11 -25
-24 -35 -25 -20 -40 -76 -24 -96 6 -7 5 -14 -2 -18 -5 -3 -10 -21 -10 -40 0
-19 -4 -37 -10 -40 -11 -7 -14 -68 -3 -79 4 -4 8 -37 10 -74 3 -97 3 -101 13
-107 5 -3 18 0 28 6 15 9 21 28 25 75 2 34 12 73 21 85 9 13 16 38 16 56 0 18
5 33 10 33 14 0 13 46 -1 73 -10 18 -8 24 20 48 28 23 33 35 38 85 6 73 24 91
101 99 31 3 70 8 86 10 25 4 28 2 23 -18 -13 -52 -19 -204 -9 -223 6 -12 14
-43 18 -71 l6 -50 -37 -6 c-41 -7 -97 -45 -122 -83 -19 -29 -25 -60 -27 -131
0 -28 -4 -55 -8 -59 -11 -10 -10 -82 1 -88 4 -3 9 -32 9 -66 1 -47 -3 -62 -17
-72 -24 -17 -61 -78 -61 -102 0 -10 -10 -35 -22 -54 -21 -35 -26 -49 -31 -102
-2 -14 -7 -38 -11 -53 -5 -18 -4 -38 3 -54 10 -21 9 -29 -1 -40 -12 -11 -20
-5 -52 37 -21 27 -41 50 -45 50 -3 0 -28 20 -54 44 -51 46 -141 82 -222 88
-37 3 -40 1 -37 -21 1 -13 23 -46 48 -74 44 -50 84 -114 84 -138 0 -6 14 -32
31 -57 18 -27 34 -67 39 -100 16 -93 94 -188 171 -207 28 -7 42 -39 43 -100 1
-23 6 -30 20 -30 10 0 23 8 27 18 5 9 13 25 18 35 6 14 24 18 91 20 93 3 110
-6 146 -76 11 -20 31 -52 47 -70 15 -18 27 -40 27 -48 0 -8 4 -12 10 -9 5 3 9
23 9 43 -1 43 24 178 35 189 4 4 5 -3 2 -17 -13 -52 -24 -215 -15 -224 15 -16
22 1 30 81 11 107 25 189 44 247 8 27 15 60 15 73 0 26 3 27 28 13 9 -5 39
-16 65 -25 27 -8 64 -27 83 -42 28 -21 39 -24 57 -16 40 18 87 64 128 124 33
49 46 60 82 69 54 14 78 26 111 56 38 35 37 107 -1 156 -48 61 -100 91 -163
96 -67 5 -164 -13 -181 -34 -10 -12 -42 -12 -57 1 -1 1 12 31 30 66 58 114 50
229 -23 337 -29 44 -31 50 -25 107 8 67 18 133 35 215 6 30 12 125 14 210 2
144 0 157 -19 185 -12 17 -29 42 -38 57 -31 51 -124 79 -195 57z m167 -65 c31
-36 43 -67 57 -146 7 -47 -3 -48 -32 -4 -23 36 -104 94 -143 102 -111 23 -130
38 -87 67 30 19 69 26 127 22 38 -3 50 -9 78 -41z m-248 -54 c0 -5 -5 -10 -11
-10 -5 0 -7 5 -4 10 3 6 8 10 11 10 2 0 4 -4 4 -10z m175 -45 c56 -32 113 -99
121 -142 11 -60 -3 -201 -30 -303 -3 -8 -5 -36 -5 -62 -1 -27 -5 -48 -10 -48
-5 0 -17 23 -27 52 -19 58 -102 147 -158 169 -40 16 -39 14 -28 36 15 28 22
114 12 158 -6 29 -5 44 6 59 20 29 18 42 -12 81 -14 19 -23 38 -20 43 8 13
101 -13 151 -43z m-185 -32 c0 -13 -4 -23 -10 -23 -5 0 -14 -15 -20 -32 -9
-32 -10 -32 -4 -3 5 29 10 64 13 95 2 24 21 -9 21 -37z m-298 12 c-2 -14 -9
-22 -15 -18 -6 4 -8 0 -4 -10 10 -27 -2 -50 -19 -36 -19 15 -18 26 7 60 25 36
38 37 31 4z m-52 -90 c0 -23 -6 -38 -15 -42 -21 -8 -23 -4 -17 40 6 49 32 51
32 2z m-7 -85 c-6 -23 -31 -46 -40 -36 -9 9 18 56 33 56 7 0 10 -8 7 -20z
m357 -40 c0 -5 -2 -10 -4 -10 -3 0 -8 5 -11 10 -3 6 -1 10 4 10 6 0 11 -4 11
-10z m-394 -66 c-3 -9 -6 -21 -7 -27 0 -7 -4 -3 -8 8 -9 22 -5 35 11 35 5 0 7
-7 4 -16z m383 -48 c24 -25 51 -25 51 0 0 34 111 -60 142 -121 24 -45 60 -147
54 -152 -1 -2 -14 1 -27 5 -39 15 -157 -24 -188 -62 -8 -9 -23 -16 -35 -16
-12 0 -26 -4 -32 -9 -5 -4 -21 -11 -35 -15 -23 -5 -27 -2 -32 22 -6 32 2 80
14 88 5 3 9 13 9 22 0 14 -2 15 -10 2 -16 -26 -21 -4 -5 26 19 37 19 54 -2 84
-10 14 -19 44 -20 68 -3 38 -1 43 24 53 16 6 35 15 43 19 22 13 24 12 49 -14z
m41 10 c0 -11 -19 -15 -25 -6 -3 5 1 10 9 10 9 0 16 -2 16 -4z m-197 -149 c-3
-20 -10 -37 -14 -37 -11 0 -11 16 -3 59 9 45 25 24 17 -22z m7 -66 c0 -5 -7
-11 -15 -15 -15 -5 -20 5 -8 17 9 10 23 9 23 -2z m-21 -113 c1 -5 -3 -8 -9 -8
-5 0 -10 12 -9 28 0 24 1 25 9 7 5 -11 9 -23 9 -27z m421 -68 c-3 -41 -5 -132
-5 -203 l0 -127 -37 0 c-47 0 -114 -29 -155 -68 l-33 -30 -2 41 c-1 47 -3 65
-18 155 -5 35 -15 72 -21 83 -18 34 19 136 64 175 53 47 70 53 142 51 l70 -2
-5 -75z m90 -26 c27 -85 25 -121 -10 -192 -16 -34 -30 -67 -31 -74 0 -7 -5 1
-10 17 -10 31 -11 323 -1 339 8 15 30 -22 52 -90z m-379 -29 c-12 -25 -21 -54
-21 -65 0 -12 -6 -33 -14 -48 -7 -15 -16 -43 -20 -62 -11 -61 -8 -283 4 -335
6 -27 13 -70 15 -95 l4 -44 -26 33 c-44 56 -71 79 -108 92 -34 13 -45 32 -25
44 7 4 8 24 5 50 -5 27 -3 45 4 49 13 9 15 63 2 70 -5 3 -7 23 -4 45 3 23 1
41 -6 45 -6 4 -11 16 -11 26 0 10 -6 20 -12 23 -10 3 -10 12 1 41 21 61 61 98
61 59 0 -17 26 -98 37 -115 2 -5 10 -4 17 1 8 7 16 49 19 108 4 53 11 101 17
107 16 17 75 34 78 24 2 -5 -6 -29 -17 -53z m-1 -115 c0 -5 -2 -10 -4 -10 -3
0 -8 5 -11 10 -3 6 -1 10 4 10 6 0 11 -4 11 -10z m-2 -48 c6 -18 -15 -14 -22
4 -4 10 -1 14 6 12 6 -2 14 -10 16 -16z m-218 -70 c0 -16 -9 -37 -20 -47 -19
-18 -20 -17 -20 2 0 12 7 24 16 27 8 3 12 10 9 16 -4 6 -11 8 -16 5 -10 -7
-12 8 -2 18 16 17 33 5 33 -21z m200 -14 c0 -18 -4 -38 -8 -45 -4 -7 -8 8 -8
32 0 25 4 45 8 45 4 0 8 -15 8 -32z m477 -45 c-16 -16 -15 -18 5 -40 18 -19
19 -23 5 -23 -8 0 -19 9 -22 20 -3 11 -11 20 -17 20 -6 0 -3 9 7 20 10 11 23
20 29 20 6 0 3 -8 -7 -17z m63 7 c0 -5 -5 -10 -11 -10 -5 0 -7 5 -4 10 3 6 8
10 11 10 2 0 4 -4 4 -10z m-520 -26 c0 -8 -4 -12 -10 -9 -5 3 -10 10 -10 16 0
5 5 9 10 9 6 0 10 -7 10 -16z m290 0 c0 -13 -6 -15 -27 -9 -46 11 -51 25 -10
25 27 0 37 -4 37 -16z m80 6 c0 -5 -7 -10 -16 -10 -8 0 -12 5 -9 10 3 6 10 10
16 10 5 0 9 -4 9 -10z m-81 -92 c-16 -40 -36 -86 -44 -103 -7 -16 -19 -48 -26
-70 -14 -42 -29 -67 -29 -47 0 14 22 76 55 152 13 30 32 76 42 102 9 25 21 44
24 42 4 -2 -6 -37 -22 -76z m325 66 c8 -21 8 -24 -3 -24 -5 0 -11 9 -14 20 -6
24 8 27 17 4z m-374 -3 c0 -10 -36 -21 -70 -20 -22 0 -21 2 10 13 43 17 60 19
60 7z m280 -11 c13 -8 13 -10 -2 -10 -9 0 -20 5 -23 10 -8 13 5 13 25 0z m127
-12 c-3 -8 -6 -5 -6 6 -1 11 2 17 5 13 3 -3 4 -12 1 -19z m-917 2 c0 -5 -4
-10 -10 -10 -5 0 -10 5 -10 10 0 6 5 10 10 10 6 0 10 -4 10 -10z m407 -6 c-3
-3 -12 -4 -19 -1 -8 3 -5 6 6 6 11 1 17 -2 13 -5z m68 -19 c-16 -7 -32 -11
-35 -9 -7 8 24 24 45 23 15 0 13 -4 -10 -14z m-445 -3 c0 -13 -12 -22 -22 -16
-10 6 -1 24 13 24 5 0 9 -4 9 -8z m365 -12 c-3 -5 -16 -10 -28 -11 -12 0 -16
-3 -9 -6 6 -2 12 -9 12 -14 0 -12 -27 -11 -35 1 -13 21 4 40 35 40 18 0 29 -4
25 -10z m390 -6 c20 -15 20 -16 -4 -12 -14 2 -26 9 -29 16 -5 16 9 15 33 -4z
m-745 -24 c0 -5 -4 -10 -9 -10 -6 0 -13 5 -16 10 -3 6 1 10 9 10 9 0 16 -4 16
-10z m477 4 c-3 -3 -12 -4 -19 -1 -8 3 -5 6 6 6 11 1 17 -2 13 -5z m83 -9 c-7
-8 -17 -15 -22 -15 -6 0 -5 7 2 15 7 8 17 15 22 15 6 0 5 -7 -2 -15z m190 -15
c-19 -13 -30 -13 -30 0 0 6 10 10 23 10 18 0 19 -2 7 -10z m113 3 c-7 -2 -19
-2 -25 0 -7 3 -2 5 12 5 14 0 19 -2 13 -5z m-548 -13 c3 -5 1 -10 -4 -10 -6 0
-11 5 -11 10 0 6 2 10 4 10 3 0 8 -4 11 -10z m65 0 c-19 -13 -30 -13 -30 0 0
6 10 10 23 10 18 0 19 -2 7 -10z m75 -1 c-12 -19 -63 -34 -122 -38 -13 0 -23
-5 -23 -11 0 -6 19 -7 48 -4 35 4 43 3 32 -5 -18 -12 -87 -15 -94 -3 -10 17
13 34 52 37 22 2 53 10 68 19 34 18 48 20 39 5z m-455 -9 c0 -5 -4 -10 -10
-10 -5 0 -10 5 -10 10 0 6 5 10 10 10 6 0 10 -4 10 -10z m230 -11 c0 -5 -7 -9
-15 -9 -15 0 -20 12 -9 23 8 8 24 -1 24 -14z m-505 1 c-3 -5 -11 -10 -16 -10
-6 0 -7 5 -4 10 3 6 11 10 16 10 6 0 7 -4 4 -10z m199 -25 c17 -25 16 -25 -4
-13 -11 7 -20 18 -20 25 0 19 6 16 24 -12z m881 15 c13 -6 15 -9 5 -9 -8 0
-22 4 -30 9 -18 12 -2 12 25 0z m-49 -11 c3 -6 1 -15 -6 -19 -9 -5 -9 -9 -1
-14 16 -10 13 -29 -3 -23 -18 7 -31 -24 -14 -34 6 -4 15 -6 19 -3 4 2 12 -3
19 -10 9 -12 6 -14 -22 -11 l-33 4 28 -15 c34 -18 35 -28 2 -22 -19 4 -23 2
-15 -7 14 -17 5 -35 -31 -64 -22 -17 -33 -21 -41 -13 -9 9 -7 16 4 29 9 10 18
32 21 48 27 135 52 188 73 154z m-206 -9 c0 -5 -4 -10 -9 -10 -5 0 -18 -3 -28
-7 -16 -6 -16 -5 -4 10 15 19 41 23 41 7z m274 -22 c-3 -5 -12 -4 -20 3 -19
16 -18 18 6 12 11 -3 17 -9 14 -15z m-1017 -4 c-3 -3 -12 -4 -19 -1 -8 3 -5 6
6 6 11 1 17 -2 13 -5z m593 -9 c-28 -16 -60 -20 -44 -6 8 9 36 18 59 19 6 1
-1 -5 -15 -13z m-345 -25 c-10 -11 -21 -17 -24 -14 -3 3 3 12 13 20 28 20 32
17 11 -6z m294 -26 l42 -47 -11 -51 c-6 -28 -18 -73 -25 -101 -7 -27 -19 -76
-25 -109 -13 -62 -21 -63 -40 -3 -6 21 -20 46 -31 56 -19 17 -19 18 6 31 25
14 30 40 26 135 -4 71 1 135 9 135 4 0 26 -21 49 -46z m-389 27 c0 -6 -4 -13
-10 -16 -5 -3 -10 1 -10 9 0 9 5 16 10 16 6 0 10 -4 10 -9z m460 -1 c0 -5 -8
-10 -17 -10 -15 0 -16 2 -3 10 19 12 20 12 20 0z m-634 -15 c-21 -16 -32 -13
-21 4 3 6 14 11 23 11 15 -1 15 -2 -2 -15z m302 -5 c-13 -20 -28 -27 -28 -12
0 10 22 32 32 32 5 0 3 -9 -4 -20z m428 5 c-23 -17 -36 -19 -36 -6 0 5 8 12
18 14 32 9 37 6 18 -8z m-646 -5 c0 -5 -6 -10 -12 -10 -7 0 -24 -3 -38 -6 -24
-6 -25 -6 -5 9 22 18 55 22 55 7z m258 -12 c-3 -7 -13 -15 -24 -17 -16 -3 -17
-1 -5 13 16 19 34 21 29 4z m102 8 c0 -3 -4 -8 -10 -11 -5 -3 -10 -1 -10 4 0
6 5 11 10 11 6 0 10 -2 10 -4z m-260 -25 c0 -5 -7 -11 -15 -15 -15 -5 -20 5
-8 17 9 10 23 9 23 -2z m-186 -16 c-4 -8 -13 -15 -21 -15 -13 0 -13 3 -3 15 7
8 16 15 21 15 5 0 6 -7 3 -15z m76 5 c0 -5 -7 -10 -15 -10 -8 0 -15 5 -15 10
0 6 7 10 15 10 8 0 15 -4 15 -10z m290 0 c0 -5 -2 -10 -4 -10 -2 0 -12 -3 -20
-6 -12 -5 -15 -2 -10 10 7 17 34 22 34 6z m-321 -33 c8 -10 6 -19 -10 -36 -12
-12 -24 -20 -27 -17 -3 4 3 13 14 20 24 18 10 34 -16 18 -22 -13 -27 -3 -8 16
16 16 33 15 47 -1z m323 -9 c-7 -7 -12 -8 -12 -2 0 14 12 26 19 19 2 -3 -1
-11 -7 -17z m-72 -1 c0 -2 -14 -14 -31 -26 -29 -22 -31 -16 -6 17 8 10 37 18
37 9z m-160 -16 c0 -12 -20 -25 -27 -18 -7 7 6 27 18 27 5 0 9 -4 9 -9z m481
-22 c-5 -13 -10 -19 -10 -12 -1 15 10 45 15 40 3 -2 0 -15 -5 -28z m-309 11
c-12 -5 -25 -16 -28 -25 -4 -8 -11 -15 -17 -15 -6 0 0 11 13 25 13 14 31 25
39 24 10 0 8 -4 -7 -9z m98 -16 c0 -8 -4 -12 -10 -9 -5 3 -10 10 -10 16 0 5 5
9 10 9 6 0 10 -7 10 -16z m-300 -44 c-21 -21 -40 -26 -40 -11 0 13 41 41 51
35 5 -3 -1 -14 -11 -24z m334 -45 c3 -8 1 -15 -4 -15 -6 0 -10 7 -10 15 0 8 2
15 4 15 2 0 6 -7 10 -15z m-124 -26 c0 -5 -4 -8 -9 -4 -5 3 -12 1 -16 -5 -3
-5 -17 -10 -31 -10 -14 0 -23 4 -19 10 3 5 12 7 19 4 8 -3 17 -1 21 5 8 14 35
14 35 0z"/>
</g>
</svg>
