<?xml version="1.0" standalone="no"?>
<!DOCTYPE svg PUBLIC "-//W3C//DTD SVG 20010904//EN"
 "http://www.w3.org/TR/2001/REC-SVG-20010904/DTD/svg10.dtd">
<svg version="1.0" xmlns="http://www.w3.org/2000/svg"
 width="158.000000pt" height="226.000000pt" viewBox="0 0 158.000000 226.000000"
 preserveAspectRatio="xMidYMid meet">

<g transform="translate(0.000000,226.000000) scale(0.100000,-0.100000)"
fill="#e6d889" stroke="none">
<path d="M1114 2165 c-5 -27 -15 -40 -45 -57 -21 -12 -39 -28 -39 -35 0 -9
-15 -13 -50 -13 -27 0 -50 -4 -50 -8 0 -5 14 -18 31 -31 29 -21 30 -24 14 -41
-16 -17 -6 -38 13 -26 4 2 14 1 21 -4 10 -6 7 -11 -13 -22 -24 -13 -26 -16
-12 -27 18 -15 21 -48 7 -70 -8 -12 -15 -9 -41 12 -17 15 -35 27 -38 27 -4 0
-28 20 -54 44 -38 35 -46 47 -41 67 6 21 5 23 -10 10 -24 -19 -21 -32 16 -77
42 -49 87 -125 87 -147 0 -10 -10 -27 -21 -38 -17 -17 -19 -23 -8 -30 8 -5 24
-9 37 -9 12 0 22 -3 22 -7 -1 -15 -29 -46 -52 -57 -14 -7 -24 -22 -26 -38 l-3
-27 -32 19 c-38 24 -47 25 -47 6 0 -11 -9 -13 -35 -9 -41 7 -42 2 -13 -38 19
-25 20 -33 10 -49 -16 -26 -15 -27 7 -33 23 -6 17 -54 -8 -62 -13 -4 -16 -14
-13 -45 2 -22 0 -40 -4 -40 -5 0 -26 42 -47 93 -21 50 -41 98 -44 105 -3 8 6
12 32 12 34 0 37 2 30 23 -17 55 -16 63 8 85 28 26 98 46 128 37 23 -7 26 13
4 21 -8 4 -29 19 -46 35 l-32 29 18 48 c9 26 26 55 37 65 12 10 18 20 15 23
-7 7 -44 -12 -79 -42 -27 -22 -29 -22 -60 -7 -18 9 -36 21 -39 26 -4 5 -21 8
-37 5 -17 -2 -29 -2 -27 2 2 3 6 24 10 48 6 41 -5 56 -21 30 -10 -16 -22 16
-23 60 -1 43 -18 41 -27 -3 -3 -19 -13 -36 -23 -39 -9 -2 -28 -7 -43 -10 -29
-7 -39 -26 -14 -26 11 0 25 -27 26 -51 0 -11 -55 3 -75 20 -27 22 -66 43 -71
39 -2 -2 -1 -28 3 -57 5 -42 11 -54 32 -66 l26 -14 -27 -1 c-51 0 -29 -18 33
-25 45 -5 59 -11 55 -21 -3 -7 -1 -16 5 -20 5 -3 7 -14 4 -25 -5 -14 -2 -19
14 -19 15 0 22 -9 27 -35 3 -20 4 -38 1 -41 -12 -12 -27 8 -27 34 0 25 -3 27
-37 27 -30 0 -40 5 -48 23 -10 22 -29 29 -39 14 -2 -4 -25 -7 -50 -6 -28 1
-50 -4 -57 -12 -7 -8 -30 -14 -55 -14 -45 0 -59 -14 -25 -25 11 -3 25 -13 32
-21 11 -13 10 -18 -4 -25 -26 -15 -20 -27 16 -31 31 -3 32 -5 41 -63 5 -33 10
-62 11 -63 2 -2 17 6 33 18 38 28 62 21 62 -20 0 -16 2 -30 4 -30 2 0 27 13
57 29 30 15 65 32 77 36 22 6 23 5 13 -14 -6 -11 -31 -34 -56 -51 -51 -35 -57
-55 -19 -64 27 -7 29 -20 8 -85 -6 -22 -5 -23 19 -17 28 7 26 11 42 -88 5 -34
28 -62 57 -69 19 -5 20 -3 15 36 -8 55 18 96 51 78 33 -18 38 -14 38 34 -1 24
4 45 9 46 6 2 24 -21 42 -50 17 -29 62 -85 98 -124 37 -39 62 -73 55 -75 -6
-2 -38 10 -70 27 -63 34 -80 38 -80 18 0 -28 -28 -50 -71 -56 -36 -5 -43 -10
-41 -25 5 -24 -17 -66 -34 -66 -21 0 -27 -20 -13 -46 11 -21 10 -28 -9 -54
-12 -16 -22 -33 -22 -39 0 -5 21 -11 48 -13 36 -4 52 0 68 14 25 22 33 22 55
2 17 -16 19 -15 28 7 19 50 71 74 71 33 0 -22 10 -17 44 20 17 19 45 37 61 41
l30 5 0 -63 0 -64 41 5 41 4 6 -53 c4 -30 7 -71 7 -93 0 -30 3 -37 15 -32 19
7 19 -3 1 -18 -8 -6 -20 -40 -27 -76 -12 -68 -41 -148 -67 -188 -14 -21 -15
-22 -27 -5 -13 19 -37 104 -75 266 -26 108 -43 142 -60 117 -14 -19 -4 -160
15 -209 7 -20 23 -72 35 -116 12 -44 27 -86 33 -94 10 -12 9 -14 -5 -8 -43 16
-98 59 -98 77 0 22 -16 36 -22 18 -3 -8 -22 2 -51 26 -48 39 -61 78 -36 103 7
7 8 20 5 30 -7 16 -10 15 -32 -11 l-25 -28 -27 23 c-14 13 -47 44 -72 68 -62
60 -144 111 -188 118 l-37 5 35 -30 c19 -17 37 -30 41 -29 9 3 69 -61 69 -74
0 -6 26 -36 57 -64 32 -29 56 -55 53 -58 -10 -11 -67 24 -80 49 -15 26 -40 33
-40 9 0 -42 -85 -42 -134 0 -37 32 -39 31 -31 -5 6 -27 4 -30 -19 -30 -29 0
-33 -11 -11 -30 8 -7 15 -21 15 -33 0 -17 -5 -19 -45 -15 -25 3 -45 4 -45 1 0
-2 7 -15 17 -29 16 -25 16 -26 -52 -94 -38 -38 -67 -72 -64 -74 3 -3 27 6 54
19 79 41 177 28 206 -26 11 -21 12 -20 48 15 51 50 114 46 145 -11 8 -15 16
-26 16 -23 1 3 3 20 5 38 4 47 49 92 91 92 18 0 36 5 39 10 11 18 34 10 105
-37 72 -49 83 -66 84 -130 1 -33 18 -44 33 -20 10 16 58 37 83 37 10 0 27 -11
38 -25 23 -29 42 -32 42 -7 0 10 7 27 15 38 13 18 14 16 12 -26 -1 -32 2 -44
11 -42 7 1 15 -11 18 -28 8 -36 9 -36 41 -10 33 26 58 25 96 -2 l30 -22 -6 32
c-5 24 -2 34 11 41 36 19 120 -16 122 -51 0 -5 7 -8 16 -8 27 0 10 66 -31 118
-40 51 -41 59 -19 91 23 32 5 48 -35 32 -16 -7 -39 -10 -52 -6 -19 6 -21 12
-16 54 3 25 9 54 12 63 12 32 -29 21 -65 -17 -29 -30 -41 -35 -69 -33 -22 2
-38 10 -45 23 -6 11 -14 22 -18 25 -4 3 0 55 8 115 8 61 12 133 9 160 -5 46
-5 49 10 31 8 -11 15 -27 15 -35 1 -38 16 -44 48 -21 40 29 69 22 118 -30 21
-22 44 -40 51 -40 15 0 18 31 4 45 -18 20 -21 62 -6 75 22 19 18 33 -18 55
-39 25 -47 59 -18 77 24 14 28 38 8 38 -19 0 -77 30 -77 40 0 4 7 13 15 20 25
21 17 29 -32 32 -41 3 -48 6 -51 26 -4 28 -19 28 -41 0 -13 -16 -24 -19 -43
-15 -44 11 -42 35 4 58 30 15 50 19 77 14 l36 -6 -30 25 c-28 23 -29 25 -10
33 17 7 100 58 115 71 3 3 -1 7 -7 9 -22 8 -14 32 12 39 16 4 34 0 50 -10 13
-9 26 -12 29 -8 9 15 -45 92 -74 107 -25 13 -33 13 -70 0 -55 -19 -69 -19 -65
3 15 74 14 72 45 65 38 -7 38 6 0 42 -27 25 -33 54 -9 39 6 -3 20 4 31 15 27
30 44 14 58 -55 6 -30 14 -54 17 -54 3 0 16 11 29 25 30 32 64 32 103 -1 l31
-26 0 45 c0 31 -6 49 -20 62 -26 23 -25 31 3 39 22 6 22 6 -6 28 l-28 23 31
38 c17 20 40 37 50 37 12 0 18 7 18 18 -2 30 22 136 32 146 16 16 12 24 -19
41 -19 9 -32 11 -36 5 -13 -21 -118 7 -128 34 -9 22 10 20 40 -4 14 -11 32
-20 40 -20 22 0 9 25 -14 28 -16 2 -19 8 -15 24 4 17 2 20 -11 15 -8 -3 -21 1
-27 9 -16 18 -44 19 -37 0 3 -7 8 -33 11 -57 7 -48 -8 -74 -53 -98 -20 -11
-23 -10 -28 8 -7 26 -30 28 -36 4 -4 -13 -5 -12 -6 5 -1 28 22 38 55 23 34
-15 46 -6 32 25 -9 20 -9 30 0 45 10 16 10 21 -3 25 -10 4 -13 13 -10 25 5 16
1 19 -30 19 -47 0 -37 16 15 25 42 7 60 22 41 34 -8 5 -5 16 10 35 12 15 18
30 15 34 -11 10 -61 -22 -61 -40 0 -20 -34 -58 -51 -58 -7 0 -18 8 -23 19 -8
14 -6 23 9 36 18 16 20 17 20 2 0 -10 4 -17 9 -17 10 0 25 69 16 78 -3 3 -21
-10 -40 -28 -39 -38 -42 -36 -20 17 19 45 19 43 -7 40 -19 -2 -24 4 -26 31 -4
42 -19 41 -28 -3z m25 -104 c-14 -47 -31 -52 -47 -16 -15 32 -15 55 -1 55 5 0
7 -5 4 -10 -8 -13 4 -50 16 -50 6 0 7 9 4 21 -4 11 -4 32 0 46 5 23 8 25 21
11 13 -13 14 -22 3 -57z m-65 -36 c19 -14 19 -15 1 -35 -21 -23 -65 -27 -65
-6 0 7 -7 19 -15 26 -8 7 -15 16 -15 21 0 15 73 10 94 -6z m76 -45 c0 -5 -9
-10 -21 -10 -11 0 -17 5 -14 10 3 6 13 10 21 10 8 0 14 -4 14 -10z m44 -17 c4
-9 1 -20 -6 -25 -21 -13 -28 -9 -28 17 0 28 24 34 34 8z m-658 -61 c-12 -11
-17 7 -9 34 l8 29 3 -28 c2 -16 1 -31 -2 -35z m529 28 c3 -5 0 -10 -9 -10 -8
0 -23 -3 -33 -6 -16 -6 -16 -5 2 9 24 19 32 21 40 7z m185 -15 c16 -17 19 -25
9 -25 -15 1 -56 50 -41 50 5 0 19 -11 32 -25z m-750 -36 c0 -21 -4 -39 -8 -39
-5 0 -8 20 -8 44 1 54 16 50 16 -5z m720 2 c0 -11 -5 -10 -20 4 -11 10 -20 22
-20 27 0 4 9 3 20 -4 11 -7 20 -19 20 -27z m-653 4 c-4 -8 -11 -15 -17 -15 -7
0 -7 6 0 21 13 23 26 19 17 -6z m543 -6 c0 -4 -7 -6 -15 -3 -8 4 -15 10 -15
15 0 4 7 6 15 3 8 -4 15 -10 15 -15z m-711 -10 c13 -11 21 -23 17 -26 -4 -4
-19 5 -34 20 -31 31 -19 36 17 6z m731 -29 c6 -10 10 -41 10 -67 -1 -88 0
-107 11 -119 11 -14 -2 -26 -17 -16 -19 13 -44 75 -35 86 13 18 22 66 16 87
-11 34 -23 20 -23 -27 0 -25 -3 -48 -6 -51 -3 -4 -21 9 -40 28 l-35 34 31 32
c36 37 72 43 88 13z m-520 1 c0 -5 -7 -12 -16 -15 -24 -9 -28 -7 -14 9 14 17
30 20 30 6z m331 -27 c4 -13 16 -24 26 -24 20 0 90 -56 81 -65 -7 -8 -61 14
-70 28 -5 9 -10 9 -20 -1 -9 -9 -8 -15 8 -27 18 -13 17 -14 -18 -15 l-38 0 17
35 c16 34 16 36 -5 58 -12 13 -22 28 -22 35 0 19 31 1 41 -24z m429 17 c0 -5
2 -16 5 -24 5 -10 -1 -13 -25 -9 -33 5 -37 11 -18 30 14 14 38 16 38 3z m-618
-44 c-10 -36 -1 -65 25 -80 19 -12 6 -27 -24 -27 -15 0 -38 -13 -60 -35 -31
-31 -35 -40 -30 -70 5 -32 3 -35 -18 -35 -13 0 -30 -3 -39 -6 -11 -4 -16 -1
-16 10 0 10 9 16 25 16 14 0 25 5 25 10 0 6 -9 10 -20 10 -24 0 -24 -1 -5 37
19 39 46 62 81 72 15 4 30 13 32 19 6 18 -45 5 -80 -20 -16 -11 -28 -16 -28
-11 0 15 131 156 138 148 2 -2 -1 -19 -6 -38z m-104 -33 c-34 -33 -64 -74 -74
-100 -19 -50 -22 -49 -41 4 -17 49 -17 70 -1 54 7 -7 22 -12 35 -12 20 0 22 4
19 31 -3 34 -19 49 -53 49 -13 0 -23 4 -23 9 0 8 81 -2 113 -14 13 -5 17 -2
17 14 0 17 6 21 32 21 l33 0 -57 -56z m712 13 c0 -23 -30 -56 -45 -50 -9 3
-22 0 -30 -7 -25 -21 -27 -5 -4 34 16 28 27 36 50 36 17 0 29 -5 29 -13z
m-870 -1 c0 -3 -4 -8 -10 -11 -5 -3 -10 -1 -10 4 0 6 5 11 10 11 6 0 10 -2 10
-4z m761 -11 c26 8 26 10 -21 -47 -22 -27 -40 -22 -40 10 0 32 20 59 31 41 4
-7 16 -8 30 -4z m187 -61 c2 -17 -3 -36 -11 -42 -15 -13 -103 -19 -114 -9 -3
4 -15 0 -25 -10 -10 -9 -21 -14 -23 -11 -3 3 17 22 45 42 27 20 50 40 50 45 0
11 27 20 55 18 15 -2 21 -10 23 -33z m-366 -8 c18 -11 25 -36 11 -36 -5 0 -17
7 -27 15 -22 17 -36 19 -36 7 0 -5 18 -17 40 -28 22 -10 40 -21 40 -24 0 -3
-9 -11 -21 -18 -18 -11 -23 -10 -43 10 -12 13 -26 31 -29 41 -6 15 -10 16 -28
7 -31 -17 -35 -4 -5 15 14 10 23 22 20 27 -8 13 53 0 78 -16z m-655 -38 c46
-5 38 -26 -9 -23 -45 3 -118 -14 -118 -27 0 -5 15 -8 33 -8 50 0 66 -16 23
-24 -19 -4 -38 -11 -41 -17 -4 -6 3 -8 17 -5 52 12 169 16 163 7 -3 -6 -21
-13 -40 -17 -20 -3 -38 -10 -41 -15 -7 -12 23 -11 47 2 11 5 32 9 47 7 l27 -4
-30 -13 c-16 -8 -49 -23 -73 -34 -24 -10 -44 -18 -45 -16 -2 2 -8 16 -14 31
-9 21 -17 25 -35 21 -13 -3 -29 -11 -36 -16 -17 -14 -32 7 -32 45 0 16 -9 33
-21 42 -21 14 -21 14 7 29 16 8 41 17 56 21 15 3 35 18 44 31 16 25 17 25 30
6 8 -11 26 -21 41 -23z m803 8 c0 -3 -4 -8 -10 -11 -5 -3 -10 -1 -10 4 0 6 5
11 10 11 6 0 10 -2 10 -4z m-206 -50 c21 -27 21 -28 2 -41 -14 -11 -24 -11
-38 -4 -19 10 -19 11 -2 30 30 33 5 34 -27 1 -35 -36 -54 -40 -63 -16 -8 21
-10 19 44 43 54 23 58 23 84 -13z m199 -17 c13 -17 22 -39 20 -49 -6 -21 -49
-32 -62 -16 -11 13 -2 96 10 96 4 0 19 -14 32 -31z m164 16 c-2 -5 -14 -10
-27 -10 -18 0 -26 -7 -32 -32 -5 -18 -10 -33 -12 -33 -5 0 -86 77 -86 82 0 2
36 3 80 3 49 0 79 -4 77 -10z m-252 -32 c-3 -21 -10 -41 -13 -45 -11 -11 -95
-13 -99 -3 -3 10 94 84 111 85 4 0 5 -17 1 -37z m-284 -24 c42 -30 35 -40 -16
-23 -36 13 -42 18 -32 29 16 18 14 18 48 -6z m-289 -82 c-40 -81 -60 -106 -82
-102 -40 8 -41 17 -8 40 39 26 88 93 88 119 0 15 3 16 14 7 12 -10 10 -20 -12
-64z m298 16 c0 -8 -14 -13 -38 -13 -36 0 -39 2 -39 29 l0 28 39 -16 c21 -9
38 -22 38 -28z m100 23 c0 -3 -4 -8 -10 -11 -5 -3 -10 -1 -10 4 0 6 5 11 10
11 6 0 10 -2 10 -4z m87 -40 c-4 -9 -13 -13 -21 -10 -12 5 -13 10 -5 26 13 24
35 9 26 -16z m373 -22 c0 -8 -4 -12 -10 -9 -5 3 -10 13 -10 21 0 8 5 12 10 9
6 -3 10 -13 10 -21z m-577 -38 c-26 -24 -45 -48 -40 -52 4 -4 24 9 45 29 21
20 40 37 44 37 10 0 -18 -69 -37 -90 -13 -14 -22 -17 -29 -10 -5 5 -23 10 -38
10 -22 0 -28 4 -28 23 1 29 43 77 69 77 11 0 23 5 26 10 3 6 13 10 22 10 8 0
-6 -19 -34 -44z m244 -22 c-7 -7 -57 18 -57 28 0 5 14 1 31 -7 17 -9 29 -19
26 -21z m3 -38 c0 -8 -4 -18 -10 -21 -5 -3 -10 3 -10 14 0 12 5 21 10 21 6 0
10 -6 10 -14z m-591 -46 c1 -13 0 -13 -9 0 -5 8 -9 24 -9 35 l0 20 9 -20 c5
-11 9 -27 9 -35z m57 0 c8 0 14 -7 14 -15 0 -8 -4 -15 -10 -15 -5 0 -10 -7
-10 -15 0 -13 -4 -14 -20 -5 -20 11 -21 26 -2 85 6 17 7 16 10 -7 2 -16 10
-28 18 -28z m334 -17 c0 -54 30 -173 52 -205 22 -32 22 -38 3 -38 -8 0 -15 3
-15 8 0 4 -28 39 -63 78 -124 141 -136 167 -78 172 18 2 38 -1 44 -7 17 -17
27 -13 27 9 0 11 7 20 15 20 11 0 15 -11 15 -37z m56 2 c5 -20 10 -23 34 -18
22 4 31 0 39 -16 16 -28 29 -26 29 4 0 28 6 39 20 34 12 -5 -60 -201 -76 -207
-6 -2 -15 12 -21 30 -5 18 -16 51 -24 73 -20 56 -30 125 -17 125 5 0 12 -11
16 -25z m274 -3 c0 -4 -9 -13 -20 -20 -27 -17 -25 -37 7 -60 l26 -19 -39 -27
c-44 -30 -59 -33 -50 -10 3 9 4 20 1 25 -7 10 -55 -10 -55 -23 0 -4 -4 -8 -9
-8 -6 0 -2 24 8 53 13 37 27 59 51 75 32 21 80 30 80 14z m-650 -66 c0 -2 -7
-7 -16 -10 -8 -3 -12 -2 -9 4 6 10 25 14 25 6z m420 -226 c0 -5 -7 -10 -15
-10 -8 0 -15 5 -15 10 0 6 7 10 15 10 8 0 15 -4 15 -10z m30 -31 c-7 -11 -14
-18 -17 -15 -8 8 5 36 17 36 7 0 7 -6 0 -21z m20 -29 c-16 -31 -23 -19 -9 16
6 16 13 24 16 17 2 -7 -1 -22 -7 -33z m-397 16 c3 -7 2 -17 -2 -22 -13 -14
-22 -64 -13 -64 5 0 14 11 19 23 11 24 77 70 86 60 10 -9 -5 -33 -19 -33 -9 0
-14 -11 -14 -30 0 -19 -5 -30 -14 -30 -7 0 -25 -9 -39 -20 -14 -11 -39 -20
-57 -20 l-31 0 18 30 c14 24 15 34 6 48 -9 14 -6 22 16 44 30 31 37 34 44 14z
m333 -23 c-10 -10 -19 5 -10 18 6 11 8 11 12 0 2 -7 1 -15 -2 -18z m96 5 c-7
-7 -12 -8 -12 -2 0 14 12 26 19 19 2 -3 -1 -11 -7 -17z m60 0 c-7 -7 -12 -8
-12 -2 0 14 12 26 19 19 2 -3 -1 -11 -7 -17z m-307 -24 c19 7 20 -8 1 -23 -10
-8 -16 -9 -21 -1 -10 16 -37 12 -62 -12 -19 -18 -23 -19 -23 -5 0 18 38 61 60
69 9 3 18 -3 23 -15 4 -11 13 -17 22 -13z m349 -18 c-16 -14 -33 -26 -38 -26
-5 0 5 13 24 30 18 16 35 28 38 25 2 -2 -9 -15 -24 -29z m-173 -33 c-4 -15
-12 -28 -18 -30 -9 -3 -9 4 0 26 14 38 28 41 18 4z m69 7 c0 -5 -7 -7 -15 -4
-9 4 -15 0 -15 -9 0 -9 -4 -19 -10 -22 -6 -4 -10 5 -10 19 0 21 5 26 25 26 14
0 25 -4 25 -10z m-531 -342 c68 -65 106 -112 55 -68 -16 13 -36 31 -44 40 -8
8 -32 28 -52 44 -35 26 -48 46 -31 46 3 0 36 -28 72 -62z m308 -53 c-1 -13 -8
-3 -20 29 -24 69 -21 103 4 41 10 -27 18 -59 16 -70z m190 -7 c-3 -7 -5 -2 -5
12 0 14 2 19 5 13 2 -7 2 -19 0 -25z m-717 -30 c0 -25 -3 -29 -10 -18 -13 20
-13 50 0 50 6 0 10 -15 10 -32z m36 5 c-10 -10 -19 5 -10 18 6 11 8 11 12 0 2
-7 1 -15 -2 -18z m349 -74 c34 -36 36 -39 10 -22 -40 28 -97 90 -70 75 11 -6
38 -30 60 -53z m313 36 c-6 -14 -13 -23 -15 -21 -5 5 15 46 22 46 3 0 -1 -11
-7 -25z m-748 -21 c0 -8 -4 -12 -10 -9 -5 3 -10 10 -10 16 0 5 5 9 10 9 6 0
10 -7 10 -16z m650 -111 c1 -4 -3 -9 -9 -11 -6 -2 -11 4 -11 13 0 9 -6 28 -14
43 -7 15 -16 41 -20 57 -3 17 7 3 24 -33 16 -34 30 -66 30 -69z m-680 97 c0
-5 -2 -10 -4 -10 -3 0 -8 5 -11 10 -3 6 -1 10 4 10 6 0 11 -4 11 -10z m330
-10 c0 -20 -34 -53 -43 -43 -10 10 -8 38 3 49 16 16 40 13 40 -6z m-149 -32
c-4 -35 -6 -38 -9 -15 -3 26 3 57 10 57 2 0 1 -19 -1 -42z m34 -2 c0 -24 -3
-42 -7 -39 -14 8 -8 83 6 83 1 0 1 -20 1 -44z m137 22 c-7 -7 -12 -8 -12 -2 0
6 3 14 7 17 3 4 9 5 12 2 2 -3 -1 -11 -7 -17z m397 -22 c-9 -34 -32 -56 -45
-43 -5 5 48 87 53 83 1 -1 -2 -19 -8 -40z m226 34 c-3 -5 -11 -10 -16 -10 -6
0 -7 5 -4 10 3 6 11 10 16 10 6 0 7 -4 4 -10z m-1000 -10 c3 -5 1 -10 -4 -10
-6 0 -11 5 -11 10 0 6 2 10 4 10 3 0 8 -4 11 -10z m119 -62 c5 -41 4 -58 -4
-58 -6 0 -9 4 -6 9 3 5 2 29 -3 55 -4 25 -6 48 -3 51 8 8 9 5 16 -57z m143 25
c-3 -10 -5 -4 -5 12 0 17 2 24 5 18 2 -7 2 -21 0 -30z m617 22 c-6 -16 -24
-21 -24 -7 0 11 11 22 21 22 5 0 6 -7 3 -15z m-795 -37 c-1 -42 -1 -42 -10
-13 -5 17 -7 36 -4 43 9 24 15 11 14 -30z m881 22 c-6 -11 -16 -20 -22 -20 -6
0 -3 9 7 20 10 11 20 20 22 20 2 0 -1 -9 -7 -20z m36 -5 c-9 -9 -16 -13 -16
-8 0 12 22 34 28 28 2 -2 -3 -11 -12 -20z m-950 -9 c0 -13 -4 -22 -8 -19 -11
6 -10 43 1 43 5 0 8 -11 7 -24z m241 -13 c-3 -10 -5 -4 -5 12 0 17 2 24 5 18
2 -7 2 -21 0 -30z m-267 -6 c0 -5 -4 -5 -10 -2 -5 3 -10 14 -10 23 0 15 2 15
10 2 5 -8 10 -19 10 -23z m117 -4 c-3 -10 -5 -4 -5 12 0 17 2 24 5 18 2 -7 2
-21 0 -30z m38 7 c3 -5 1 -10 -4 -10 -6 0 -11 5 -11 10 0 6 2 10 4 10 3 0 8
-4 11 -10z m558 -47 c-19 -7 -16 -23 4 -23 24 0 7 -13 -22 -16 -13 -1 -28 2
-31 8 -8 13 23 38 45 37 11 0 12 -2 4 -6z m70 -37 c4 4 7 -2 7 -14 0 -26 -7
-27 -31 -6 -10 9 -15 23 -11 36 5 20 5 20 17 -1 6 -12 14 -18 18 -15z m27 30
c0 -3 -4 -8 -10 -11 -5 -3 -10 -1 -10 4 0 6 5 11 10 11 6 0 10 -2 10 -4z
m-167 -30 c6 -15 -1 -26 -15 -26 -4 0 -8 9 -8 20 0 23 15 27 23 6z m227 -52
c0 -16 -16 -19 -25 -4 -8 13 4 32 16 25 5 -4 9 -13 9 -21z"/>
</g>
</svg>
