<?xml version="1.0" standalone="no"?>
<!DOCTYPE svg PUBLIC "-//W3C//DTD SVG 20010904//EN"
 "http://www.w3.org/TR/2001/REC-SVG-20010904/DTD/svg10.dtd">
<svg version="1.0" xmlns="http://www.w3.org/2000/svg"
 width="215.000000pt" height="268.000000pt" viewBox="0 0 215.000000 268.000000"
 preserveAspectRatio="xMidYMid meet">

<g transform="translate(0.000000,268.000000) scale(0.100000,-0.100000)"
fill="#e6d889" stroke="none">
<path d="M1274 2619 c-14 -15 -26 -19 -47 -15 -46 9 -117 -13 -129 -40 -11
-24 -42 -32 -52 -15 -3 4 -28 11 -56 15 -43 6 -58 3 -111 -24 -73 -36 -177
-123 -185 -155 -3 -12 -24 -35 -46 -51 -93 -67 -106 -83 -118 -140 -14 -68
-10 -79 37 -101 37 -18 38 -20 43 -80 7 -88 44 -124 133 -132 4 -1 11 -10 15
-20 8 -22 150 -185 262 -302 42 -44 83 -94 92 -112 53 -103 81 -188 90 -275 4
-32 22 -28 26 5 2 15 9 31 15 35 8 5 5 8 -7 8 -15 0 -17 7 -14 45 2 25 1 45
-2 45 -11 0 -26 68 -19 86 7 17 8 17 10 2 1 -10 2 -22 3 -28 2 -17 20 -13 27
7 6 14 8 11 8 -11 1 -27 2 -28 19 -13 10 9 19 33 20 54 4 59 12 52 12 -10 0
-31 -5 -59 -10 -62 -5 -3 -11 -25 -11 -48 -1 -23 -4 -32 -6 -20 -5 28 -23 30
-23 4 0 -25 29 -54 47 -47 12 5 14 -5 10 -62 -3 -37 -6 -69 -6 -72 -1 -3 -6 2
-12 10 -8 11 -9 0 -5 -40 3 -30 8 -65 12 -77 5 -17 2 -23 -10 -23 -9 0 -16 -6
-16 -14 0 -8 -5 -16 -11 -18 -7 -2 -13 -32 -15 -68 -3 -61 -2 -63 8 -30 7 19
17 39 22 43 8 6 7 10 -1 14 -18 7 -16 30 2 37 12 4 15 -3 15 -33 0 -22 -4 -41
-9 -43 -5 -1 -12 -25 -15 -53 l-6 -50 15 30 16 30 -6 -40 c-4 -22 -9 -53 -12
-70 -8 -53 -13 -62 -23 -45 -8 13 -10 12 -10 -2 0 -10 5 -18 10 -18 6 0 3 -11
-6 -25 -9 -14 -14 -28 -11 -31 7 -7 -29 -44 -43 -44 -5 0 -10 -4 -10 -9 0 -15
-42 -83 -47 -77 -5 4 46 106 58 116 3 3 6 12 7 20 1 8 4 53 8 99 5 65 4 83 -5
80 -8 -3 -14 -31 -17 -74 -6 -103 -60 -233 -91 -221 -8 3 -17 6 -20 6 -3 0 1
7 8 16 12 15 10 16 -20 9 -38 -8 -36 10 3 25 13 5 15 9 6 9 -12 1 -15 10 -12
42 6 63 -21 124 -66 144 -50 23 -88 69 -101 121 -22 88 -11 113 50 111 50 -1
93 35 113 97 20 61 20 79 -1 119 -22 43 -37 53 -110 73 -54 15 -73 15 -134 5
-40 -6 -95 -21 -123 -32 -28 -12 -61 -25 -73 -29 -36 -15 -103 -81 -119 -118
-18 -44 -18 -62 3 -113 21 -53 61 -72 119 -58 55 14 113 -10 107 -43 -2 -13 2
-39 11 -58 15 -35 20 -42 96 -115 38 -37 41 -42 38 -89 -4 -60 -32 -86 -97
-89 -34 -2 -50 -9 -78 -36 -22 -22 -31 -37 -24 -44 5 -5 7 -16 4 -24 -5 -11
-9 -11 -24 3 -11 9 -19 25 -19 36 0 24 -13 23 -25 -3 -10 -21 -61 -31 -145
-31 -14 0 -29 -3 -35 -8 -10 -7 -54 -7 -84 1 -8 2 -16 -3 -18 -12 -2 -10 2
-17 9 -16 44 1 70 -6 89 -25 l22 -23 -7 28 c-6 25 -4 27 26 28 50 3 61 5 80
13 11 5 23 2 33 -8 19 -18 31 -20 40 -6 3 6 11 10 16 10 6 0 7 -4 4 -10 -4 -6
7 -10 27 -10 41 -1 21 -15 -34 -25 -31 -6 -38 -4 -38 9 0 23 -22 20 -54 -8
l-28 -23 25 -7 c14 -3 47 -2 73 3 35 7 51 6 56 -2 5 -8 9 -6 14 6 8 22 30 22
43 0 7 -14 12 -15 25 -4 8 7 20 10 26 6 5 -3 15 -3 22 1 7 5 29 9 49 10 31 2
38 -2 43 -19 10 -36 7 -38 -26 -17 -41 25 -52 25 -46 2 4 -15 1 -18 -20 -14
-19 4 -24 1 -20 -10 4 -9 -5 -21 -23 -32 -32 -19 -59 -16 -59 6 0 16 -67 54
-77 44 -4 -4 -1 -11 7 -16 13 -8 12 -10 -2 -10 -10 0 -18 -4 -18 -9 0 -24 -43
-22 -79 3 -20 14 -42 26 -49 26 -17 0 -15 -20 3 -26 22 -9 18 -24 -5 -24 -11
0 -20 -4 -20 -10 0 -5 9 -10 19 -10 11 0 23 -5 26 -10 9 -15 25 -12 25 5 0 21
16 19 38 -5 18 -19 52 -19 52 0 0 12 39 19 46 9 3 -5 10 -6 16 -3 6 4 8 -1 3
-15 -5 -18 -2 -21 25 -21 17 0 29 4 25 9 -6 11 32 26 54 22 9 -2 12 3 8 13 -4
9 -3 16 2 16 15 0 33 -29 28 -44 -3 -8 2 -21 12 -30 31 -28 57 -16 29 13 -11
10 -10 11 5 6 12 -5 17 -2 17 10 0 9 7 16 18 14 45 -4 62 1 62 21 0 12 5 17
14 14 8 -3 23 5 35 17 19 20 21 21 21 5 0 -14 5 -17 24 -12 15 4 26 1 29 -7 2
-6 8 -9 12 -5 4 4 3 14 -4 21 -6 8 -9 21 -6 29 4 9 -1 18 -10 22 -9 3 -13 11
-10 16 5 8 11 8 20 0 9 -7 15 -8 19 -1 10 16 35 1 29 -16 -5 -13 0 -14 27 -8
28 6 32 5 27 -9 -7 -17 8 -23 17 -7 3 5 18 11 33 14 26 5 26 4 8 -9 -10 -8
-22 -14 -27 -14 -4 0 -8 -4 -8 -10 0 -5 12 -10 27 -10 42 0 13 -22 -35 -26
-43 -4 -112 -30 -112 -42 0 -16 13 -22 26 -11 10 9 15 7 20 -5 3 -9 15 -16 25
-16 23 0 25 15 4 24 -8 3 -15 10 -15 16 0 13 73 13 87 -1 6 -6 21 -8 34 -4 20
7 20 8 5 17 -21 12 -11 29 12 22 77 -25 95 -44 42 -44 -16 0 -30 -4 -30 -9 0
-11 58 -23 74 -15 6 3 3 -1 -6 -9 -22 -17 -23 -47 -3 -47 8 0 15 6 15 14 0 8
12 16 28 18 l27 4 -25 11 -25 12 24 0 c13 1 34 -10 48 -25 18 -20 30 -24 48
-20 14 4 25 2 25 -4 0 -5 7 -10 15 -10 16 0 20 18 7 36 -4 5 -24 11 -46 12
-21 2 -44 9 -52 17 -8 7 -26 16 -42 19 -34 8 -63 46 -34 46 10 0 23 -5 29 -11
9 -9 18 -5 36 16 15 18 28 25 36 21 9 -6 3 -16 -21 -37 -23 -20 -28 -28 -16
-29 9 0 24 -3 34 -7 13 -5 16 -3 11 9 -6 18 30 32 57 22 9 -3 22 -2 29 4 6 5
28 9 47 9 19 0 29 -2 22 -4 -28 -10 -10 -28 29 -30 51 -1 78 -22 34 -25 -17
-1 -39 -3 -50 -4 -11 -1 -27 -3 -35 -3 -8 -1 -24 -8 -34 -16 -20 -15 -20 -15
0 -30 26 -20 34 -19 34 5 0 23 3 23 129 20 73 -2 83 0 78 14 -9 24 20 20 33
-4 14 -25 90 -29 90 -5 0 20 20 18 50 -5 14 -11 31 -20 38 -20 26 0 5 23 -42
48 -42 22 -50 24 -60 11 -14 -19 -46 -32 -46 -19 0 14 -58 42 -79 38 -10 -2
-25 3 -35 11 -15 13 -14 15 11 28 18 9 30 10 37 3 18 -18 28 -11 24 15 -4 20
-2 25 11 21 61 -17 84 -18 78 -3 -3 8 0 18 8 20 20 8 26 -4 10 -20 -19 -18
-19 -33 -1 -33 8 0 18 9 21 20 8 26 19 25 45 -2 11 -12 23 -19 26 -15 4 4 -1
16 -11 27 -18 19 -17 20 6 21 l24 0 -23 10 c-13 5 -27 7 -31 5 -8 -5 -68 14
-91 29 -8 5 -26 11 -40 12 -14 1 -40 5 -57 9 -27 5 -33 3 -33 -10 0 -20 -19
-20 -44 -1 -17 13 -18 15 -3 15 9 0 17 5 17 11 0 7 -15 10 -41 7 l-41 -4 26
23 c31 26 34 38 7 23 -11 -5 -28 -10 -39 -10 -11 0 -25 -7 -32 -15 -11 -13
-15 -13 -22 -3 -5 9 -10 10 -15 2 -5 -6 -19 -10 -33 -10 -14 0 -36 -4 -50 -8
-24 -7 -24 -6 -6 8 25 20 12 34 -16 17 -22 -14 -22 -16 -2 34 11 27 -15 16
-30 -12 l-15 -28 -1 33 c0 39 -17 42 -50 7 -39 -42 -103 -27 -64 16 19 21 34
25 34 9 0 -5 -7 -10 -16 -10 -8 0 -12 -4 -9 -10 10 -15 25 -12 32 7 4 10 11
21 16 25 11 7 -15 38 -31 38 -5 0 -21 -14 -35 -30 -15 -17 -31 -30 -36 -30
-10 0 -9 39 2 56 13 21 36 100 40 134 2 20 7 41 11 48 4 7 12 68 16 135 34
474 37 490 102 586 43 63 147 263 172 332 24 65 100 139 143 139 59 0 124 54
139 116 4 15 18 43 31 62 12 19 23 46 23 59 0 31 -30 83 -47 83 -19 0 -16 -10
9 -37 26 -28 17 -40 -17 -25 -14 7 -38 12 -53 11 -25 -1 -25 -2 8 -13 19 -6
44 -16 54 -22 17 -11 17 -11 -8 -11 -14 0 -29 3 -32 8 -9 16 -37 10 -30 -6 7
-18 -15 -20 -32 -3 -8 8 -12 8 -12 1 0 -11 -41 -10 -59 2 -6 3 -11 2 -11 -2 0
-5 -10 -13 -22 -18 -13 -6 -22 -18 -22 -28 1 -13 -4 -16 -25 -11 -14 3 -38 15
-53 25 -15 10 -34 19 -42 19 -9 0 -20 9 -26 20 -9 17 -8 20 9 20 15 0 19 -5
14 -17 -5 -12 -2 -15 10 -10 9 3 17 2 17 -3 0 -6 5 -10 11 -10 6 0 9 7 5 15
-3 9 0 15 9 15 26 0 95 24 95 34 0 4 -10 5 -22 1 -13 -4 -36 -9 -53 -11 -28
-4 -29 -4 -7 7 23 13 30 29 11 29 -6 0 -19 -5 -30 -10 -13 -7 -19 -7 -19 0 0
17 -26 11 -45 -10 -10 -11 -23 -20 -29 -20 -6 0 6 16 27 36 41 41 42 56 2 30
-15 -10 -34 -15 -42 -12 -13 5 -14 4 -3 -9 11 -13 10 -18 -6 -30 -19 -15 -19
-15 1 -31 19 -16 19 -16 -5 -8 -14 4 -33 7 -43 6 -16 -1 -17 1 -5 16 7 9 17
20 23 24 5 4 -2 11 -15 16 -22 9 -23 11 -7 17 9 4 17 14 17 23 0 12 -3 13 -11
5 -9 -9 -16 -6 -29 9 -9 12 -22 18 -28 14 -9 -5 -8 -11 2 -22 11 -11 12 -20 3
-44 -9 -23 -13 -27 -20 -15 -4 8 -5 20 -1 26 4 7 0 9 -13 5 -16 -5 -24 1 -36
26 -14 28 -17 30 -17 11 0 -13 -5 -23 -11 -23 -7 0 -9 11 -6 27 6 30 -1 53
-14 53 -5 0 -9 -8 -9 -19 0 -28 -41 -35 -60 -11 -13 17 -18 18 -29 8 -11 -11
-12 -9 -6 12 4 14 10 31 13 39 4 9 1 12 -7 7 -7 -5 -28 7 -51 28 -33 30 -47
36 -80 34 -23 -1 -46 4 -52 10 -15 15 -28 15 -28 2 0 -5 5 -10 11 -10 16 0
108 -62 113 -77 3 -7 -19 1 -48 17 -60 34 -95 40 -56 10 27 -21 12 -27 -23 -8
-21 11 -127 37 -154 38 -7 0 -13 -5 -13 -11 0 -5 3 -8 8 -6 4 3 16 1 27 -4 13
-5 -9 -8 -59 -8 -63 -1 -81 -5 -92 -18 -7 -10 -16 -14 -21 -10 -4 5 -1 14 8
20 9 7 23 26 32 43 9 17 33 44 54 60 21 15 46 36 55 44 59 54 166 76 223 46
33 -17 48 -13 65 20 16 29 64 44 117 37 30 -4 42 -1 57 16 28 31 69 27 100
-10 14 -17 27 -43 28 -57 0 -15 2 -38 2 -52 4 -68 34 -65 77 7 44 74 86 103
151 103 26 0 57 -5 68 -12 25 -16 37 -3 16 18 -13 13 -31 15 -85 12 -83 -4
-126 -32 -171 -111 l-30 -52 0 35 c0 61 -19 108 -54 135 -40 31 -86 32 -112 4z
m-150 -274 c15 -14 31 -25 37 -25 5 0 9 -4 9 -10 0 -5 -4 -10 -8 -10 -13 0
-88 69 -76 70 6 0 23 -11 38 -25z m-221 -12 c-7 -2 -19 -2 -25 0 -7 3 -2 5 12
5 14 0 19 -2 13 -5z m-57 -28 c-3 -8 0 -16 7 -17 7 0 -40 -4 -103 -8 -113 -7
-150 -15 -150 -30 0 -4 21 -3 48 2 88 17 292 8 292 -14 0 -6 -8 -7 -17 -3 -10
4 -67 9 -128 10 -95 2 -119 -1 -173 -21 -34 -13 -64 -24 -67 -24 -2 0 1 13 6
29 17 50 53 66 149 68 122 2 131 3 100 13 -23 7 -23 8 9 9 26 1 32 -2 27 -14z
m51 -1 c-3 -3 -12 -4 -19 -1 -8 3 -5 6 6 6 11 1 17 -2 13 -5z m-37 -83 c17 -5
-9 -10 -76 -14 -56 -4 -117 -13 -135 -20 -19 -8 -42 -17 -52 -20 -17 -6 -17
-7 0 -25 18 -18 23 -18 93 6 9 3 4 7 -15 11 -18 4 -25 9 -18 14 19 12 246 19
278 9 22 -8 9 -9 -51 -5 -84 6 -174 -2 -174 -16 0 -4 47 -6 104 -4 68 3 106 1
111 -6 4 -8 -23 -11 -87 -12 -51 0 -109 -6 -128 -14 -32 -12 -28 -13 60 -10
52 2 82 1 67 -1 -17 -3 -32 -15 -39 -30 -6 -13 -19 -24 -29 -24 -23 0 -81 -34
-73 -43 3 -3 12 -3 20 0 11 4 11 -1 -1 -31 -8 -20 -11 -36 -6 -36 5 0 14 14
21 31 15 34 36 59 51 59 6 0 1 -12 -10 -26 -12 -15 -21 -33 -21 -40 0 -8 -4
-14 -10 -14 -5 0 -10 -5 -10 -12 0 -6 11 -1 24 11 17 16 32 22 48 18 17 -4 28
1 42 20 17 23 17 26 3 20 -20 -7 -22 4 -5 21 18 18 -3 14 -23 -4 -13 -12 -17
-12 -15 -2 5 31 28 58 49 58 17 0 19 -2 7 -10 -18 -11 -13 -16 29 -25 29 -6
33 -5 27 10 -4 11 -2 15 6 12 7 -2 12 -15 11 -28 -1 -13 1 -18 3 -11 3 6 13
12 22 12 13 -1 10 -6 -10 -23 -32 -26 -73 -85 -93 -134 -23 -55 -11 -50 20 8
42 80 76 120 93 107 9 -8 16 -8 24 0 9 9 9 12 -1 12 -7 0 -9 4 -6 10 4 6 11 5
20 -3 11 -10 10 -16 -10 -37 -32 -35 -67 -108 -55 -115 6 -3 10 0 10 8 0 25
30 75 60 101 29 24 33 56 7 56 -7 0 -7 4 1 12 10 10 15 10 21 -1 6 -9 11 -10
15 -2 4 6 12 11 18 11 6 0 3 -9 -7 -20 -10 -11 -15 -20 -11 -20 4 0 -2 -12
-13 -27 -32 -40 -16 -40 22 1 48 50 67 45 23 -6 -20 -23 -33 -44 -30 -47 3 -3
16 7 28 22 32 40 76 67 109 67 24 0 26 3 18 19 -13 23 -3 35 17 19 8 -7 46
-13 85 -14 50 0 73 -5 81 -16 6 -8 25 -17 41 -21 66 -12 90 -19 102 -29 9 -7
13 -7 13 2 0 6 -13 17 -29 23 -16 6 -32 19 -34 28 -4 15 -1 16 22 7 14 -5 47
-7 73 -4 26 4 55 2 65 -3 53 -27 73 -33 87 -28 10 4 16 1 16 -7 0 -8 10 -21
23 -30 15 -11 8 -10 -20 4 -46 22 -78 26 -88 10 -4 -6 -11 -8 -16 -5 -5 4 -9
2 -9 -3 0 -12 -52 -34 -70 -30 -8 2 -15 -6 -17 -17 -1 -11 0 -14 3 -7 9 19 30
14 47 -10 13 -18 18 -20 25 -9 7 9 12 10 16 2 4 -6 2 -11 -4 -11 -7 0 -9 -7
-6 -16 5 -14 4 -15 -9 -4 -8 7 -27 10 -42 7 -26 -5 -26 -4 -8 9 18 14 18 14
-2 14 -13 0 -23 -8 -26 -22 -8 -28 1 -42 18 -28 9 8 17 4 30 -17 17 -25 19
-26 25 -8 6 17 7 17 13 1 5 -12 0 -19 -16 -25 -17 -7 -24 -4 -29 10 -10 25
-21 25 -13 0 4 -15 -1 -20 -27 -25 -64 -12 -100 4 -138 60 -14 22 -34 40 -44
42 -25 5 -55 -25 -62 -64 -3 -18 -17 -42 -30 -55 -20 -18 -28 -20 -47 -12 -17
8 -29 7 -48 -3 -50 -27 -126 -8 -135 34 -3 15 -7 37 -10 50 -6 30 -28 28 -73
-9 -35 -28 -42 -30 -92 -23 -60 7 -84 23 -93 60 -5 17 -16 26 -36 31 -17 3
-30 12 -30 20 0 13 -3 13 -15 3 -23 -19 -27 -7 -10 33 19 45 11 48 -14 6 -11
-18 -21 -26 -26 -20 -3 6 3 25 15 41 12 17 17 30 11 30 -5 0 -17 -10 -26 -22
l-17 -23 5 30 c7 43 -15 90 -52 106 -44 20 -43 58 2 82 51 28 219 45 277 28z
m135 -1 c8 -13 -5 -13 -25 0 -13 8 -13 10 2 10 9 0 20 -4 23 -10z m-48 -16
c-3 -3 -12 -4 -19 -1 -8 3 -5 6 6 6 11 1 17 -2 13 -5z m107 -9 c11 -8 15 -15
10 -15 -6 0 -19 7 -30 15 -10 8 -14 14 -9 14 6 0 19 -6 29 -14z m258 -77 c-26
-10 -42 -9 -42 3 0 5 5 7 10 4 6 -4 10 6 10 22 l0 28 20 -25 c17 -23 18 -26 2
-32z m38 42 c0 -5 -4 -10 -10 -10 -5 0 -10 5 -10 10 0 6 5 10 10 10 6 0 10 -4
10 -10z m60 -26 c0 -2 -15 -4 -32 -4 -23 0 -29 3 -19 9 12 8 51 4 51 -5z
m-162 1 c-11 -11 -68 -23 -68 -15 0 5 12 11 28 13 15 2 31 5 36 6 5 0 7 -1 4
-4z m-107 -16 c-16 -6 -28 -6 -35 1 -7 7 1 10 25 9 32 0 33 -1 10 -10z m619
-79 c8 -5 11 -10 5 -10 -5 0 -17 5 -25 10 -8 5 -10 10 -5 10 6 0 17 -5 25 -10z
m-970 -40 c0 -5 -5 -10 -11 -10 -5 0 -7 5 -4 10 3 6 8 10 11 10 2 0 4 -4 4
-10z m845 -50 c3 -5 1 -10 -4 -10 -6 0 -11 5 -11 10 0 6 2 10 4 10 3 0 8 -4
11 -10z m70 -4 c0 0 9 -12 20 -25 l20 -24 -26 17 c-14 9 -33 14 -40 11 -10 -4
-15 1 -15 15 0 15 5 19 21 14 11 -4 20 -7 20 -8z m155 4 c0 -5 -2 -10 -4 -10
-3 0 -8 5 -11 10 -3 6 -1 10 4 10 6 0 11 -4 11 -10z m-76 -49 c-2 -3 -12 3
-22 13 -16 17 -16 18 5 5 12 -7 20 -15 17 -18z m-94 -32 c0 -6 -4 -7 -10 -4
-5 3 -10 11 -10 16 0 6 5 7 10 4 6 -3 10 -11 10 -16z m-25 -19 c3 -5 2 -10 -4
-10 -5 0 -13 5 -16 10 -3 6 -2 10 4 10 5 0 13 -4 16 -10z m-648 -32 c-3 -7 -5
-2 -5 12 0 14 2 19 5 13 2 -7 2 -19 0 -25z m48 -108 c7 -24 7 -24 -9 -5 -8 11
-15 29 -15 40 0 16 1 17 8 5 5 -8 12 -26 16 -40z m-31 -10 c-6 -5 -24 21 -24
34 0 6 6 1 14 -10 8 -10 12 -21 10 -24z m170 15 c4 -14 2 -33 -3 -43 -9 -15
-10 -14 -11 6 0 13 -5 32 -10 43 -8 15 -7 19 4 19 7 0 17 -11 20 -25z m61 -15
c4 -21 4 -47 1 -58 -3 -10 -2 -40 3 -67 9 -49 0 -72 -22 -58 -5 3 -4 9 3 13 8
5 10 18 6 36 -11 50 -15 174 -6 174 4 0 11 -18 15 -40z m-125 -12 c0 -35 -12
-30 -17 7 -2 14 1 25 7 25 5 0 10 -14 10 -32z m-17 -58 c3 -11 1 -20 -4 -20
-5 0 -9 4 -9 9 0 5 -3 17 -7 27 -4 11 -3 15 4 11 6 -4 13 -16 16 -27z m-73
-24 c0 -6 -7 -1 -15 10 -8 10 -15 23 -15 28 0 6 7 1 15 -10 8 -10 15 -23 15
-28z m-44 17 c16 -21 18 -37 4 -28 -13 8 -33 45 -24 45 4 0 13 -8 20 -17z
m326 -76 c-7 -28 -15 -11 -18 40 l-3 48 12 -35 c7 -19 11 -43 9 -53z m-132 5
c0 -12 -3 -12 -15 -2 -8 7 -15 22 -15 34 1 21 1 21 15 2 8 -11 15 -26 15 -34z
m-90 28 c0 -5 -4 -10 -10 -10 -5 0 -10 5 -10 10 0 6 5 10 10 10 6 0 10 -4 10
-10z m-31 -30 c11 -24 11 -24 -3 -6 -9 11 -16 24 -16 30 0 12 5 7 19 -24z m61
-54 c0 -5 -7 -3 -15 4 -8 7 -15 20 -15 28 0 13 3 12 15 -4 8 -10 15 -23 15
-28z m142 -5 c-5 -3 -12 -17 -15 -31 -4 -22 -4 -22 -6 6 -1 33 6 47 21 37 7
-3 6 -8 0 -12z m128 -17 c0 -8 -5 -12 -10 -9 -6 4 -8 11 -5 16 9 14 15 11 15
-7z m-232 -51 c-15 -18 -21 -9 -13 18 6 16 9 18 16 8 4 -8 3 -19 -3 -26z
m-199 -221 c20 -10 36 -25 36 -33 0 -8 6 -24 13 -37 12 -20 11 -26 -1 -40 -8
-9 -13 -30 -11 -45 2 -23 0 -26 -10 -17 -10 8 -15 7 -20 -5 -3 -9 -2 -13 4
-10 16 10 12 -7 -7 -27 -18 -20 -39 -24 -45 -8 -5 17 -66 0 -64 -18 2 -29 -62
-62 -120 -62 -55 0 -73 15 -30 26 26 6 47 39 43 68 -1 14 7 22 30 28 17 4 34
17 38 27 3 11 12 22 20 25 19 7 19 36 1 36 -8 0 -17 -4 -20 -9 -3 -5 -28 -8
-55 -8 -53 1 -81 -14 -81 -44 0 -10 -4 -20 -8 -23 -4 -3 -14 -28 -22 -55 -13
-49 -23 -61 -34 -42 -3 5 4 20 15 35 12 16 16 26 8 26 -17 0 -38 -31 -39 -57
0 -13 -4 -23 -10 -23 -26 0 -2 58 40 96 23 21 24 23 7 30 -10 3 -29 2 -42 -4
-20 -9 -23 -9 -18 3 3 8 9 15 14 15 5 0 9 9 9 20 0 14 -5 18 -17 13 -16 -6
-16 -5 -5 10 8 9 28 18 45 20 29 4 30 5 10 12 -32 11 -28 30 10 54 80 49 242
61 316 23z m-364 -72 c-3 -5 -11 -10 -16 -10 -6 0 -7 5 -4 10 3 6 11 10 16 10
6 0 7 -4 4 -10z m125 -104 c0 -3 -4 -8 -10 -11 -5 -3 -10 -1 -10 4 0 6 5 11
10 11 6 0 10 -2 10 -4z m-153 -44 c-8 -10 -12 -10 -17 -1 -5 7 -13 8 -21 4 -8
-5 -6 1 5 13 14 16 21 18 31 9 9 -9 10 -16 2 -25z m157 3 c-4 -8 -11 -15 -16
-15 -6 0 -5 6 2 15 7 8 14 15 16 15 2 0 1 -7 -2 -15z m-177 -67 c-3 -8 -6 -5
-6 6 -1 11 2 17 5 13 3 -3 4 -12 1 -19z m279 -183 c15 -13 25 -27 21 -31 -8
-8 -57 34 -57 48 0 12 4 10 36 -17z m108 -49 c-7 -19 -50 -47 -58 -39 -11 12
-6 25 8 20 8 -3 22 3 32 14 20 23 25 24 18 5z m356 -16 c0 -11 -4 -20 -10 -20
-5 0 -10 9 -10 20 0 11 5 20 10 20 6 0 10 -9 10 -20z m-342 -47 c1 -29 8 -52
17 -59 19 -14 19 -24 -1 -24 -8 0 -12 -4 -9 -10 3 -5 0 -10 -7 -10 -7 -1 -24
-14 -38 -30 -15 -19 -33 -30 -50 -30 -24 1 -24 1 -6 15 73 56 78 63 72 125 -2
32 -2 61 1 64 14 14 20 3 21 -41z m-61 -50 c-3 -10 -5 -2 -5 17 0 19 2 27 5
18 2 -10 2 -26 0 -35z m-12 -64 c-10 -15 -25 -10 -19 6 4 8 10 12 15 9 5 -3 7
-10 4 -15z m298 -24 c-3 -9 -8 -14 -10 -11 -3 3 -2 9 2 15 9 16 15 13 8 -4z
m-363 -29 c0 -2 -11 -11 -25 -20 -14 -9 -25 -12 -25 -6 0 6 10 15 23 20 27 11
27 11 27 6z m373 -11 c-3 -9 -8 -14 -10 -11 -3 3 -2 9 2 15 9 16 15 13 8 -4z
m-113 -5 c0 -5 -7 -7 -15 -4 -8 4 -15 8 -15 10 0 2 7 4 15 4 8 0 15 -4 15 -10z
m-347 -20 c-3 -11 -10 -23 -16 -27 -5 -3 -8 -2 -5 3 3 5 8 17 11 27 9 24 16
22 10 -3z m418 -13 c-8 -8 -11 -7 -11 4 0 20 13 34 18 19 3 -7 -1 -17 -7 -23z
m69 -17 c0 -5 -5 -10 -11 -10 -5 0 -7 5 -4 10 3 6 8 10 11 10 2 0 4 -4 4 -10z
m-95 -27 c-22 -15 -69 -18 -60 -3 3 6 15 10 25 10 10 0 22 5 25 10 4 6 11 7
17 4 7 -5 4 -12 -7 -21z m325 -5 c0 -11 -14 -10 -47 4 l-28 11 30 7 c28 5 44
-3 45 -22z m-714 -25 c-7 -7 -26 7 -26 19 0 6 6 6 15 -2 9 -7 13 -15 11 -17z
m185 12 c1 -17 -18 -17 -25 0 -4 11 -1 15 10 13 8 -2 15 -7 15 -13z m704 -15
c-3 -5 -13 -10 -21 -10 -8 0 -14 5 -14 10 0 6 9 10 21 10 11 0 17 -4 14 -10z
m82 4 c-3 -3 -12 -4 -19 -1 -8 3 -5 6 6 6 11 1 17 -2 13 -5z m201 -39 c-11
-11 -37 7 -31 22 5 13 8 13 21 -1 9 -9 13 -18 10 -21z m-498 10 c0 -8 -4 -15
-10 -15 -5 0 -10 7 -10 15 0 8 5 15 10 15 6 0 10 -7 10 -15z m-130 -26 c0 -5
-4 -9 -10 -9 -5 0 -10 7 -10 16 0 8 5 12 10 9 6 -3 10 -10 10 -16z m294 6 c5
0 11 -6 13 -12 4 -10 -3 -10 -26 -2 -17 6 -28 15 -25 20 3 5 11 6 17 2 7 -4
16 -8 21 -8z m-257 -1 c-3 -3 -12 -4 -19 -1 -8 3 -5 6 6 6 11 1 17 -2 13 -5z
m93 -25 c13 -7 13 -9 -2 -14 -11 -4 -31 1 -50 14 l-33 21 35 -6 c19 -4 42 -10
50 -15z m311 -2 c16 -22 16 -23 -10 -22 -24 0 -27 5 -22 35 2 16 15 11 32 -13z
m49 1 c0 -13 -23 -5 -28 10 -2 7 2 10 12 6 9 -3 16 -11 16 -16z m-830 2 c13
-8 13 -10 -2 -10 -9 0 -20 5 -23 10 -8 13 5 13 25 0z m-97 -40 c4 0 7 6 7 14
0 9 8 12 28 8 16 -3 21 -7 12 -10 -8 -2 -20 -11 -26 -19 -10 -12 -16 -10 -36
9 -13 13 -17 17 -8 11 9 -7 20 -13 23 -13z m915 -44 c3 -12 -1 -17 -10 -14 -7
3 -15 13 -16 22 -3 12 1 17 10 14 7 -3 15 -13 16 -22z"/>
<path d="M560 2140 c0 -5 5 -10 11 -10 5 0 7 5 4 10 -3 6 -8 10 -11 10 -2 0
-4 -4 -4 -10z"/>
<path d="M748 2087 c-16 -6 -28 -14 -28 -19 0 -13 13 -9 45 12 33 22 26 24
-17 7z"/>
<path d="M650 2050 c-13 -8 -13 -10 2 -10 9 0 20 5 23 10 8 13 -5 13 -25 0z"/>
<path d="M865 2040 c-3 -5 -1 -10 4 -10 6 0 11 5 11 10 0 6 -2 10 -4 10 -3 0
-8 -4 -11 -10z"/>
<path d="M881 2016 c-7 -8 -8 -17 -3 -19 4 -3 13 3 20 14 14 22 0 26 -17 5z"/>
<path d="M1144 1992 c-32 -29 -74 -85 -74 -99 0 -4 7 1 16 12 8 11 33 39 56
63 46 49 48 64 2 24z"/>
<path d="M1220 1995 c-34 -36 -21 -39 20 -4 22 18 29 29 19 29 -8 0 -26 -11
-39 -25z"/>
<path d="M932 1968 c-6 -7 -18 -33 -28 -58 -9 -25 -21 -49 -26 -54 -11 -13
-10 -26 1 -26 5 0 24 30 42 68 18 37 35 70 37 75 6 12 -15 8 -26 -5z"/>
<path d="M772 1952 c-13 -23 -8 -47 9 -37 5 4 9 1 9 -4 0 -6 5 -11 10 -11 6 0
10 7 10 15 0 8 -4 15 -9 15 -5 0 -11 10 -13 23 l-3 22 -13 -23z"/>
<path d="M832 1935 c-7 -14 -12 -40 -11 -58 l1 -32 10 35 c5 19 14 43 19 52
11 22 11 28 1 28 -5 0 -14 -11 -20 -25z"/>
<path d="M990 1925 c0 -8 5 -15 10 -15 6 0 10 7 10 15 0 8 -4 15 -10 15 -5 0
-10 -7 -10 -15z"/>
<path d="M1150 1920 c0 -5 5 -10 10 -10 6 0 10 5 10 10 0 6 -4 10 -10 10 -5 0
-10 -4 -10 -10z"/>
<path d="M1516 1905 c-9 -9 -16 -21 -16 -27 0 -5 -6 -8 -14 -5 -10 4 -12 0 -9
-14 7 -27 23 -34 23 -10 0 11 10 29 22 41 12 11 19 22 16 25 -3 3 -13 -1 -22
-10z"/>
<path d="M1427 1874 c9 -15 19 -21 21 -15 4 13 -16 41 -29 41 -5 0 -2 -12 8
-26z"/>
<path d="M1130 1874 c0 -8 5 -12 10 -9 6 3 10 10 10 16 0 5 -4 9 -10 9 -5 0
-10 -7 -10 -16z"/>
<path d="M910 1081 c0 -12 5 -21 10 -21 6 0 10 6 10 14 0 8 -4 18 -10 21 -5 3
-10 -3 -10 -14z"/>
<path d="M1738 2519 c3 -18 -3 -44 -14 -64 -25 -46 -11 -55 25 -16 16 17 45
38 64 46 73 30 133 -29 130 -127 -1 -47 9 -63 21 -32 19 50 -13 138 -64 174
-29 21 -35 22 -73 10 -23 -8 -48 -18 -54 -23 -10 -7 -13 -1 -13 27 0 23 -5 36
-13 36 -9 0 -12 -10 -9 -31z"/>
<path d="M1240 2415 c0 -8 4 -15 10 -15 5 0 7 7 4 15 -4 8 -8 15 -10 15 -2 0
-4 -7 -4 -15z"/>
<path d="M920 2375 c47 -18 55 -18 40 0 -7 8 -27 15 -44 14 l-31 -1 35 -13z"/>
<path d="M1275 2320 c3 -5 8 -10 11 -10 2 0 4 5 4 10 0 6 -5 10 -11 10 -5 0
-7 -4 -4 -10z"/>
<path d="M1500 2309 c0 -5 5 -7 10 -4 6 3 10 8 10 11 0 2 -4 4 -10 4 -5 0 -10
-5 -10 -11z"/>
<path d="M1240 2295 c0 -8 2 -15 4 -15 2 0 6 7 10 15 3 8 1 15 -4 15 -6 0 -10
-7 -10 -15z"/>
<path d="M1454 2297 c-8 -21 2 -35 16 -21 5 5 6 15 0 24 -8 12 -10 12 -16 -3z"/>
<path d="M1351 2253 c-1 -12 4 -25 9 -28 12 -7 12 2 0 30 -8 19 -9 19 -9 -2z"/>
<path d="M1920 2240 c0 -24 15 -27 24 -4 9 22 8 24 -9 24 -8 0 -15 -9 -15 -20z"/>
<path d="M1490 2240 c0 -5 9 -10 21 -10 11 0 18 -4 14 -9 -12 -20 13 -19 31 1
19 20 19 21 -3 14 -12 -4 -24 -2 -28 4 -8 13 -35 13 -35 0z"/>
<path d="M1708 2203 c7 -3 16 -2 19 1 4 3 -2 6 -13 5 -11 0 -14 -3 -6 -6z"/>
<path d="M1638 2093 c7 -3 16 -2 19 1 4 3 -2 6 -13 5 -11 0 -14 -3 -6 -6z"/>
<path d="M1665 2080 c-3 -5 1 -10 9 -10 9 0 16 5 16 10 0 6 -4 10 -9 10 -6 0
-13 -4 -16 -10z"/>
<path d="M1205 1090 c-8 -14 -25 -219 -21 -263 4 -40 16 -63 17 -31 1 54 11
109 20 112 6 3 5 10 -2 18 -12 14 -8 106 6 152 7 22 -8 32 -20 12z"/>
<path d="M1220 734 c0 -8 5 -12 10 -9 6 3 10 10 10 16 0 5 -4 9 -10 9 -5 0
-10 -7 -10 -16z"/>
<path d="M1248 705 c-3 -14 -1 -28 3 -31 5 -3 9 9 9 25 0 38 -6 40 -12 6z"/>
<path d="M377 453 c-12 -11 -8 -23 8 -23 8 0 15 7 15 15 0 16 -12 20 -23 8z"/>
<path d="M410 420 c0 -5 5 -10 11 -10 5 0 7 5 4 10 -3 6 -8 10 -11 10 -2 0 -4
-4 -4 -10z"/>
<path d="M220 390 c-12 -8 -12 -10 3 -16 16 -6 74 3 66 10 -12 10 -56 14 -69
6z"/>
<path d="M280 339 c0 -7 -11 -8 -31 -4 -24 6 -30 4 -27 -6 3 -8 14 -15 25 -17
12 -2 29 -12 39 -23 20 -22 34 -25 34 -5 0 7 -10 17 -22 20 l-23 7 23 9 c27
12 29 30 2 30 -11 0 -20 -5 -20 -11z"/>
<path d="M45 320 c-8 -12 20 -24 35 -15 6 3 8 11 5 16 -8 12 -32 12 -40 -1z"/>
<path d="M175 320 c-3 -5 1 -10 9 -10 9 0 16 5 16 10 0 6 -4 10 -9 10 -6 0
-13 -4 -16 -10z"/>
<path d="M125 269 c-19 -17 -39 -28 -44 -25 -12 8 -64 -12 -58 -21 3 -5 33 -6
67 -5 45 3 59 7 51 15 -16 16 -13 27 8 27 11 0 21 6 24 13 3 9 8 9 21 -2 15
-13 19 -13 27 0 7 12 9 11 9 -3 0 -9 9 -20 21 -23 30 -10 33 0 7 27 -35 37
-88 36 -133 -3z"/>
<path d="M2070 279 c0 -5 5 -7 10 -4 6 3 10 8 10 11 0 2 -4 4 -10 4 -5 0 -10
-5 -10 -11z"/>
<path d="M340 271 c0 -5 7 -11 15 -15 31 -12 12 -23 -62 -37 -60 -11 -79 -18
-81 -32 -3 -15 1 -17 25 -11 15 4 30 11 33 15 3 4 27 6 53 5 26 -2 47 1 47 6
0 5 8 7 18 4 9 -3 23 -2 30 3 18 11 4 40 -24 47 -13 3 -24 10 -24 15 0 5 -7 9
-15 9 -8 0 -15 -4 -15 -9z"/>
<path d="M1123 273 c-7 -2 -13 -9 -13 -15 0 -14 43 -6 48 10 4 12 -12 15 -35
5z"/>
<path d="M170 251 c0 -11 39 -26 47 -17 8 8 3 12 -24 20 -13 4 -23 3 -23 -3z"/>
<path d="M163 213 c-7 -2 -13 -11 -13 -19 0 -8 -4 -14 -10 -14 -5 0 -10 -5
-10 -11 0 -6 7 -9 16 -7 8 2 15 8 15 13 0 6 9 13 20 17 10 4 19 12 19 18 0 10
-16 12 -37 3z"/>
<path d="M88 199 c-24 -13 -23 -29 2 -29 11 0 20 2 20 4 0 2 3 11 6 20 7 18
-3 20 -28 5z"/>
<path d="M455 190 c-3 -5 1 -10 10 -10 9 0 13 5 10 10 -3 6 -8 10 -10 10 -2 0
-7 -4 -10 -10z"/>
<path d="M1540 181 c0 -9 24 -21 42 -21 6 0 6 6 -2 15 -14 16 -40 20 -40 6z"/>
<path d="M772 171 c4 -13 18 -16 19 -4 0 4 -5 9 -11 12 -7 2 -11 -2 -8 -8z"/>
<path d="M710 141 c0 -11 39 -25 47 -18 3 3 2 10 -2 16 -8 13 -45 15 -45 2z"/>
<path d="M660 129 c0 -5 5 -7 10 -4 6 3 10 8 10 11 0 2 -4 4 -10 4 -5 0 -10
-5 -10 -11z"/>
<path d="M1721 116 c-12 -14 -10 -16 10 -14 13 1 39 -2 57 -6 20 -5 32 -4 32
3 0 13 -9 18 -51 26 -26 5 -39 2 -48 -9z"/>
<path d="M1845 80 c4 -6 11 -8 16 -5 14 9 11 15 -7 15 -8 0 -12 -5 -9 -10z"/>
<path d="M1910 70 c0 -5 5 -10 10 -10 6 0 10 5 10 10 0 6 -4 10 -10 10 -5 0
-10 -4 -10 -10z"/>
</g>
</svg>
